Monda-Bold.ufo
<glyph name="exclam" format="1">
  <advance width="648"/>
  <unicode hex="0021"/>
  <outline>
    <contour>
      <point x="192" y="0" type="line"/>
      <point x="442" y="0" type="line"/>
      <point x="442" y="245" type="line"/>
      <point x="192" y="245" type="line"/>
    </contour>
    <contour>
      <point x="280" y="410" type="curve"/>
      <point x="356" y="410" type="line"/>
      <point x="356" y="410"/>
      <point x="456" y="1359"/>
      <point x="456" y="1477" type="curve"/>
      <point x="197" y="1477" type="line"/>
      <point x="197" y="1359"/>
      <point x="280" y="410"/>
    </contour>
  </outline>
</glyph>
<glyph name="quotedbl" format="1">
  <advance width="500"/>
  <unicode hex="0022"/>
  <outline>
    <contour>
      <point x="135" y="426" type="line"/>
      <point x="193" y="426" type="line"/>
      <point x="220" y="740" type="line"/>
      <point x="97" y="740" type="line"/>
    </contour>
    <contour>
      <point x="308" y="426" type="line"/>
      <point x="366" y="426" type="line"/>
      <point x="403" y="740" type="line"/>
      <point x="279" y="740" type="line"/>
    </contour>
  </outline>
</glyph>
<glyph name="numbersign" format="1">
  <advance width="698"/>
  <unicode hex="0023"/>
  <outline>
    <contour>
      <point x="109" y="0" type="line"/>
      <point x="209" y="0" type="line"/>
      <point x="250" y="233" type="line"/>
      <point x="375" y="233" type="line"/>
      <point x="333" y="0" type="line"/>
      <point x="434" y="0" type="line"/>
      <point x="474" y="233" type="line"/>
      <point x="607" y="233" type="line"/>
      <point x="607" y="302" type="line"/>
      <point x="486" y="302" type="line"/>
      <point x="510" y="438" type="line"/>
      <point x="619" y="438" type="line"/>
      <point x="619" y="506" type="line"/>
      <point x="522" y="506" type="line"/>
      <point x="559" y="721" type="line"/>
      <point x="462" y="721" type="line"/>
      <point x="424" y="506" type="line"/>
      <point x="297" y="506" type="line"/>
      <point x="334" y="721" type="line"/>
      <point x="238" y="721" type="line"/>
      <point x="199" y="506" type="line"/>
      <point x="62" y="506" type="line"/>
      <point x="62" y="438" type="line"/>
      <point x="188" y="438" type="line"/>
      <point x="163" y="302" type="line"/>
      <point x="51" y="302" type="line"/>
      <point x="51" y="233" type="line"/>
      <point x="151" y="233" type="line"/>
    </contour>
    <contour>
      <point x="262" y="302" type="line"/>
      <point x="285" y="438" type="line"/>
      <point x="412" y="438" type="line"/>
      <point x="387" y="302" type="line"/>
    </contour>
  </outline>
</glyph>
<glyph name="dollar" format="1">
  <advance width="625"/>
  <unicode hex="0024"/>
  <outline>
    <component base="S"/>
    <contour>
      <point x="300" y="-152" type="line"/>
      <point x="354" y="-152" type="line"/>
      <point x="354" y="858" type="line"/>
      <point x="300" y="858" type="line"/>
    </contour>
  </outline>
</glyph>
<glyph name="percent" format="1">
  <advance width="1032"/>
  <unicode hex="0025"/>
  <outline>
    <contour>
      <point x="242" y="388" type="curve" smooth="yes"/>
      <point x="180" y="388"/>
      <point x="174" y="436"/>
      <point x="174" y="502" type="curve" smooth="yes"/>
      <point x="174" y="546" type="line" smooth="yes"/>
      <point x="174" y="609"/>
      <point x="178" y="653"/>
      <point x="242" y="653" type="curve" smooth="yes"/>
      <point x="307" y="653"/>
      <point x="312" y="609"/>
      <point x="312" y="545" type="curve" smooth="yes"/>
      <point x="312" y="502" type="line" smooth="yes"/>
      <point x="312" y="436"/>
      <point x="304" y="388"/>
    </contour>
    <contour>
      <point x="242" y="324" type="curve" smooth="yes"/>
      <point x="354" y="324"/>
      <point x="391" y="397"/>
      <point x="391" y="509" type="curve" smooth="yes"/>
      <point x="391" y="536" type="line"/>
      <point x="390" y="650"/>
      <point x="354" y="716"/>
      <point x="242" y="716" type="curve" smooth="yes"/>
      <point x="129" y="716"/>
      <point x="96" y="649"/>
      <point x="96" y="535" type="curve" smooth="yes"/>
      <point x="96" y="509" type="line" smooth="yes"/>
      <point x="96" y="398"/>
      <point x="130" y="324"/>
    </contour>
    <contour>
      <point x="788" y="54" type="curve" smooth="yes"/>
      <point x="726" y="54"/>
      <point x="719" y="103"/>
      <point x="719" y="169" type="curve" smooth="yes"/>
      <point x="719" y="212" type="line" smooth="yes"/>
      <point x="719" y="275"/>
      <point x="724" y="319"/>
      <point x="788" y="319" type="curve" smooth="yes"/>
      <point x="852" y="319"/>
      <point x="857" y="275"/>
      <point x="857" y="211" type="curve" smooth="yes"/>
      <point x="857" y="169" type="line" smooth="yes"/>
      <point x="857" y="103"/>
      <point x="850" y="54"/>
    </contour>
    <contour>
      <point x="788" y="-9" type="curve" smooth="yes"/>
      <point x="900" y="-9"/>
      <point x="937" y="64"/>
      <point x="937" y="176" type="curve" smooth="yes"/>
      <point x="937" y="202" type="line"/>
      <point x="936" y="316"/>
      <point x="900" y="383"/>
      <point x="788" y="383" type="curve" smooth="yes"/>
      <point x="675" y="383"/>
      <point x="641" y="316"/>
      <point x="641" y="202" type="curve" smooth="yes"/>
      <point x="641" y="176" type="line" smooth="yes"/>
      <point x="641" y="65"/>
      <point x="676" y="-9"/>
    </contour>
    <contour>
      <point x="339" y="0" type="line"/>
      <point x="426" y="0" type="line"/>
      <point x="688" y="706" type="line"/>
      <point x="604" y="706" type="line"/>
    </contour>
  </outline>
</glyph>
<glyph name="ampersand" format="1">
  <advance width="745"/>
  <unicode hex="0026"/>
  <outline>
    <contour>
      <point x="358" y="-13" type="curve" smooth="yes"/>
      <point x="482" y="-13"/>
      <point x="542" y="8"/>
      <point x="579" y="50" type="curve"/>
      <point x="642" y="-11" type="line"/>
      <point x="720" y="73" type="line"/>
      <point x="637" y="151" type="line"/>
      <point x="646" y="179"/>
      <point x="650" y="226"/>
      <point x="650" y="268" type="curve" smooth="yes"/>
      <point x="650" y="401" type="line"/>
      <point x="535" y="401" type="line"/>
      <point x="535" y="244" type="line"/>
      <point x="312" y="464" type="line"/>
      <point x="268" y="510"/>
      <point x="254" y="523"/>
      <point x="254" y="561" type="curve" smooth="yes"/>
      <point x="254" y="607"/>
      <point x="272" y="637"/>
      <point x="371" y="637" type="curve" smooth="yes"/>
      <point x="463" y="637"/>
      <point x="488" y="629"/>
      <point x="488" y="562" type="curve" smooth="yes"/>
      <point x="488" y="542" type="line"/>
      <point x="604" y="542" type="line"/>
      <point x="604" y="583" type="line" smooth="yes"/>
      <point x="604" y="698"/>
      <point x="538" y="735"/>
      <point x="367" y="735" type="curve" smooth="yes"/>
      <point x="191" y="735"/>
      <point x="125" y="681"/>
      <point x="125" y="569" type="curve" smooth="yes"/>
      <point x="125" y="494"/>
      <point x="160" y="450"/>
      <point x="211" y="403" type="curve"/>
      <point x="116" y="375"/>
      <point x="72" y="323"/>
      <point x="72" y="225" type="curve" smooth="yes"/>
      <point x="72" y="53"/>
      <point x="142" y="-13"/>
    </contour>
    <contour>
      <point x="358" y="95" type="curve" smooth="yes"/>
      <point x="233" y="95"/>
      <point x="205" y="127"/>
      <point x="205" y="228" type="curve" smooth="yes"/>
      <point x="205" y="288"/>
      <point x="207" y="326"/>
      <point x="273" y="344" type="curve"/>
      <point x="485" y="136" type="line"/>
      <point x="467" y="96"/>
      <point x="411" y="95"/>
    </contour>
  </outline>
</glyph>
<glyph name="quotesingle" format="1">
  <advance width="375"/>
  <unicode hex="0027"/>
  <outline>
    <contour>
      <point x="165" y="426" type="line"/>
      <point x="223" y="426" type="line"/>
      <point x="250" y="740" type="line"/>
      <point x="126" y="740" type="line"/>
    </contour>
  </outline>
</glyph>
<glyph name="parenleft" format="1">
  <advance width="461"/>
  <unicode hex="0028"/>
  <outline>
    <contour>
      <point x="382" y="-78" type="line"/>
      <point x="382" y="27" type="line"/>
      <point x="280" y="27"/>
      <point x="238" y="59"/>
      <point x="238" y="190" type="curve" smooth="yes"/>
      <point x="238" y="498" type="line" smooth="yes"/>
      <point x="238" y="630"/>
      <point x="281" y="664"/>
      <point x="382" y="664" type="curve"/>
      <point x="382" y="769" type="line"/>
      <point x="380" y="769" type="line" smooth="yes"/>
      <point x="167" y="769"/>
      <point x="102" y="654"/>
      <point x="102" y="481" type="curve" smooth="yes"/>
      <point x="102" y="205" type="line" smooth="yes"/>
      <point x="102" y="33"/>
      <point x="168" y="-78"/>
      <point x="380" y="-78" type="curve" smooth="yes"/>
    </contour>
  </outline>
</glyph>
<glyph name="parenright" format="1">
  <advance width="461"/>
  <unicode hex="0029"/>
  <outline>
    <contour>
      <point x="88" y="-78" type="line"/>
      <point x="90" y="-78" type="line" smooth="yes"/>
      <point x="303" y="-78"/>
      <point x="368" y="37"/>
      <point x="368" y="210" type="curve" smooth="yes"/>
      <point x="368" y="486" type="line" smooth="yes"/>
      <point x="368" y="658"/>
      <point x="302" y="769"/>
      <point x="90" y="769" type="curve" smooth="yes"/>
      <point x="88" y="769" type="line"/>
      <point x="88" y="664" type="line"/>
      <point x="190" y="664"/>
      <point x="232" y="632"/>
      <point x="232" y="500" type="curve" smooth="yes"/>
      <point x="232" y="193" type="line" smooth="yes"/>
      <point x="232" y="61"/>
      <point x="189" y="28"/>
      <point x="88" y="28" type="curve"/>
    </contour>
  </outline>
</glyph>
<glyph name="asterisk" format="1">
  <advance width="487"/>
  <unicode hex="002A"/>
  <outline>
    <contour>
      <point x="200" y="292" type="line"/>
      <point x="287" y="292" type="line"/>
      <point x="273" y="445" type="line"/>
      <point x="394" y="353" type="line"/>
      <point x="440" y="427" type="line"/>
      <point x="303" y="497" type="line"/>
      <point x="445" y="554" type="line"/>
      <point x="406" y="632" type="line"/>
      <point x="272" y="547" type="line"/>
      <point x="287" y="706" type="line"/>
      <point x="200" y="706" type="line"/>
      <point x="214" y="553" type="line"/>
      <point x="93" y="646" type="line"/>
      <point x="47" y="571" type="line"/>
      <point x="184" y="502" type="line"/>
      <point x="42" y="445" type="line"/>
      <point x="81" y="366" type="line"/>
      <point x="214" y="451" type="line"/>
    </contour>
  </outline>
</glyph>
<glyph name="plus" format="1">
  <advance width="471"/>
  <unicode hex="002B"/>
  <outline>
    <contour>
      <point x="196" y="76" type="line"/>
      <point x="276" y="76" type="line"/>
      <point x="276" y="238" type="line"/>
      <point x="407" y="238" type="line"/>
      <point x="407" y="317" type="line"/>
      <point x="276" y="317" type="line"/>
      <point x="276" y="473" type="line"/>
      <point x="196" y="473" type="line"/>
      <point x="196" y="317" type="line"/>
      <point x="64" y="317" type="line"/>
      <point x="64" y="238" type="line"/>
      <point x="196" y="238" type="line"/>
    </contour>
  </outline>
</glyph>
<glyph name="comma" format="1">
  <advance width="768"/>
  <unicode hex="002C"/>
  <outline>
    <contour>
      <point x="349" y="-389" type="line"/>
      <point x="411" y="-333"/>
      <point x="545" y="-148"/>
      <point x="545" y="53" type="curve" smooth="yes"/>
      <point x="545" y="276" type="line"/>
      <point x="223" y="276" type="line"/>
      <point x="223" y="0" type="line"/>
      <point x="388" y="0" type="line"/>
      <point x="388" y="-138"/>
      <point x="293" y="-285"/>
      <point x="242" y="-343" type="curve"/>
    </contour>
  </outline>
</glyph>
<glyph name="period" format="1">
  <advance width="309"/>
  <unicode hex="002E"/>
  <outline>
    <contour>
      <point x="80" y="0" type="line"/>
      <point x="226" y="0" type="line"/>
      <point x="226" y="139" type="line"/>
      <point x="80" y="139" type="line"/>
    </contour>
  </outline>
</glyph>
<glyph name="slash" format="1">
  <advance width="500"/>
  <unicode hex="002F"/>
  <outline>
    <contour>
      <point x="52" y="0" type="line"/>
      <point x="170" y="0" type="line"/>
      <point x="448" y="740" type="line"/>
      <point x="330" y="740" type="line"/>
    </contour>
  </outline>
</glyph>
<glyph name="zero" format="1">
  <advance width="693"/>
  <unicode hex="0030"/>
  <outline>
    <contour>
      <point x="351" y="100" type="curve" smooth="yes"/>
      <point x="248" y="100"/>
      <point x="220" y="181"/>
      <point x="220" y="244" type="curve" smooth="yes"/>
      <point x="220" y="475" type="line" smooth="yes"/>
      <point x="220" y="538"/>
      <point x="244" y="620"/>
      <point x="351" y="620" type="curve" smooth="yes"/>
      <point x="457" y="620"/>
      <point x="479" y="538"/>
      <point x="479" y="475" type="curve" smooth="yes"/>
      <point x="479" y="244" type="line" smooth="yes"/>
      <point x="479" y="181"/>
      <point x="455" y="100"/>
    </contour>
    <contour>
      <point x="351" y="-10" type="curve" smooth="yes"/>
      <point x="542" y="-10"/>
      <point x="620" y="120"/>
      <point x="620" y="249" type="curve" smooth="yes"/>
      <point x="620" y="469" type="line" smooth="yes"/>
      <point x="620" y="602"/>
      <point x="546" y="730"/>
      <point x="351" y="730" type="curve" smooth="yes"/>
      <point x="152" y="730"/>
      <point x="73" y="604"/>
      <point x="73" y="471" type="curve" smooth="yes"/>
      <point x="73" y="247" type="line" smooth="yes"/>
      <point x="73" y="117"/>
      <point x="155" y="-10"/>
    </contour>
  </outline>
</glyph>
<glyph name="one" format="1">
  <advance width="673"/>
  <unicode hex="0031"/>
  <outline>
    <contour>
      <point x="122" y="0" type="line"/>
      <point x="602" y="0" type="line"/>
      <point x="602" y="102" type="line"/>
      <point x="443" y="102" type="line"/>
      <point x="443" y="721" type="line"/>
      <point x="343" y="721" type="line"/>
      <point x="120" y="686" type="line"/>
      <point x="132" y="580" type="line"/>
      <point x="298" y="606" type="line"/>
      <point x="298" y="102" type="line"/>
      <point x="122" y="102" type="line"/>
    </contour>
  </outline>
</glyph>
<glyph name="two" format="1">
  <advance width="673"/>
  <unicode hex="0032"/>
  <outline>
    <contour>
      <point x="135" y="0" type="line"/>
      <point x="569" y="0" type="line"/>
      <point x="569" y="115" type="line"/>
      <point x="295" y="115" type="line"/>
      <point x="445" y="257" type="line" smooth="yes"/>
      <point x="535" y="342"/>
      <point x="576" y="412"/>
      <point x="576" y="518" type="curve" smooth="yes"/>
      <point x="576" y="642"/>
      <point x="506" y="730"/>
      <point x="346" y="730" type="curve" smooth="yes"/>
      <point x="155" y="730"/>
      <point x="99" y="652"/>
      <point x="99" y="484" type="curve"/>
      <point x="245" y="484" type="line"/>
      <point x="245" y="586"/>
      <point x="273" y="619"/>
      <point x="350" y="619" type="curve" smooth="yes"/>
      <point x="402" y="619"/>
      <point x="436" y="584"/>
      <point x="436" y="517" type="curve" smooth="yes"/>
      <point x="436" y="463"/>
      <point x="421" y="422"/>
      <point x="360" y="360" type="curve" smooth="yes"/>
      <point x="118" y="110" type="line"/>
    </contour>
  </outline>
</glyph>
<glyph name="three" format="1">
  <advance width="673"/>
  <unicode hex="0033"/>
  <outline>
    <contour>
      <point x="344" y="-10" type="curve" smooth="yes"/>
      <point x="504" y="-10"/>
      <point x="594" y="68"/>
      <point x="594" y="208" type="curve" smooth="yes"/>
      <point x="594" y="298"/>
      <point x="553" y="360"/>
      <point x="479" y="381" type="curve"/>
      <point x="549" y="396"/>
      <point x="587" y="453"/>
      <point x="587" y="538" type="curve" smooth="yes"/>
      <point x="587" y="662"/>
      <point x="501" y="730"/>
      <point x="345" y="730" type="curve" smooth="yes"/>
      <point x="194" y="730"/>
      <point x="109" y="650"/>
      <point x="108" y="504" type="curve"/>
      <point x="244" y="504" type="line"/>
      <point x="244" y="579"/>
      <point x="280" y="621"/>
      <point x="347" y="621" type="curve" smooth="yes"/>
      <point x="411" y="621"/>
      <point x="447" y="589"/>
      <point x="447" y="531" type="curve" smooth="yes"/>
      <point x="447" y="465"/>
      <point x="418" y="428"/>
      <point x="311" y="428" type="curve"/>
      <point x="311" y="331" type="line"/>
      <point x="420" y="331"/>
      <point x="451" y="289"/>
      <point x="451" y="214" type="curve" smooth="yes"/>
      <point x="451" y="134"/>
      <point x="413" y="98"/>
      <point x="346" y="98" type="curve" smooth="yes"/>
      <point x="275" y="98"/>
      <point x="242" y="139"/>
      <point x="241" y="213" type="curve"/>
      <point x="105" y="213" type="line"/>
      <point x="108" y="70"/>
      <point x="189" y="-10"/>
    </contour>
  </outline>
</glyph>
<glyph name="four" format="1">
  <advance width="673"/>
  <unicode hex="0034"/>
  <outline>
    <contour>
      <point x="410" y="0" type="line"/>
      <point x="525" y="0" type="line"/>
      <point x="525" y="138" type="line"/>
      <point x="633" y="138" type="line"/>
      <point x="633" y="258" type="line"/>
      <point x="525" y="258" type="line"/>
      <point x="525" y="421" type="line"/>
      <point x="410" y="421" type="line"/>
      <point x="410" y="258" type="line"/>
      <point x="241" y="258" type="line"/>
      <point x="451" y="721" type="line"/>
      <point x="302" y="721" type="line"/>
      <point x="83" y="259" type="line"/>
      <point x="83" y="138" type="line"/>
      <point x="410" y="138" type="line"/>
    </contour>
  </outline>
</glyph>
<glyph name="five" format="1">
  <advance width="673"/>
  <unicode hex="0035"/>
  <outline>
    <contour>
      <point x="350" y="-10" type="curve" smooth="yes"/>
      <point x="517" y="-10"/>
      <point x="622" y="87"/>
      <point x="622" y="231" type="curve" smooth="yes"/>
      <point x="622" y="362"/>
      <point x="534" y="467"/>
      <point x="388" y="467" type="curve" smooth="yes"/>
      <point x="340" y="467"/>
      <point x="277" y="456"/>
      <point x="245" y="423" type="curve"/>
      <point x="265" y="601" type="line"/>
      <point x="567" y="601" type="line"/>
      <point x="567" y="721" type="line"/>
      <point x="156" y="721" type="line"/>
      <point x="116" y="347" type="line"/>
      <point x="221" y="295" type="line"/>
      <point x="266" y="338"/>
      <point x="323" y="345"/>
      <point x="362" y="345" type="curve" smooth="yes"/>
      <point x="429" y="345"/>
      <point x="480" y="302"/>
      <point x="480" y="231" type="curve" smooth="yes"/>
      <point x="480" y="134"/>
      <point x="422" y="99"/>
      <point x="342" y="99" type="curve" smooth="yes"/>
      <point x="288" y="99"/>
      <point x="209" y="111"/>
      <point x="129" y="159" type="curve"/>
      <point x="91" y="62" type="line"/>
      <point x="133" y="32"/>
      <point x="239" y="-10"/>
    </contour>
  </outline>
</glyph>
<glyph name="six" format="1">
  <advance width="673"/>
  <unicode hex="0036"/>
  <outline>
    <contour>
      <point x="347" y="-10" type="curve" smooth="yes"/>
      <point x="509" y="-10"/>
      <point x="611" y="77"/>
      <point x="611" y="218" type="curve" smooth="yes"/>
      <point x="611" y="393"/>
      <point x="528" y="454"/>
      <point x="375" y="454" type="curve" smooth="yes"/>
      <point x="360" y="454"/>
      <point x="316" y="446"/>
      <point x="298" y="441" type="curve"/>
      <point x="456" y="721" type="line"/>
      <point x="299" y="721" type="line"/>
      <point x="158" y="471" type="line"/>
      <point x="120" y="398"/>
      <point x="92" y="317"/>
      <point x="92" y="224" type="curve" smooth="yes"/>
      <point x="92" y="79"/>
      <point x="190" y="-10"/>
    </contour>
    <contour>
      <point x="354" y="97" type="curve" smooth="yes"/>
      <point x="278" y="97"/>
      <point x="230" y="146"/>
      <point x="230" y="224" type="curve" smooth="yes"/>
      <point x="230" y="307"/>
      <point x="267" y="354"/>
      <point x="352" y="354" type="curve" smooth="yes"/>
      <point x="446" y="354"/>
      <point x="478" y="305"/>
      <point x="478" y="225" type="curve" smooth="yes"/>
      <point x="478" y="147"/>
      <point x="430" y="97"/>
    </contour>
  </outline>
</glyph>
<glyph name="seven" format="1">
  <advance width="673"/>
  <unicode hex="0037"/>
  <outline>
    <contour>
      <point x="173" y="0" type="line"/>
      <point x="326" y="0" type="line"/>
      <point x="597" y="620" type="line"/>
      <point x="597" y="721" type="line"/>
      <point x="109" y="721" type="line"/>
      <point x="109" y="607" type="line"/>
      <point x="438" y="607" type="line"/>
    </contour>
  </outline>
</glyph>
<glyph name="eight" format="1">
  <advance width="1379"/>
  <unicode hex="0038"/>
  <outline>
    <contour>
      <point x="687" y="-20" type="curve" smooth="yes"/>
      <point x="1040" y="-20"/>
      <point x="1236" y="119"/>
      <point x="1236" y="374" type="curve" smooth="yes"/>
      <point x="1236" y="551"/>
      <point x="1140" y="697"/>
      <point x="904" y="783" type="curve"/>
      <point x="1110" y="848"/>
      <point x="1199" y="982"/>
      <point x="1199" y="1128" type="curve" smooth="yes"/>
      <point x="1199" y="1333"/>
      <point x="1061" y="1496"/>
      <point x="689" y="1496" type="curve" smooth="yes"/>
      <point x="320" y="1496"/>
      <point x="171" y="1335"/>
      <point x="171" y="1134" type="curve" smooth="yes"/>
      <point x="171" y="975"/>
      <point x="259" y="847"/>
      <point x="457" y="783" type="curve"/>
      <point x="261" y="697"/>
      <point x="144" y="571"/>
      <point x="144" y="372" type="curve" smooth="yes"/>
      <point x="144" y="126"/>
      <point x="345" y="-20"/>
    </contour>
    <contour>
      <point x="689" y="193" type="curve" smooth="yes"/>
      <point x="482" y="193"/>
      <point x="417" y="282"/>
      <point x="417" y="391" type="curve" smooth="yes"/>
      <point x="417" y="502"/>
      <point x="504" y="592"/>
      <point x="688" y="672" type="curve"/>
      <point x="873" y="592"/>
      <point x="959" y="502"/>
      <point x="959" y="391" type="curve" smooth="yes"/>
      <point x="959" y="283"/>
      <point x="895" y="193"/>
    </contour>
    <contour>
      <point x="688" y="869" type="curve"/>
      <point x="519" y="950"/>
      <point x="451" y="1010"/>
      <point x="451" y="1119" type="curve" smooth="yes"/>
      <point x="451" y="1217"/>
      <point x="505" y="1289"/>
      <point x="689" y="1289" type="curve" smooth="yes"/>
      <point x="874" y="1289"/>
      <point x="924" y="1213"/>
      <point x="924" y="1119" type="curve" smooth="yes"/>
      <point x="924" y="1015"/>
      <point x="850" y="950"/>
    </contour>
  </outline>
</glyph>
<glyph name="nine" format="1">
  <advance width="673"/>
  <unicode hex="0039"/>
  <outline>
    <contour>
      <point x="237" y="0" type="line"/>
      <point x="394" y="0" type="line"/>
      <point x="535" y="258" type="line"/>
      <point x="573" y="331"/>
      <point x="601" y="407"/>
      <point x="601" y="500" type="curve" smooth="yes"/>
      <point x="601" y="648"/>
      <point x="510" y="730"/>
      <point x="346" y="730" type="curve" smooth="yes"/>
      <point x="176" y="730"/>
      <point x="82" y="650"/>
      <point x="82" y="506" type="curve" smooth="yes"/>
      <point x="82" y="331"/>
      <point x="167" y="278"/>
      <point x="320" y="278" type="curve" smooth="yes"/>
      <point x="335" y="278"/>
      <point x="377" y="283"/>
      <point x="395" y="288" type="curve"/>
    </contour>
    <contour>
      <point x="345" y="382" type="curve" smooth="yes"/>
      <point x="251" y="382"/>
      <point x="221" y="412"/>
      <point x="221" y="506" type="curve" smooth="yes"/>
      <point x="221" y="583"/>
      <point x="265" y="626"/>
      <point x="344" y="626" type="curve" smooth="yes"/>
      <point x="418" y="626"/>
      <point x="458" y="583"/>
      <point x="458" y="507" type="curve" smooth="yes"/>
      <point x="458" y="414"/>
      <point x="430" y="382"/>
    </contour>
  </outline>
</glyph>
<glyph name="less" format="1">
  <advance width="500"/>
  <unicode hex="003C"/>
  <outline>
    <contour>
      <point x="418" y="15" type="line"/>
      <point x="418" y="128" type="line"/>
      <point x="143" y="271" type="line"/>
      <point x="418" y="415" type="line"/>
      <point x="418" y="528" type="line"/>
      <point x="55" y="324" type="line"/>
      <point x="55" y="217" type="line"/>
    </contour>
  </outline>
</glyph>
<glyph name="equal" format="1">
  <advance width="429"/>
  <unicode hex="003D"/>
  <outline>
    <contour>
      <point x="55" y="181" type="line"/>
      <point x="375" y="181" type="line"/>
      <point x="375" y="266" type="line"/>
      <point x="55" y="266" type="line"/>
    </contour>
    <contour>
      <point x="55" y="361" type="line"/>
      <point x="375" y="361" type="line"/>
      <point x="375" y="446" type="line"/>
      <point x="55" y="446" type="line"/>
    </contour>
  </outline>
</glyph>
<glyph name="greater" format="1">
  <advance width="500"/>
  <unicode hex="003E"/>
  <outline>
    <contour>
      <point x="74" y="15" type="line"/>
      <point x="438" y="218" type="line"/>
      <point x="438" y="325" type="line"/>
      <point x="74" y="528" type="line"/>
      <point x="74" y="414" type="line"/>
      <point x="349" y="271" type="line"/>
      <point x="74" y="127" type="line"/>
    </contour>
  </outline>
</glyph>
<glyph name="question" format="1">
  <advance width="607"/>
  <unicode hex="003F"/>
  <outline>
    <contour>
      <point x="217" y="210" type="line"/>
      <point x="329" y="210" type="line"/>
      <point x="418" y="284" type="line" smooth="yes"/>
      <point x="507" y="358"/>
      <point x="546" y="421"/>
      <point x="546" y="521" type="curve" smooth="yes"/>
      <point x="546" y="629"/>
      <point x="511" y="733"/>
      <point x="302" y="733" type="curve" smooth="yes"/>
      <point x="91" y="733"/>
      <point x="63" y="639"/>
      <point x="63" y="506" type="curve" smooth="yes"/>
      <point x="63" y="470" type="line"/>
      <point x="197" y="470" type="line"/>
      <point x="197" y="511" type="line" smooth="yes"/>
      <point x="197" y="580"/>
      <point x="203" y="625"/>
      <point x="302" y="625" type="curve" smooth="yes"/>
      <point x="393" y="625"/>
      <point x="403" y="570"/>
      <point x="403" y="516" type="curve" smooth="yes"/>
      <point x="403" y="457"/>
      <point x="385" y="420"/>
      <point x="338" y="361" type="curve" smooth="yes"/>
    </contour>
    <contour>
      <point x="209" y="0" type="line"/>
      <point x="331" y="0" type="line"/>
      <point x="331" y="120" type="line"/>
      <point x="209" y="120" type="line"/>
    </contour>
  </outline>
</glyph>
<glyph name="at" format="1">
  <advance width="1000"/>
  <unicode hex="0040"/>
  <outline>
    <contour>
      <point x="529" y="-233" type="curve" smooth="yes"/>
      <point x="648" y="-233"/>
      <point x="773" y="-206"/>
      <point x="862" y="-183" type="curve"/>
      <point x="833" y="-84" type="line"/>
      <point x="754" y="-101"/>
      <point x="646" y="-125"/>
      <point x="542" y="-125" type="curve" smooth="yes"/>
      <point x="374" y="-125"/>
      <point x="242" y="-61"/>
      <point x="242" y="177" type="curve" smooth="yes"/>
      <point x="242" y="362" type="line" smooth="yes"/>
      <point x="242" y="609"/>
      <point x="336" y="645"/>
      <point x="518" y="645" type="curve" smooth="yes"/>
      <point x="699" y="645"/>
      <point x="728" y="579"/>
      <point x="728" y="437" type="curve"/>
      <point x="728" y="437"/>
      <point x="577" y="400"/>
      <point x="557" y="395" type="curve" smooth="yes"/>
      <point x="379" y="348"/>
      <point x="356" y="285"/>
      <point x="356" y="209" type="curve" smooth="yes"/>
      <point x="356" y="90"/>
      <point x="447" y="26"/>
      <point x="555" y="26" type="curve" smooth="yes"/>
      <point x="632" y="26"/>
      <point x="709" y="59"/>
      <point x="740" y="102" type="curve"/>
      <point x="758" y="62"/>
      <point x="775" y="29"/>
      <point x="851" y="29" type="curve" smooth="yes"/>
      <point x="902" y="29" type="line"/>
      <point x="912" y="126" type="line"/>
      <point x="865" y="126"/>
      <point x="860" y="144"/>
      <point x="860" y="192" type="curve" smooth="yes"/>
      <point x="859" y="421" type="line" smooth="yes"/>
      <point x="859" y="643"/>
      <point x="778" y="744"/>
      <point x="495" y="744" type="curve" smooth="yes"/>
      <point x="224" y="744"/>
      <point x="117" y="615"/>
      <point x="117" y="376" type="curve" smooth="yes"/>
      <point x="117" y="170" type="line" smooth="yes"/>
      <point x="117" y="-133"/>
      <point x="291" y="-233"/>
    </contour>
    <contour>
      <point x="579" y="130" type="curve" smooth="yes"/>
      <point x="525" y="130"/>
      <point x="480" y="153"/>
      <point x="480" y="217" type="curve" smooth="yes"/>
      <point x="480" y="269"/>
      <point x="501" y="301"/>
      <point x="590" y="325" type="curve" smooth="yes"/>
      <point x="613" y="331"/>
      <point x="727" y="362"/>
      <point x="729" y="363" type="curve"/>
      <point x="729" y="184" type="line"/>
      <point x="724" y="159"/>
      <point x="639" y="130"/>
    </contour>
  </outline>
</glyph>
<glyph name="A" format="1">
  <advance width="1540"/>
  <unicode hex="0041"/>
  <outline>
    <contour>
      <point x="1288" y="0" type="move" name="ogonek"/>
    </contour>
    <contour>
      <point x="84" y="0" type="line"/>
      <point x="391" y="0" type="line"/>
      <point x="477" y="281" type="line"/>
      <point x="1061" y="281" type="line"/>
      <point x="1144" y="0" type="line"/>
      <point x="1456" y="0" type="line"/>
      <point x="964" y="1476" type="line"/>
      <point x="570" y="1476" type="line"/>
    </contour>
    <contour>
      <point x="536" y="479" type="line"/>
      <point x="774" y="1245" type="line"/>
      <point x="1004" y="479" type="line"/>
    </contour>
  </outline>
</glyph>
<glyph name="B" format="1">
  <advance width="728"/>
  <unicode hex="0042"/>
  <outline>
    <contour>
      <point x="104" y="0" type="line"/>
      <point x="416" y="0" type="line" smooth="yes"/>
      <point x="591" y="0"/>
      <point x="667" y="65"/>
      <point x="667" y="209" type="curve" smooth="yes"/>
      <point x="667" y="219" type="line" smooth="yes"/>
      <point x="667" y="313"/>
      <point x="644" y="379"/>
      <point x="544" y="393" type="curve"/>
      <point x="619" y="412"/>
      <point x="636" y="458"/>
      <point x="636" y="531" type="curve" smooth="yes"/>
      <point x="636" y="660"/>
      <point x="583" y="721"/>
      <point x="381" y="721" type="curve" smooth="yes"/>
      <point x="104" y="721" type="line"/>
    </contour>
    <contour>
      <point x="249" y="102" type="line"/>
      <point x="249" y="343" type="line"/>
      <point x="404" y="343" type="line" smooth="yes"/>
      <point x="512" y="343"/>
      <point x="522" y="294"/>
      <point x="522" y="222" type="curve" smooth="yes"/>
      <point x="522" y="122"/>
      <point x="502" y="102"/>
      <point x="389" y="102" type="curve" smooth="yes"/>
    </contour>
    <contour>
      <point x="249" y="431" type="line"/>
      <point x="249" y="622" type="line"/>
      <point x="372" y="622" type="line" smooth="yes"/>
      <point x="470" y="622"/>
      <point x="488" y="606"/>
      <point x="488" y="530" type="curve" smooth="yes"/>
      <point x="488" y="465"/>
      <point x="482" y="431"/>
      <point x="398" y="431" type="curve" smooth="yes"/>
    </contour>
  </outline>
</glyph>
<glyph name="C" format="1">
  <advance width="736"/>
  <unicode hex="0043"/>
  <outline>
    <contour>
      <point x="374" y="0" type="move" name="bot"/>
    </contour>
    <contour>
      <point x="385" y="-13" type="curve" smooth="yes"/>
      <point x="635" y="-13"/>
      <point x="669" y="92"/>
      <point x="669" y="234" type="curve" smooth="yes"/>
      <point x="669" y="248" type="line"/>
      <point x="527" y="248" type="line"/>
      <point x="527" y="225" type="line" smooth="yes"/>
      <point x="527" y="122"/>
      <point x="495" y="101"/>
      <point x="385" y="101" type="curve" smooth="yes"/>
      <point x="277" y="101"/>
      <point x="227" y="123"/>
      <point x="227" y="222" type="curve" smooth="yes"/>
      <point x="227" y="494" type="line" smooth="yes"/>
      <point x="227" y="593"/>
      <point x="278" y="619"/>
      <point x="385" y="619" type="curve" smooth="yes"/>
      <point x="495" y="619"/>
      <point x="527" y="592"/>
      <point x="527" y="491" type="curve" smooth="yes"/>
      <point x="527" y="455" type="line"/>
      <point x="669" y="471" type="line"/>
      <point x="669" y="480" type="line" smooth="yes"/>
      <point x="669" y="626"/>
      <point x="631" y="733"/>
      <point x="385" y="733" type="curve" smooth="yes"/>
      <point x="127" y="733"/>
      <point x="82" y="623"/>
      <point x="82" y="477" type="curve" smooth="yes"/>
      <point x="82" y="236" type="line" smooth="yes"/>
      <point x="82" y="94"/>
      <point x="128" y="-13"/>
    </contour>
  </outline>
</glyph>
<glyph name="D" format="1">
  <advance width="763"/>
  <unicode hex="0044"/>
  <outline>
    <contour>
      <point x="249" y="113" type="line"/>
      <point x="249" y="608" type="line"/>
      <point x="404" y="608" type="line" smooth="yes"/>
      <point x="505" y="608"/>
      <point x="537" y="566"/>
      <point x="537" y="488" type="curve" smooth="yes"/>
      <point x="537" y="229" type="line" smooth="yes"/>
      <point x="537" y="149"/>
      <point x="506" y="113"/>
      <point x="404" y="113" type="curve" smooth="yes"/>
    </contour>
    <contour>
      <point x="104" y="0" type="line"/>
      <point x="417" y="0" type="line" smooth="yes"/>
      <point x="620" y="0"/>
      <point x="682" y="104"/>
      <point x="682" y="248" type="curve" smooth="yes"/>
      <point x="682" y="469" type="line" smooth="yes"/>
      <point x="682" y="610"/>
      <point x="625" y="721"/>
      <point x="416" y="721" type="curve" smooth="yes"/>
      <point x="104" y="721" type="line"/>
    </contour>
  </outline>
</glyph>
<glyph name="E" format="1">
  <advance width="642"/>
  <unicode hex="0045"/>
  <outline>
    <contour>
      <point x="355" y="0" type="move" name="bot"/>
    </contour>
    <contour>
      <point x="436" y="0" type="move" name="ogonek"/>
    </contour>
    <contour>
      <point x="104" y="0" type="line"/>
      <point x="581" y="0" type="line"/>
      <point x="581" y="109" type="line"/>
      <point x="248" y="109" type="line"/>
      <point x="248" y="315" type="line"/>
      <point x="539" y="315" type="line"/>
      <point x="539" y="420" type="line"/>
      <point x="248" y="420" type="line"/>
      <point x="248" y="611" type="line"/>
      <point x="576" y="611" type="line"/>
      <point x="576" y="721" type="line"/>
      <point x="104" y="721" type="line"/>
    </contour>
  </outline>
</glyph>
<glyph name="F" format="1">
  <advance width="583"/>
  <unicode hex="0046"/>
  <outline>
    <contour>
      <point x="104" y="0" type="line"/>
      <point x="249" y="0" type="line"/>
      <point x="249" y="310" type="line"/>
      <point x="520" y="310" type="line"/>
      <point x="520" y="414" type="line"/>
      <point x="249" y="414" type="line"/>
      <point x="249" y="610" type="line"/>
      <point x="540" y="610" type="line"/>
      <point x="540" y="721" type="line"/>
      <point x="104" y="721" type="line"/>
    </contour>
  </outline>
</glyph>
<glyph name="G" format="1">
  <advance width="792"/>
  <unicode hex="0047"/>
  <outline>
    <contour>
      <point x="375" y="0" type="move" name="bot"/>
    </contour>
    <contour>
      <point x="401" y="-13" type="curve" smooth="yes"/>
      <point x="557" y="-13"/>
      <point x="590" y="60"/>
      <point x="597" y="83" type="curve"/>
      <point x="620" y="0" type="line"/>
      <point x="697" y="0" type="line"/>
      <point x="697" y="370" type="line"/>
      <point x="420" y="370" type="line"/>
      <point x="420" y="274" type="line"/>
      <point x="566" y="274" type="line"/>
      <point x="566" y="222" type="line" smooth="yes"/>
      <point x="566" y="123"/>
      <point x="511" y="101"/>
      <point x="401" y="101" type="curve" smooth="yes"/>
      <point x="293" y="101"/>
      <point x="228" y="123"/>
      <point x="228" y="222" type="curve" smooth="yes"/>
      <point x="228" y="494" type="line" smooth="yes"/>
      <point x="228" y="593"/>
      <point x="294" y="619"/>
      <point x="401" y="619" type="curve" smooth="yes"/>
      <point x="509" y="619"/>
      <point x="554" y="596"/>
      <point x="554" y="499" type="curve" smooth="yes"/>
      <point x="554" y="470" type="line"/>
      <point x="696" y="480" type="line"/>
      <point x="696" y="492" type="line" smooth="yes"/>
      <point x="696" y="630"/>
      <point x="651" y="733"/>
      <point x="401" y="733" type="curve" smooth="yes"/>
      <point x="143" y="733"/>
      <point x="82" y="623"/>
      <point x="82" y="477" type="curve" smooth="yes"/>
      <point x="82" y="236" type="line" smooth="yes"/>
      <point x="82" y="94"/>
      <point x="144" y="-13"/>
    </contour>
  </outline>
</glyph>
<glyph name="H" format="1">
  <advance width="814"/>
  <unicode hex="0048"/>
  <outline>
    <contour>
      <point x="104" y="0" type="line"/>
      <point x="249" y="0" type="line"/>
      <point x="249" y="300" type="line"/>
      <point x="565" y="300" type="line"/>
      <point x="565" y="0" type="line"/>
      <point x="711" y="0" type="line"/>
      <point x="711" y="721" type="line"/>
      <point x="565" y="721" type="line"/>
      <point x="565" y="414" type="line"/>
      <point x="249" y="414" type="line"/>
      <point x="249" y="721" type="line"/>
      <point x="104" y="721" type="line"/>
    </contour>
  </outline>
</glyph>
<glyph name="I" format="1">
  <advance width="560"/>
  <unicode hex="0049"/>
  <outline>
    <contour>
      <point x="285" y="0" type="move" name="ogonek"/>
    </contour>
    <contour>
      <point x="77" y="0" type="line"/>
      <point x="483" y="0" type="line"/>
      <point x="483" y="108" type="line"/>
      <point x="353" y="108" type="line"/>
      <point x="353" y="613" type="line"/>
      <point x="483" y="613" type="line"/>
      <point x="483" y="721" type="line"/>
      <point x="77" y="721" type="line"/>
      <point x="77" y="613" type="line"/>
      <point x="208" y="613" type="line"/>
      <point x="208" y="108" type="line"/>
      <point x="77" y="108" type="line"/>
    </contour>
  </outline>
</glyph>
<glyph name="J" format="1">
  <advance width="596"/>
  <unicode hex="004A"/>
  <outline>
    <contour>
      <point x="246" y="-12" type="curve" smooth="yes"/>
      <point x="408" y="-12"/>
      <point x="506" y="67"/>
      <point x="506" y="206" type="curve" smooth="yes"/>
      <point x="506" y="721" type="line"/>
      <point x="113" y="721" type="line"/>
      <point x="113" y="610" type="line"/>
      <point x="361" y="610" type="line"/>
      <point x="361" y="215" type="line" smooth="yes"/>
      <point x="361" y="153"/>
      <point x="328" y="102"/>
      <point x="237" y="102" type="curve" smooth="yes"/>
      <point x="186" y="102"/>
      <point x="115" y="118"/>
      <point x="68" y="140" type="curve"/>
      <point x="34" y="33" type="line"/>
      <point x="97" y="3"/>
      <point x="176" y="-12"/>
    </contour>
  </outline>
</glyph>
<glyph name="K" format="1">
  <advance width="717"/>
  <unicode hex="004B"/>
  <outline>
    <contour>
      <point x="104" y="0" type="line"/>
      <point x="249" y="0" type="line"/>
      <point x="249" y="264" type="line"/>
      <point x="316" y="332" type="line"/>
      <point x="543" y="0" type="line"/>
      <point x="707" y="0" type="line"/>
      <point x="437" y="393" type="line"/>
      <point x="689" y="721" type="line"/>
      <point x="529" y="721" type="line"/>
      <point x="249" y="371" type="line"/>
      <point x="249" y="721" type="line"/>
      <point x="104" y="721" type="line"/>
    </contour>
    <contour>
      <point x="382" y="0" type="move" name="bot"/>
    </contour>
  </outline>
</glyph>
<glyph name="L" format="1">
  <advance width="1194"/>
  <unicode hex="004C"/>
  <outline>
    <contour>
      <point x="212" y="0" type="line"/>
      <point x="1126" y="0" type="line"/>
      <point x="1126" y="232" type="line"/>
      <point x="509" y="232" type="line"/>
      <point x="509" y="1476" type="line"/>
      <point x="212" y="1476" type="line"/>
    </contour>
    <contour>
      <point x="657" y="0" type="move" name="bot"/>
    </contour>
  </outline>
</glyph>
<glyph name="M" format="1">
  <advance width="936"/>
  <unicode hex="004D"/>
  <outline>
    <contour>
      <point x="104" y="0" type="line"/>
      <point x="239" y="0" type="line"/>
      <point x="239" y="531" type="line"/>
      <point x="420" y="209" type="line"/>
      <point x="517" y="209" type="line"/>
      <point x="697" y="533" type="line"/>
      <point x="697" y="0" type="line"/>
      <point x="833" y="0" type="line"/>
      <point x="833" y="721" type="line"/>
      <point x="670" y="721" type="line"/>
      <point x="468" y="372" type="line"/>
      <point x="263" y="721" type="line"/>
      <point x="104" y="721" type="line"/>
    </contour>
  </outline>
</glyph>
<glyph name="N" format="1">
  <advance width="819"/>
  <unicode hex="004E"/>
  <outline>
    <contour>
      <point x="440" y="0" type="move" name="bot"/>
    </contour>
    <contour>
      <point x="104" y="0" type="line"/>
      <point x="234" y="0" type="line"/>
      <point x="234" y="486" type="line"/>
      <point x="607" y="0" type="line"/>
      <point x="716" y="0" type="line"/>
      <point x="716" y="721" type="line"/>
      <point x="587" y="721" type="line"/>
      <point x="587" y="227" type="line"/>
      <point x="212" y="721" type="line"/>
      <point x="104" y="721" type="line"/>
    </contour>
  </outline>
</glyph>
<glyph name="O" format="1">
  <advance width="791"/>
  <unicode hex="004F"/>
  <outline>
    <contour>
      <point x="401" y="101" type="curve" smooth="yes"/>
      <point x="293" y="101"/>
      <point x="228" y="130"/>
      <point x="228" y="229" type="curve" smooth="yes"/>
      <point x="228" y="490" type="line" smooth="yes"/>
      <point x="228" y="589"/>
      <point x="294" y="619"/>
      <point x="401" y="619" type="curve" smooth="yes"/>
      <point x="509" y="619"/>
      <point x="564" y="587"/>
      <point x="564" y="490" type="curve" smooth="yes"/>
      <point x="564" y="229" type="line" smooth="yes"/>
      <point x="564" y="130"/>
      <point x="510" y="101"/>
    </contour>
    <contour>
      <point x="401" y="-13" type="curve" smooth="yes"/>
      <point x="649" y="-13"/>
      <point x="710" y="110"/>
      <point x="710" y="252" type="curve" smooth="yes"/>
      <point x="710" y="463" type="line" smooth="yes"/>
      <point x="710" y="609"/>
      <point x="650" y="733"/>
      <point x="401" y="733" type="curve" smooth="yes"/>
      <point x="141" y="733"/>
      <point x="82" y="616"/>
      <point x="82" y="470" type="curve" smooth="yes"/>
      <point x="82" y="245" type="line" smooth="yes"/>
      <point x="82" y="102"/>
      <point x="142" y="-13"/>
    </contour>
    <contour>
      <point x="431" y="0" type="move" name="ogonek"/>
    </contour>
  </outline>
</glyph>
<glyph name="P" format="1">
  <advance width="1408"/>
  <unicode hex="0050"/>
  <outline>
    <contour>
      <point x="212" y="0" type="line"/>
      <point x="509" y="0" type="line"/>
      <point x="509" y="509" type="line"/>
      <point x="762" y="509" type="line" smooth="yes"/>
      <point x="1148" y="509"/>
      <point x="1272" y="663"/>
      <point x="1272" y="1005" type="curve" smooth="yes"/>
      <point x="1272" y="1337"/>
      <point x="1117" y="1476"/>
      <point x="791" y="1476" type="curve" smooth="yes"/>
      <point x="212" y="1476" type="line"/>
    </contour>
    <contour>
      <point x="509" y="726" type="line"/>
      <point x="509" y="1265" type="line"/>
      <point x="819" y="1265" type="line" smooth="yes"/>
      <point x="959" y="1265"/>
      <point x="994" y="1145"/>
      <point x="994" y="990" type="curve" smooth="yes"/>
      <point x="994" y="813"/>
      <point x="959" y="726"/>
      <point x="809" y="726" type="curve" smooth="yes"/>
    </contour>
  </outline>
</glyph>
<glyph name="Q" format="1">
  <advance width="791"/>
  <unicode hex="0051"/>
  <outline>
    <contour>
      <point x="497" y="-261" type="line"/>
      <point x="589" y="-208" type="line"/>
      <point x="470" y="-9" type="line"/>
      <point x="661" y="12"/>
      <point x="710" y="125"/>
      <point x="710" y="252" type="curve" smooth="yes"/>
      <point x="710" y="463" type="line" smooth="yes"/>
      <point x="710" y="609"/>
      <point x="650" y="733"/>
      <point x="401" y="733" type="curve" smooth="yes"/>
      <point x="141" y="733"/>
      <point x="82" y="616"/>
      <point x="82" y="470" type="curve" smooth="yes"/>
      <point x="82" y="245" type="line" smooth="yes"/>
      <point x="82" y="115"/>
      <point x="132" y="7"/>
      <point x="340" y="-10" type="curve"/>
    </contour>
    <contour>
      <point x="401" y="101" type="curve" smooth="yes"/>
      <point x="293" y="101"/>
      <point x="228" y="130"/>
      <point x="228" y="229" type="curve" smooth="yes"/>
      <point x="228" y="490" type="line" smooth="yes"/>
      <point x="228" y="589"/>
      <point x="294" y="619"/>
      <point x="401" y="619" type="curve" smooth="yes"/>
      <point x="509" y="619"/>
      <point x="564" y="587"/>
      <point x="564" y="490" type="curve" smooth="yes"/>
      <point x="564" y="229" type="line" smooth="yes"/>
      <point x="564" y="130"/>
      <point x="510" y="101"/>
    </contour>
  </outline>
</glyph>
<glyph name="R" format="1">
  <advance width="744"/>
  <unicode hex="0052"/>
  <outline>
    <contour>
      <point x="104" y="0" type="line"/>
      <point x="249" y="0" type="line"/>
      <point x="249" y="285" type="line"/>
      <point x="412" y="285" type="line"/>
      <point x="538" y="0" type="line"/>
      <point x="688" y="0" type="line"/>
      <point x="549" y="306" type="line"/>
      <point x="637" y="342"/>
      <point x="655" y="416"/>
      <point x="655" y="505" type="curve" smooth="yes"/>
      <point x="655" y="635"/>
      <point x="606" y="721"/>
      <point x="415" y="721" type="curve" smooth="yes"/>
      <point x="104" y="721" type="line"/>
    </contour>
    <contour>
      <point x="249" y="388" type="line"/>
      <point x="249" y="618" type="line"/>
      <point x="433" y="618" type="line" smooth="yes"/>
      <point x="505" y="618"/>
      <point x="517" y="558"/>
      <point x="517" y="499" type="curve" smooth="yes"/>
      <point x="517" y="437"/>
      <point x="501" y="388"/>
      <point x="427" y="388" type="curve" smooth="yes"/>
    </contour>
    <contour>
      <point x="392" y="0" type="move" name="bot"/>
    </contour>
  </outline>
</glyph>
<glyph name="S" format="1">
  <advance width="1281"/>
  <unicode hex="0053"/>
  <outline>
    <contour>
      <point x="670" y="1476" type="move" name="top"/>
    </contour>
    <contour>
      <point x="702" y="0" type="move" name="bot"/>
    </contour>
    <contour>
      <point x="898" y="412" type="curve" smooth="yes"/>
      <point x="898" y="287"/>
      <point x="860" y="207"/>
      <point x="681" y="207" type="curve" smooth="yes"/>
      <point x="498" y="207"/>
      <point x="335" y="265"/>
      <point x="222" y="325" type="curve"/>
      <point x="120" y="108" type="line"/>
      <point x="268" y="25"/>
      <point x="487" y="-26"/>
      <point x="688" y="-26" type="curve" smooth="yes"/>
      <point x="1025" y="-26"/>
      <point x="1169" y="172"/>
      <point x="1169" y="422" type="curve" smooth="yes"/>
      <point x="1169" y="654"/>
      <point x="1069" y="777"/>
      <point x="870" y="837" type="curve" smooth="yes"/>
      <point x="619" y="912" type="line" smooth="yes"/>
      <point x="471" y="956"/>
      <point x="428" y="1003"/>
      <point x="428" y="1103" type="curve" smooth="yes"/>
      <point x="428" y="1225"/>
      <point x="514" y="1268"/>
      <point x="675" y="1268" type="curve" smooth="yes"/>
      <point x="819" y="1268"/>
      <point x="949" y="1229"/>
      <point x="1059" y="1177" type="curve"/>
      <point x="1143" y="1386" type="line"/>
      <point x="1007" y="1465"/>
      <point x="844" y="1501"/>
      <point x="649" y="1501" type="curve" smooth="yes"/>
      <point x="358" y="1501"/>
      <point x="136" y="1369"/>
      <point x="136" y="1094" type="curve" smooth="yes"/>
      <point x="136" y="905"/>
      <point x="201" y="752"/>
      <point x="442" y="681" type="curve" smooth="yes"/>
      <point x="694" y="607" type="line" smooth="yes"/>
      <point x="871" y="555"/>
      <point x="898" y="493"/>
    </contour>
  </outline>
</glyph>
<glyph name="T" format="1">
  <advance width="583"/>
  <unicode hex="0054"/>
  <outline>
    <contour>
      <point x="219" y="0" type="line"/>
      <point x="364" y="0" type="line"/>
      <point x="364" y="610" type="line"/>
      <point x="564" y="610" type="line"/>
      <point x="564" y="721" type="line"/>
      <point x="19" y="721" type="line"/>
      <point x="19" y="610" type="line"/>
      <point x="219" y="610" type="line"/>
    </contour>
    <contour>
      <point x="281" y="0" type="move" name="bot"/>
    </contour>
  </outline>
</glyph>
<glyph name="U" format="1">
  <advance width="784"/>
  <unicode hex="0055"/>
  <outline>
    <contour>
      <point x="396" y="-13" type="curve" smooth="yes"/>
      <point x="639" y="-13"/>
      <point x="690" y="97"/>
      <point x="690" y="234" type="curve" smooth="yes"/>
      <point x="690" y="721" type="line"/>
      <point x="545" y="721" type="line"/>
      <point x="545" y="222" type="line" smooth="yes"/>
      <point x="545" y="128"/>
      <point x="498" y="101"/>
      <point x="396" y="101" type="curve" smooth="yes"/>
      <point x="296" y="101"/>
      <point x="239" y="127"/>
      <point x="239" y="222" type="curve" smooth="yes"/>
      <point x="239" y="721" type="line"/>
      <point x="94" y="721" type="line"/>
      <point x="94" y="229" type="line" smooth="yes"/>
      <point x="94" y="91"/>
      <point x="149" y="-13"/>
    </contour>
    <contour>
      <point x="434" y="0" type="move" name="ogonek"/>
    </contour>
  </outline>
</glyph>
<glyph name="V" format="1">
  <advance width="1484"/>
  <unicode hex="0056"/>
  <outline>
    <contour>
      <point x="564" y="0" type="line"/>
      <point x="924" y="0" type="line"/>
      <point x="1444" y="1476" type="line"/>
      <point x="1129" y="1476" type="line"/>
      <point x="748" y="287" type="line"/>
      <point x="354" y="1476" type="line"/>
      <point x="40" y="1476" type="line"/>
    </contour>
  </outline>
</glyph>
<glyph name="W" format="1">
  <advance width="983"/>
  <unicode hex="0057"/>
  <outline>
    <contour>
      <point x="218" y="0" type="line"/>
      <point x="348" y="0" type="line"/>
      <point x="490" y="514" type="line"/>
      <point x="644" y="0" type="line"/>
      <point x="766" y="0" type="line"/>
      <point x="949" y="721" type="line"/>
      <point x="812" y="721" type="line"/>
      <point x="700" y="228" type="line"/>
      <point x="547" y="721" type="line"/>
      <point x="426" y="721" type="line"/>
      <point x="293" y="222" type="line"/>
      <point x="171" y="721" type="line"/>
      <point x="34" y="721" type="line"/>
    </contour>
  </outline>
</glyph>
<glyph name="X" format="1">
  <advance width="660"/>
  <unicode hex="0058"/>
  <outline>
    <contour>
      <point x="19" y="0" type="line"/>
      <point x="170" y="0" type="line"/>
      <point x="327" y="245" type="line"/>
      <point x="482" y="0" type="line"/>
      <point x="642" y="0" type="line"/>
      <point x="405" y="366" type="line"/>
      <point x="633" y="721" type="line"/>
      <point x="473" y="721" type="line"/>
      <point x="327" y="487" type="line"/>
      <point x="175" y="721" type="line"/>
      <point x="24" y="721" type="line"/>
      <point x="250" y="365" type="line"/>
    </contour>
  </outline>
</glyph>
<glyph name="Y" format="1">
  <advance width="654"/>
  <unicode hex="0059"/>
  <outline>
    <contour>
      <point x="257" y="0" type="line"/>
      <point x="402" y="0" type="line"/>
      <point x="402" y="277" type="line"/>
      <point x="646" y="721" type="line"/>
      <point x="499" y="721" type="line"/>
      <point x="331" y="419" type="line"/>
      <point x="162" y="721" type="line"/>
      <point x="9" y="721" type="line"/>
      <point x="257" y="277" type="line"/>
    </contour>
  </outline>
</glyph>
<glyph name="Z" format="1">
  <advance width="596"/>
  <unicode hex="005A"/>
  <outline>
    <contour>
      <point x="60" y="0" type="line"/>
      <point x="557" y="0" type="line"/>
      <point x="557" y="103" type="line"/>
      <point x="229" y="103" type="line"/>
      <point x="551" y="633" type="line"/>
      <point x="551" y="721" type="line"/>
      <point x="72" y="721" type="line"/>
      <point x="72" y="614" type="line"/>
      <point x="383" y="614" type="line"/>
      <point x="60" y="86" type="line"/>
    </contour>
  </outline>
</glyph>
<glyph name="bracketleft" format="1">
  <advance width="411"/>
  <unicode hex="005B"/>
  <outline>
    <contour>
      <point x="104" y="-43" type="line"/>
      <point x="339" y="-43" type="line"/>
      <point x="339" y="35" type="line"/>
      <point x="237" y="35" type="line"/>
      <point x="237" y="699" type="line"/>
      <point x="339" y="699" type="line"/>
      <point x="339" y="777" type="line"/>
      <point x="104" y="777" type="line"/>
    </contour>
  </outline>
</glyph>
<glyph name="backslash" format="1">
  <advance width="500"/>
  <unicode hex="005C"/>
  <outline>
    <contour>
      <point x="330" y="0" type="line"/>
      <point x="448" y="0" type="line"/>
      <point x="170" y="740" type="line"/>
      <point x="52" y="740" type="line"/>
    </contour>
  </outline>
</glyph>
<glyph name="bracketright" format="1">
  <advance width="842"/>
  <unicode hex="005D"/>
  <outline>
    <contour>
      <point x="146" y="-89" type="line"/>
      <point x="628" y="-89" type="line"/>
      <point x="628" y="1592" type="line"/>
      <point x="146" y="1592" type="line"/>
      <point x="146" y="1431" type="line"/>
      <point x="356" y="1431" type="line"/>
      <point x="356" y="72" type="line"/>
      <point x="146" y="72" type="line"/>
    </contour>
  </outline>
</glyph>
<glyph name="asciicircum" format="1">
  <advance width="613"/>
  <unicode hex="005E"/>
  <outline>
    <contour>
      <point x="39" y="250" type="line"/>
      <point x="155" y="250" type="line"/>
      <point x="304" y="543" type="line"/>
      <point x="452" y="250" type="line"/>
      <point x="563" y="250" type="line"/>
      <point x="364" y="626" type="line"/>
      <point x="237" y="626" type="line"/>
    </contour>
  </outline>
</glyph>
<glyph name="underscore" format="1">
  <advance width="441"/>
  <unicode hex="005F"/>
  <outline>
    <contour>
      <point x="4" y="-16" type="line"/>
      <point x="435" y="-16" type="line"/>
      <point x="435" y="70" type="line"/>
      <point x="4" y="70" type="line"/>
    </contour>
  </outline>
</glyph>
<glyph name="grave" format="1">
  <advance width="556"/>
  <unicode hex="0060"/>
  <outline>
    <contour>
      <point x="397" y="1074" type="move" name="_top"/>
    </contour>
    <contour>
      <point x="76" y="1583" type="line"/>
      <point x="309" y="1218" type="line"/>
      <point x="458" y="1218" type="line"/>
      <point x="344" y="1583" type="line"/>
    </contour>
  </outline>
</glyph>
<glyph name="a" format="1">
  <advance width="573"/>
  <unicode hex="0061"/>
  <outline>
    <contour>
      <point x="207" y="-11" type="curve" smooth="yes"/>
      <point x="284" y="-11"/>
      <point x="339" y="17"/>
      <point x="370" y="63" type="curve"/>
      <point x="386" y="21"/>
      <point x="417" y="-4"/>
      <point x="495" y="-4" type="curve" smooth="yes"/>
      <point x="540" y="-4" type="line"/>
      <point x="545" y="93" type="line"/>
      <point x="497" y="93"/>
      <point x="490" y="102"/>
      <point x="490" y="150" type="curve" smooth="yes"/>
      <point x="490" y="358" type="line" smooth="yes"/>
      <point x="490" y="466"/>
      <point x="436" y="536"/>
      <point x="279" y="536" type="curve" smooth="yes"/>
      <point x="135" y="536"/>
      <point x="70" y="471"/>
      <point x="70" y="369" type="curve" smooth="yes"/>
      <point x="70" y="353" type="line"/>
      <point x="195" y="353" type="line"/>
      <point x="195" y="374" type="line" smooth="yes"/>
      <point x="195" y="415"/>
      <point x="210" y="443"/>
      <point x="276" y="443" type="curve" smooth="yes"/>
      <point x="336" y="443"/>
      <point x="359" y="428"/>
      <point x="359" y="386" type="curve" smooth="yes"/>
      <point x="359" y="345"/>
      <point x="344" y="339"/>
      <point x="317" y="329" type="curve" smooth="yes"/>
      <point x="221" y="294" type="line" smooth="yes"/>
      <point x="98" y="250"/>
      <point x="55" y="203"/>
      <point x="55" y="136" type="curve" smooth="yes"/>
      <point x="55" y="46"/>
      <point x="116" y="-11"/>
    </contour>
    <contour>
      <point x="241" y="79" type="curve" smooth="yes"/>
      <point x="209" y="79"/>
      <point x="182" y="95"/>
      <point x="182" y="141" type="curve" smooth="yes"/>
      <point x="182" y="172"/>
      <point x="202" y="198"/>
      <point x="254" y="219" type="curve" smooth="yes"/>
      <point x="359" y="260" type="line"/>
      <point x="359" y="141" type="line"/>
      <point x="333" y="101"/>
      <point x="272" y="79"/>
    </contour>
    <contour>
      <point x="492" y="0" type="move" name="ogonek"/>
    </contour>
  </outline>
</glyph>
<glyph name="b" format="1">
  <advance width="1232"/>
  <unicode hex="0062"/>
  <outline>
    <contour>
      <point x="702" y="1074" type="move" name="top"/>
    </contour>
    <contour>
      <point x="665" y="-23" type="curve" smooth="yes"/>
      <point x="926" y="-23"/>
      <point x="1092" y="120"/>
      <point x="1092" y="329" type="curve" smooth="yes"/>
      <point x="1092" y="753" type="line" smooth="yes"/>
      <point x="1092" y="934"/>
      <point x="984" y="1097"/>
      <point x="682" y="1097" type="curve" smooth="yes"/>
      <point x="592" y="1097"/>
      <point x="507" y="1074"/>
      <point x="442" y="1040" type="curve"/>
      <point x="442" y="1516" type="line"/>
      <point x="170" y="1516" type="line"/>
      <point x="170" y="0" type="line"/>
      <point x="357" y="0" type="line"/>
      <point x="384" y="65" type="line"/>
      <point x="453" y="19"/>
      <point x="548" y="-23"/>
    </contour>
    <contour>
      <point x="620" y="168" type="curve" smooth="yes"/>
      <point x="547" y="168"/>
      <point x="483" y="185"/>
      <point x="442" y="216" type="curve"/>
      <point x="442" y="857" type="line"/>
      <point x="463" y="867"/>
      <point x="535" y="907"/>
      <point x="633" y="907" type="curve" smooth="yes"/>
      <point x="754" y="907"/>
      <point x="820" y="865"/>
      <point x="820" y="758" type="curve" smooth="yes"/>
      <point x="820" y="323" type="line" smooth="yes"/>
      <point x="820" y="215"/>
      <point x="737" y="168"/>
    </contour>
  </outline>
</glyph>
<glyph name="c" format="1">
  <advance width="565"/>
  <unicode hex="0063"/>
  <outline>
    <contour>
      <point x="289" y="0" type="move" name="bot"/>
    </contour>
    <contour>
      <point x="288" y="-11" type="curve" smooth="yes"/>
      <point x="456" y="-11"/>
      <point x="498" y="38"/>
      <point x="501" y="186" type="curve"/>
      <point x="377" y="186" type="line"/>
      <point x="377" y="97"/>
      <point x="362" y="82"/>
      <point x="291" y="82" type="curve" smooth="yes"/>
      <point x="230" y="82"/>
      <point x="201" y="101"/>
      <point x="201" y="157" type="curve" smooth="yes"/>
      <point x="201" y="369" type="line" smooth="yes"/>
      <point x="201" y="423"/>
      <point x="234" y="443"/>
      <point x="291" y="443" type="curve" smooth="yes"/>
      <point x="361" y="443"/>
      <point x="377" y="427"/>
      <point x="377" y="332" type="curve"/>
      <point x="502" y="341" type="line"/>
      <point x="502" y="491"/>
      <point x="429" y="536"/>
      <point x="286" y="536" type="curve" smooth="yes"/>
      <point x="149" y="536"/>
      <point x="68" y="475"/>
      <point x="68" y="370" type="curve" smooth="yes"/>
      <point x="68" y="160" type="line" smooth="yes"/>
      <point x="68" y="69"/>
      <point x="109" y="-11"/>
    </contour>
  </outline>
</glyph>
<glyph name="d" format="1">
  <advance width="599"/>
  <unicode hex="0064"/>
  <outline>
    <contour>
      <point x="277" y="-11" type="curve" smooth="yes"/>
      <point x="331" y="-11"/>
      <point x="379" y="7"/>
      <point x="413" y="31" type="curve"/>
      <point x="427" y="0" type="line"/>
      <point x="517" y="0" type="line"/>
      <point x="517" y="740" type="line"/>
      <point x="384" y="740" type="line"/>
      <point x="384" y="517" type="line"/>
      <point x="353" y="528"/>
      <point x="316" y="536"/>
      <point x="286" y="536" type="curve" smooth="yes"/>
      <point x="133" y="536"/>
      <point x="68" y="465"/>
      <point x="68" y="368" type="curve" smooth="yes"/>
      <point x="68" y="158" type="line" smooth="yes"/>
      <point x="68" y="53"/>
      <point x="135" y="-11"/>
    </contour>
    <contour>
      <point x="292" y="82" type="curve" smooth="yes"/>
      <point x="233" y="82"/>
      <point x="201" y="103"/>
      <point x="201" y="156" type="curve" smooth="yes"/>
      <point x="201" y="371" type="line" smooth="yes"/>
      <point x="201" y="424"/>
      <point x="236" y="443"/>
      <point x="297" y="443" type="curve" smooth="yes"/>
      <point x="334" y="443"/>
      <point x="366" y="433"/>
      <point x="384" y="425" type="curve"/>
      <point x="384" y="103" type="line"/>
      <point x="363" y="91"/>
      <point x="329" y="82"/>
    </contour>
    <contour>
      <point x="468" y="524" type="move" name="caron.alt"/>
    </contour>
  </outline>
</glyph>
<glyph name="e" format="1">
  <advance width="1181"/>
  <unicode hex="0065"/>
  <outline>
    <contour>
      <point x="618" y="1074" type="move" name="top"/>
    </contour>
    <contour>
      <point x="704" y="0" type="move" name="ogonek"/>
    </contour>
    <contour>
      <point x="602" y="0" type="move" name="bot"/>
    </contour>
    <contour>
      <point x="602" y="-23" type="curve" smooth="yes"/>
      <point x="882" y="-23"/>
      <point x="1046" y="32"/>
      <point x="1054" y="330" type="curve"/>
      <point x="802" y="330" type="line"/>
      <point x="797" y="168"/>
      <point x="732" y="166"/>
      <point x="607" y="166" type="curve" smooth="yes"/>
      <point x="477" y="166"/>
      <point x="412" y="183"/>
      <point x="412" y="310" type="curve" smooth="yes"/>
      <point x="412" y="485" type="line"/>
      <point x="1055" y="485" type="line"/>
      <point x="1055" y="745" type="line" smooth="yes"/>
      <point x="1055" y="961"/>
      <point x="929" y="1097"/>
      <point x="598" y="1097" type="curve" smooth="yes"/>
      <point x="319" y="1097"/>
      <point x="140" y="974"/>
      <point x="140" y="755" type="curve" smooth="yes"/>
      <point x="140" y="336" type="line" smooth="yes"/>
      <point x="140" y="60"/>
      <point x="339" y="-23"/>
    </contour>
    <contour>
      <point x="412" y="651" type="line"/>
      <point x="412" y="772" type="line" smooth="yes"/>
      <point x="412" y="886"/>
      <point x="496" y="907"/>
      <point x="605" y="907" type="curve" smooth="yes"/>
      <point x="714" y="907"/>
      <point x="798" y="896"/>
      <point x="798" y="777" type="curve" smooth="yes"/>
      <point x="798" y="651" type="line"/>
    </contour>
  </outline>
</glyph>
<glyph name="f" format="1">
  <advance width="379"/>
  <unicode hex="0066"/>
  <outline>
    <contour>
      <point x="112" y="0" type="line"/>
      <point x="245" y="0" type="line"/>
      <point x="245" y="440" type="line"/>
      <point x="349" y="440" type="line"/>
      <point x="349" y="524" type="line"/>
      <point x="245" y="524" type="line"/>
      <point x="245" y="579" type="line" smooth="yes"/>
      <point x="245" y="614"/>
      <point x="254" y="648"/>
      <point x="312" y="648" type="curve" smooth="yes"/>
      <point x="354" y="648" type="line"/>
      <point x="350" y="740" type="line"/>
      <point x="289" y="740" type="line" smooth="yes"/>
      <point x="164" y="740"/>
      <point x="112" y="674"/>
      <point x="112" y="549" type="curve" smooth="yes"/>
      <point x="112" y="524" type="line"/>
      <point x="42" y="524" type="line"/>
      <point x="42" y="440" type="line"/>
      <point x="112" y="440" type="line"/>
    </contour>
  </outline>
</glyph>
<glyph name="g" format="1">
  <advance width="606"/>
  <unicode hex="0067"/>
  <outline>
    <contour>
      <point x="288" y="-215" type="curve" smooth="yes"/>
      <point x="456" y="-215"/>
      <point x="525" y="-135"/>
      <point x="525" y="-6" type="curve" smooth="yes"/>
      <point x="525" y="525" type="line"/>
      <point x="426" y="525" type="line"/>
      <point x="415" y="487" type="line"/>
      <point x="382" y="514"/>
      <point x="326" y="536"/>
      <point x="268" y="536" type="curve" smooth="yes"/>
      <point x="120" y="536"/>
      <point x="68" y="457"/>
      <point x="68" y="367" type="curve" smooth="yes"/>
      <point x="68" y="179" type="line" smooth="yes"/>
      <point x="68" y="76"/>
      <point x="147" y="16"/>
      <point x="273" y="16" type="curve" smooth="yes"/>
      <point x="313" y="16"/>
      <point x="361" y="24"/>
      <point x="392" y="43" type="curve"/>
      <point x="392" y="-15" type="line" smooth="yes"/>
      <point x="392" y="-87"/>
      <point x="359" y="-118"/>
      <point x="283" y="-118" type="curve" smooth="yes"/>
      <point x="242" y="-118"/>
      <point x="191" y="-112"/>
      <point x="142" y="-98" type="curve"/>
      <point x="115" y="-188" type="line"/>
      <point x="152" y="-206"/>
      <point x="223" y="-215"/>
    </contour>
    <contour>
      <point x="295" y="104" type="curve" smooth="yes"/>
      <point x="240" y="104"/>
      <point x="201" y="121"/>
      <point x="201" y="174" type="curve" smooth="yes"/>
      <point x="201" y="370" type="line" smooth="yes"/>
      <point x="201" y="423"/>
      <point x="234" y="443"/>
      <point x="295" y="443" type="curve" smooth="yes"/>
      <point x="355" y="443"/>
      <point x="392" y="420"/>
      <point x="392" y="406" type="curve" smooth="yes"/>
      <point x="392" y="127" type="line"/>
      <point x="374" y="114"/>
      <point x="340" y="104"/>
    </contour>
  </outline>
</glyph>
<glyph name="h" format="1">
  <advance width="1272"/>
  <unicode hex="0068"/>
  <outline>
    <contour>
      <point x="819" y="1305" type="move" name="top"/>
    </contour>
    <contour>
      <point x="170" y="0" type="line"/>
      <point x="442" y="0" type="line"/>
      <point x="442" y="738" type="line" smooth="yes"/>
      <point x="442" y="842"/>
      <point x="557" y="894"/>
      <point x="655" y="894" type="curve" smooth="yes"/>
      <point x="740" y="894"/>
      <point x="838" y="869"/>
      <point x="838" y="756" type="curve" smooth="yes"/>
      <point x="838" y="0" type="line"/>
      <point x="1110" y="0" type="line"/>
      <point x="1110" y="795" type="line" smooth="yes"/>
      <point x="1110" y="976"/>
      <point x="984" y="1097"/>
      <point x="778" y="1097" type="curve" smooth="yes"/>
      <point x="629" y="1097"/>
      <point x="488" y="1045"/>
      <point x="442" y="970" type="curve"/>
      <point x="442" y="1515" type="line"/>
      <point x="170" y="1515" type="line"/>
    </contour>
  </outline>
</glyph>
<glyph name="k" format="1">
  <advance width="591"/>
  <unicode hex="006B"/>
  <outline>
    <contour>
      <point x="83" y="0" type="line"/>
      <point x="216" y="0" type="line"/>
      <point x="216" y="183" type="line"/>
      <point x="274" y="243" type="line"/>
      <point x="438" y="0" type="line"/>
      <point x="583" y="0" type="line"/>
      <point x="377" y="298" type="line"/>
      <point x="575" y="524" type="line"/>
      <point x="423" y="524" type="line"/>
      <point x="216" y="294" type="line"/>
      <point x="216" y="740" type="line"/>
      <point x="83" y="740" type="line"/>
    </contour>
    <contour>
      <point x="324" y="0" type="move" name="bot"/>
    </contour>
  </outline>
</glyph>
<glyph name="l" format="1">
  <advance width="358"/>
  <unicode hex="006C"/>
  <outline>
    <contour>
      <point x="159" y="524" type="move" name="caron.alt"/>
    </contour>
    <contour>
      <point x="230" y="0" type="move" name="bot"/>
    </contour>
    <contour>
      <point x="260" y="-6" type="curve" smooth="yes"/>
      <point x="316" y="-6" type="line"/>
      <point x="326" y="93" type="line"/>
      <point x="310" y="93" type="line" smooth="yes"/>
      <point x="239" y="93"/>
      <point x="216" y="116"/>
      <point x="216" y="174" type="curve" smooth="yes"/>
      <point x="216" y="740" type="line"/>
      <point x="83" y="740" type="line"/>
      <point x="83" y="172" type="line" smooth="yes"/>
      <point x="83" y="40"/>
      <point x="143" y="-6"/>
    </contour>
  </outline>
</glyph>
<glyph name="m" format="1">
  <advance width="933"/>
  <unicode hex="006D"/>
  <outline>
    <contour>
      <point x="82" y="0" type="line"/>
      <point x="215" y="0" type="line"/>
      <point x="215" y="361" type="line" smooth="yes"/>
      <point x="215" y="412"/>
      <point x="277" y="438"/>
      <point x="325" y="438" type="curve" smooth="yes"/>
      <point x="367" y="438"/>
      <point x="403" y="427"/>
      <point x="403" y="372" type="curve" smooth="yes"/>
      <point x="403" y="0" type="line"/>
      <point x="536" y="0" type="line"/>
      <point x="536" y="366" type="line"/>
      <point x="540" y="413"/>
      <point x="600" y="438"/>
      <point x="647" y="438" type="curve" smooth="yes"/>
      <point x="688" y="438"/>
      <point x="722" y="427"/>
      <point x="722" y="372" type="curve" smooth="yes"/>
      <point x="722" y="0" type="line"/>
      <point x="854" y="0" type="line"/>
      <point x="854" y="388" type="line" smooth="yes"/>
      <point x="854" y="476"/>
      <point x="789" y="536"/>
      <point x="688" y="536" type="curve" smooth="yes"/>
      <point x="605" y="536"/>
      <point x="552" y="509"/>
      <point x="514" y="471" type="curve"/>
      <point x="487" y="516"/>
      <point x="437" y="536"/>
      <point x="370" y="536" type="curve" smooth="yes"/>
      <point x="283" y="536"/>
      <point x="230" y="494"/>
      <point x="215" y="478" type="curve"/>
      <point x="215" y="524" type="line"/>
      <point x="82" y="524" type="line"/>
    </contour>
  </outline>
</glyph>
<glyph name="n" format="1">
  <advance width="621"/>
  <unicode hex="006E"/>
  <outline>
    <contour>
      <point x="324" y="0" type="move" name="bot"/>
    </contour>
    <contour>
      <point x="542" y="376" type="line" smooth="yes"/>
      <point x="542" y="469"/>
      <point x="486" y="537"/>
      <point x="377" y="537" type="curve" smooth="yes"/>
      <point x="278" y="537"/>
      <point x="226" y="487"/>
      <point x="215" y="478" type="curve"/>
      <point x="215" y="524" type="line"/>
      <point x="82" y="524" type="line"/>
      <point x="82" y="0" type="line"/>
      <point x="215" y="0" type="line"/>
      <point x="215" y="359" type="line" smooth="yes"/>
      <point x="215" y="410"/>
      <point x="269" y="437"/>
      <point x="317" y="437" type="curve" smooth="yes"/>
      <point x="359" y="437"/>
      <point x="409" y="424"/>
      <point x="409" y="369" type="curve" smooth="yes"/>
      <point x="409" y="0" type="line"/>
      <point x="542" y="0" type="line"/>
    </contour>
  </outline>
</glyph>
<glyph name="o" format="1">
  <advance width="591"/>
  <unicode hex="006F"/>
  <outline>
    <contour>
      <point x="297" y="0" type="move" name="bot"/>
    </contour>
    <contour>
      <point x="329" y="0" type="move" name="ogonek"/>
    </contour>
    <contour>
      <point x="296" y="81" type="curve" smooth="yes"/>
      <point x="235" y="81"/>
      <point x="201" y="100"/>
      <point x="201" y="153" type="curve" smooth="yes"/>
      <point x="201" y="371" type="line" smooth="yes"/>
      <point x="201" y="424"/>
      <point x="238" y="443"/>
      <point x="296" y="443" type="curve" smooth="yes"/>
      <point x="356" y="443"/>
      <point x="391" y="424"/>
      <point x="391" y="371" type="curve" smooth="yes"/>
      <point x="391" y="153" type="line" smooth="yes"/>
      <point x="391" y="100"/>
      <point x="353" y="81"/>
    </contour>
    <contour>
      <point x="296" y="-11" type="curve" smooth="yes"/>
      <point x="466" y="-11"/>
      <point x="523" y="55"/>
      <point x="523" y="159" type="curve" smooth="yes"/>
      <point x="523" y="365" type="line" smooth="yes"/>
      <point x="523" y="472"/>
      <point x="439" y="536"/>
      <point x="296" y="536" type="curve" smooth="yes"/>
      <point x="152" y="536"/>
      <point x="68" y="472"/>
      <point x="68" y="365" type="curve" smooth="yes"/>
      <point x="68" y="159" type="line" smooth="yes"/>
      <point x="68" y="55"/>
      <point x="130" y="-11"/>
    </contour>
  </outline>
</glyph>
<glyph name="p" format="1">
  <advance width="1210"/>
  <unicode hex="0070"/>
  <outline>
    <contour>
      <point x="700" y="1074" type="move" name="top"/>
    </contour>
    <contour>
      <point x="168" y="-410" type="line"/>
      <point x="440" y="-410" type="line"/>
      <point x="440" y="17" type="line"/>
      <point x="492" y="-6"/>
      <point x="560" y="-23"/>
      <point x="645" y="-23" type="curve" smooth="yes"/>
      <point x="948" y="-23"/>
      <point x="1086" y="142"/>
      <point x="1086" y="326" type="curve" smooth="yes"/>
      <point x="1086" y="751" type="line" smooth="yes"/>
      <point x="1086" y="957"/>
      <point x="937" y="1097"/>
      <point x="677" y="1097" type="curve" smooth="yes"/>
      <point x="560" y="1097"/>
      <point x="456" y="1056"/>
      <point x="385" y="1004" type="curve"/>
      <point x="358" y="1074" type="line"/>
      <point x="168" y="1074" type="line"/>
    </contour>
    <contour>
      <point x="622" y="166" type="curve" smooth="yes"/>
      <point x="517" y="166"/>
      <point x="455" y="205"/>
      <point x="440" y="213" type="curve"/>
      <point x="440" y="841" type="line"/>
      <point x="471" y="872"/>
      <point x="544" y="907"/>
      <point x="631" y="907" type="curve" smooth="yes"/>
      <point x="745" y="907"/>
      <point x="814" y="863"/>
      <point x="814" y="755" type="curve" smooth="yes"/>
      <point x="814" y="320" type="line" smooth="yes"/>
      <point x="814" y="211"/>
      <point x="746" y="166"/>
    </contour>
  </outline>
</glyph>
<glyph name="q" format="1">
  <advance width="590"/>
  <unicode hex="0071"/>
  <outline>
    <contour>
      <point x="376" y="-200" type="line"/>
      <point x="509" y="-200" type="line"/>
      <point x="509" y="524" type="line"/>
      <point x="410" y="524" type="line"/>
      <point x="400" y="491" type="line"/>
      <point x="370" y="516"/>
      <point x="320" y="536"/>
      <point x="265" y="536" type="curve" smooth="yes"/>
      <point x="138" y="536"/>
      <point x="61" y="469"/>
      <point x="61" y="366" type="curve" smooth="yes"/>
      <point x="61" y="155" type="line" smooth="yes"/>
      <point x="61" y="67"/>
      <point x="115" y="-11"/>
      <point x="262" y="-11" type="curve" smooth="yes"/>
      <point x="302" y="-11"/>
      <point x="344" y="-2"/>
      <point x="376" y="16" type="curve"/>
    </contour>
    <contour>
      <point x="287" y="81" type="curve" smooth="yes"/>
      <point x="228" y="81"/>
      <point x="193" y="97"/>
      <point x="193" y="150" type="curve" smooth="yes"/>
      <point x="193" y="369" type="line" smooth="yes"/>
      <point x="193" y="422"/>
      <point x="230" y="443"/>
      <point x="287" y="443" type="curve" smooth="yes"/>
      <point x="334" y="443"/>
      <point x="364" y="429"/>
      <point x="376" y="410" type="curve"/>
      <point x="376" y="107" type="line"/>
      <point x="375" y="104"/>
      <point x="343" y="81"/>
    </contour>
  </outline>
</glyph>
<glyph name="r" format="1">
  <advance width="417"/>
  <unicode hex="0072"/>
  <outline>
    <contour>
      <point x="147" y="0" type="move" name="bot"/>
    </contour>
    <contour>
      <point x="78" y="0" type="line"/>
      <point x="211" y="0" type="line"/>
      <point x="211" y="352" type="line"/>
      <point x="221" y="394"/>
      <point x="326" y="416"/>
      <point x="393" y="419" type="curve"/>
      <point x="396" y="532" type="line"/>
      <point x="393" y="532"/>
      <point x="388" y="533"/>
      <point x="384" y="533" type="curve" smooth="yes"/>
      <point x="334" y="533"/>
      <point x="234" y="506"/>
      <point x="211" y="462" type="curve"/>
      <point x="211" y="524" type="line"/>
      <point x="78" y="524" type="line"/>
    </contour>
  </outline>
</glyph>
<glyph name="s" format="1">
  <advance width="511"/>
  <unicode hex="0073"/>
  <outline>
    <contour>
      <point x="260" y="534" type="curve" smooth="yes"/>
      <point x="156" y="534"/>
      <point x="69" y="493"/>
      <point x="69" y="383" type="curve" smooth="yes"/>
      <point x="69" y="315"/>
      <point x="97" y="264"/>
      <point x="178" y="239" type="curve" smooth="yes"/>
      <point x="293" y="203" type="line" smooth="yes"/>
      <point x="327" y="192"/>
      <point x="337" y="173"/>
      <point x="337" y="150" type="curve" smooth="yes"/>
      <point x="337" y="123"/>
      <point x="328" y="81"/>
      <point x="266" y="81" type="curve" smooth="yes"/>
      <point x="214" y="81"/>
      <point x="149" y="96"/>
      <point x="93" y="120" type="curve"/>
      <point x="66" y="30" type="line"/>
      <point x="132" y="6"/>
      <point x="204" y="-10"/>
      <point x="266" y="-10" type="curve" smooth="yes"/>
      <point x="374" y="-10"/>
      <point x="459" y="35"/>
      <point x="459" y="148" type="curve" smooth="yes"/>
      <point x="459" y="230"/>
      <point x="429" y="278"/>
      <point x="341" y="306" type="curve" smooth="yes"/>
      <point x="232" y="340" type="line" smooth="yes"/>
      <point x="208" y="347"/>
      <point x="196" y="364"/>
      <point x="196" y="387" type="curve" smooth="yes"/>
      <point x="196" y="421"/>
      <point x="209" y="443"/>
      <point x="270" y="443" type="curve" smooth="yes"/>
      <point x="320" y="443"/>
      <point x="385" y="425"/>
      <point x="416" y="409" type="curve"/>
      <point x="447" y="491" type="line"/>
      <point x="394" y="517"/>
      <point x="325" y="534"/>
    </contour>
    <contour>
      <point x="261" y="0" type="move" name="bot"/>
    </contour>
  </outline>
</glyph>
<glyph name="t" format="1">
  <advance width="419"/>
  <unicode hex="0074"/>
  <outline>
    <contour>
      <point x="316" y="-6" type="curve" smooth="yes"/>
      <point x="363" y="-6" type="line"/>
      <point x="368" y="93" type="line"/>
      <point x="338" y="93" type="line" smooth="yes"/>
      <point x="250" y="93"/>
      <point x="240" y="111"/>
      <point x="240" y="176" type="curve" smooth="yes"/>
      <point x="240" y="440" type="line"/>
      <point x="365" y="440" type="line"/>
      <point x="365" y="524" type="line"/>
      <point x="240" y="524" type="line"/>
      <point x="240" y="693" type="line"/>
      <point x="124" y="693" type="line"/>
      <point x="111" y="524" type="line"/>
      <point x="24" y="524" type="line"/>
      <point x="24" y="440" type="line"/>
      <point x="107" y="440" type="line"/>
      <point x="107" y="167" type="line" smooth="yes"/>
      <point x="107" y="32"/>
      <point x="158" y="-6"/>
    </contour>
    <contour>
      <point x="230" y="12" type="move" name="bot"/>
    </contour>
    <contour>
      <point x="196" y="524" type="move" name="caron.alt"/>
    </contour>
  </outline>
</glyph>
<glyph name="u" format="1">
  <advance width="1269"/>
  <unicode hex="0075"/>
  <outline>
    <contour>
      <point x="643" y="1074" type="move" name="top"/>
    </contour>
    <contour>
      <point x="970" y="0" type="move" name="ogonek"/>
    </contour>
    <contour>
      <point x="162" y="291" type="line" smooth="yes"/>
      <point x="162" y="104"/>
      <point x="299" y="-24"/>
      <point x="519" y="-24" type="curve" smooth="yes"/>
      <point x="660" y="-24"/>
      <point x="796" y="34"/>
      <point x="837" y="118" type="curve"/>
      <point x="845" y="0" type="line"/>
      <point x="1101" y="0" type="line"/>
      <point x="1101" y="1074" type="line"/>
      <point x="829" y="1074" type="line"/>
      <point x="829" y="350" type="line" smooth="yes"/>
      <point x="829" y="230"/>
      <point x="715" y="182"/>
      <point x="616" y="182" type="curve" smooth="yes"/>
      <point x="532" y="182"/>
      <point x="434" y="223"/>
      <point x="434" y="335" type="curve" smooth="yes"/>
      <point x="434" y="1074" type="line"/>
      <point x="162" y="1074" type="line"/>
    </contour>
  </outline>
</glyph>
<glyph name="v" format="1">
  <advance width="571"/>
  <unicode hex="0076"/>
  <outline>
    <contour>
      <point x="220" y="0" type="line"/>
      <point x="361" y="0" type="line"/>
      <point x="539" y="524" type="line"/>
      <point x="413" y="524" type="line"/>
      <point x="291" y="130" type="line"/>
      <point x="166" y="524" type="line"/>
      <point x="33" y="524" type="line"/>
    </contour>
  </outline>
</glyph>
<glyph name="w" format="1">
  <advance width="1692"/>
  <unicode hex="0077"/>
  <outline>
    <contour>
      <point x="856" y="1074" type="move" name="top"/>
    </contour>
    <contour>
      <point x="365" y="0" type="line"/>
      <point x="623" y="0" type="line"/>
      <point x="852" y="741" type="line"/>
      <point x="1072" y="0" type="line"/>
      <point x="1338" y="0" type="line"/>
      <point x="1624" y="1074" type="line"/>
      <point x="1371" y="1074" type="line"/>
      <point x="1192" y="295" type="line"/>
      <point x="960" y="1074" type="line"/>
      <point x="739" y="1074" type="line"/>
      <point x="514" y="304" type="line"/>
      <point x="322" y="1074" type="line"/>
      <point x="68" y="1074" type="line"/>
    </contour>
  </outline>
</glyph>
<glyph name="x" format="1">
  <advance width="545"/>
  <unicode hex="0078"/>
  <outline>
    <contour>
      <point x="26" y="0" type="line"/>
      <point x="167" y="0" type="line"/>
      <point x="277" y="165" type="line"/>
      <point x="387" y="0" type="line"/>
      <point x="520" y="0" type="line"/>
      <point x="343" y="262" type="line"/>
      <point x="519" y="524" type="line"/>
      <point x="383" y="524" type="line"/>
      <point x="274" y="360" type="line"/>
      <point x="166" y="524" type="line"/>
      <point x="27" y="524" type="line"/>
      <point x="207" y="264" type="line"/>
    </contour>
  </outline>
</glyph>
<glyph name="y" format="1">
  <advance width="546"/>
  <unicode hex="0079"/>
  <outline>
    <contour>
      <point x="83" y="-227" type="line"/>
      <point x="249" y="-212"/>
      <point x="286" y="-174"/>
      <point x="370" y="68" type="curve" smooth="yes"/>
      <point x="529" y="524" type="line"/>
      <point x="397" y="524" type="line"/>
      <point x="289" y="172" type="line"/>
      <point x="152" y="524" type="line"/>
      <point x="24" y="524" type="line"/>
      <point x="222" y="18" type="line"/>
      <point x="192" y="-96"/>
      <point x="169" y="-117"/>
      <point x="73" y="-127" type="curve"/>
    </contour>
  </outline>
</glyph>
<glyph name="z" format="1">
  <advance width="995"/>
  <unicode hex="007A"/>
  <outline>
    <contour>
      <point x="121" y="0" type="line"/>
      <point x="880" y="0" type="line"/>
      <point x="880" y="190" type="line"/>
      <point x="416" y="190" type="line"/>
      <point x="870" y="910" type="line"/>
      <point x="870" y="1074" type="line"/>
      <point x="124" y="1074" type="line"/>
      <point x="124" y="888" type="line"/>
      <point x="571" y="888" type="line"/>
      <point x="121" y="167" type="line"/>
    </contour>
    <contour>
      <point x="493" y="0" type="move" name="bot"/>
    </contour>
  </outline>
</glyph>
<glyph name="braceleft" format="1">
  <advance width="484"/>
  <unicode hex="007B"/>
  <outline>
    <contour>
      <point x="413" y="-62" type="curve"/>
      <point x="413" y="22" type="line"/>
      <point x="329" y="22"/>
      <point x="322" y="49"/>
      <point x="322" y="123" type="curve" smooth="yes"/>
      <point x="322" y="180" type="line" smooth="yes"/>
      <point x="322" y="278"/>
      <point x="301" y="332"/>
      <point x="243" y="353" type="curve"/>
      <point x="298" y="371"/>
      <point x="321" y="437"/>
      <point x="321" y="527" type="curve" smooth="yes"/>
      <point x="321" y="591" type="line" smooth="yes"/>
      <point x="321" y="659"/>
      <point x="328" y="675"/>
      <point x="413" y="675" type="curve"/>
      <point x="413" y="760" type="line"/>
      <point x="239" y="760"/>
      <point x="185" y="740"/>
      <point x="185" y="556" type="curve" smooth="yes"/>
      <point x="185" y="506" type="line" smooth="yes"/>
      <point x="185" y="426"/>
      <point x="164" y="407"/>
      <point x="92" y="407" type="curve"/>
      <point x="92" y="291" type="line"/>
      <point x="163" y="291"/>
      <point x="185" y="280"/>
      <point x="185" y="200" type="curve" smooth="yes"/>
      <point x="185" y="157" type="line" smooth="yes"/>
      <point x="185" y="-6"/>
      <point x="230" y="-62"/>
    </contour>
  </outline>
</glyph>
<glyph name="bar" format="1">
  <advance width="375"/>
  <unicode hex="007C"/>
  <outline>
    <contour>
      <point x="128" y="-62" type="line"/>
      <point x="247" y="-62" type="line"/>
      <point x="247" y="785" type="line"/>
      <point x="128" y="785" type="line"/>
    </contour>
  </outline>
</glyph>
<glyph name="braceright" format="1">
  <advance width="483"/>
  <unicode hex="007D"/>
  <outline>
    <contour>
      <point x="86" y="-62" type="line"/>
      <point x="269" y="-62"/>
      <point x="314" y="-6"/>
      <point x="314" y="157" type="curve" smooth="yes"/>
      <point x="314" y="200" type="line" smooth="yes"/>
      <point x="314" y="280"/>
      <point x="337" y="291"/>
      <point x="408" y="291" type="curve"/>
      <point x="408" y="407" type="line"/>
      <point x="336" y="407"/>
      <point x="314" y="426"/>
      <point x="314" y="506" type="curve" smooth="yes"/>
      <point x="314" y="556" type="line" smooth="yes"/>
      <point x="314" y="740"/>
      <point x="260" y="760"/>
      <point x="86" y="760" type="curve"/>
      <point x="86" y="675" type="line"/>
      <point x="171" y="675"/>
      <point x="178" y="659"/>
      <point x="178" y="591" type="curve" smooth="yes"/>
      <point x="178" y="527" type="line" smooth="yes"/>
      <point x="178" y="437"/>
      <point x="201" y="371"/>
      <point x="256" y="353" type="curve"/>
      <point x="198" y="332"/>
      <point x="178" y="278"/>
      <point x="178" y="180" type="curve" smooth="yes"/>
      <point x="178" y="123" type="line" smooth="yes"/>
      <point x="178" y="49"/>
      <point x="170" y="22"/>
      <point x="86" y="22" type="curve"/>
    </contour>
  </outline>
</glyph>
<glyph name="asciitilde" format="1">
  <advance width="500"/>
  <unicode hex="007E"/>
  <outline>
    <contour>
      <point x="337" y="552" type="curve" smooth="yes"/>
      <point x="403" y="552"/>
      <point x="456" y="616"/>
      <point x="456" y="708" type="curve"/>
      <point x="403" y="708" type="line"/>
      <point x="403" y="673"/>
      <point x="387" y="634"/>
      <point x="343" y="634" type="curve" smooth="yes"/>
      <point x="304" y="634"/>
      <point x="237" y="716"/>
      <point x="162" y="716" type="curve" smooth="yes"/>
      <point x="96" y="716"/>
      <point x="44" y="652"/>
      <point x="44" y="560" type="curve"/>
      <point x="97" y="560" type="line"/>
      <point x="97" y="595"/>
      <point x="113" y="635"/>
      <point x="157" y="635" type="curve" smooth="yes"/>
      <point x="196" y="635"/>
      <point x="262" y="552"/>
    </contour>
  </outline>
</glyph>
<glyph name="cent" format="1">
  <advance width="540"/>
  <unicode hex="00A2"/>
  <outline>
    <contour>
      <point x="263" y="491" type="line"/>
      <point x="308" y="491" type="line"/>
      <point x="308" y="630" type="line"/>
      <point x="263" y="630" type="line"/>
    </contour>
    <contour>
      <point x="263" y="-104" type="line"/>
      <point x="308" y="-104" type="line"/>
      <point x="308" y="35" type="line"/>
      <point x="263" y="35" type="line"/>
    </contour>
    <component base="c"/>
  </outline>
</glyph>
<glyph name="sterling" format="1">
  <advance width="627"/>
  <unicode hex="00A3"/>
  <outline>
    <contour>
      <point x="101" y="0" type="line"/>
      <point x="549" y="0" type="line"/>
      <point x="549" y="110" type="line"/>
      <point x="252" y="110" type="line"/>
      <point x="269" y="303" type="line"/>
      <point x="509" y="303" type="line"/>
      <point x="509" y="396" type="line"/>
      <point x="277" y="396" type="line"/>
      <point x="286" y="510" type="line" smooth="yes"/>
      <point x="291" y="576"/>
      <point x="312" y="625"/>
      <point x="388" y="625" type="curve" smooth="yes"/>
      <point x="423" y="625"/>
      <point x="465" y="616"/>
      <point x="517" y="593" type="curve"/>
      <point x="552" y="691" type="line"/>
      <point x="514" y="716"/>
      <point x="446" y="740"/>
      <point x="376" y="740" type="curve" smooth="yes"/>
      <point x="214" y="740"/>
      <point x="150" y="656"/>
      <point x="142" y="518" type="curve"/>
      <point x="132" y="396" type="line"/>
      <point x="65" y="396" type="line"/>
      <point x="65" y="303" type="line"/>
      <point x="125" y="303" type="line"/>
    </contour>
  </outline>
</glyph>
<glyph name="currency" format="1">
  <advance width="549"/>
  <unicode hex="00A4"/>
  <outline>
    <contour>
      <point x="273" y="186" type="curve" smooth="yes"/>
      <point x="326" y="186"/>
      <point x="368" y="207"/>
      <point x="396" y="237" type="curve"/>
      <point x="464" y="188" type="line"/>
      <point x="489" y="227" type="line"/>
      <point x="422" y="275" type="line"/>
      <point x="434" y="298"/>
      <point x="439" y="326"/>
      <point x="439" y="353" type="curve" smooth="yes"/>
      <point x="439" y="380"/>
      <point x="433" y="409"/>
      <point x="421" y="433" type="curve"/>
      <point x="488" y="481" type="line"/>
      <point x="465" y="521" type="line"/>
      <point x="395" y="471" type="line"/>
      <point x="367" y="501"/>
      <point x="326" y="520"/>
      <point x="273" y="520" type="curve" smooth="yes"/>
      <point x="220" y="520"/>
      <point x="180" y="501"/>
      <point x="152" y="473" type="curve"/>
      <point x="86" y="521" type="line"/>
      <point x="61" y="482" type="line"/>
      <point x="125" y="436" type="line"/>
      <point x="112" y="411"/>
      <point x="105" y="382"/>
      <point x="105" y="353" type="curve" smooth="yes"/>
      <point x="105" y="325"/>
      <point x="112" y="297"/>
      <point x="124" y="273" type="curve"/>
      <point x="62" y="228" type="line"/>
      <point x="85" y="187" type="line"/>
      <point x="151" y="234" type="line"/>
      <point x="179" y="205"/>
      <point x="220" y="186"/>
    </contour>
    <contour>
      <point x="273" y="258" type="curve" smooth="yes"/>
      <point x="209" y="258"/>
      <point x="180" y="304"/>
      <point x="180" y="353" type="curve" smooth="yes"/>
      <point x="180" y="402"/>
      <point x="209" y="448"/>
      <point x="273" y="448" type="curve" smooth="yes"/>
      <point x="336" y="448"/>
      <point x="365" y="402"/>
      <point x="365" y="353" type="curve" smooth="yes"/>
      <point x="365" y="304"/>
      <point x="336" y="258"/>
    </contour>
  </outline>
</glyph>
<glyph name="yen" format="1">
  <advance width="636"/>
  <unicode hex="00A5"/>
  <outline>
    <contour>
      <point x="498" y="260" type="line"/>
      <point x="498" y="326" type="line"/>
      <point x="136" y="326" type="line"/>
      <point x="136" y="260" type="line"/>
    </contour>
    <contour>
      <point x="498" y="113" type="line"/>
      <point x="498" y="178" type="line"/>
      <point x="136" y="178" type="line"/>
      <point x="136" y="113" type="line"/>
    </contour>
    <component base="Y"/>
  </outline>
</glyph>
<glyph name="brokenbar" format="1">
  <advance width="769"/>
  <unicode hex="00A6"/>
  <outline>
    <contour>
      <point x="280" y="-120" type="line"/>
      <point x="489" y="-120" type="line"/>
      <point x="489" y="590" type="line"/>
      <point x="280" y="590" type="line"/>
    </contour>
    <contour>
      <point x="280" y="800" type="line"/>
      <point x="489" y="800" type="line"/>
      <point x="489" y="1476" type="line"/>
      <point x="280" y="1476" type="line"/>
    </contour>
  </outline>
</glyph>
<glyph name="section" format="1">
  <advance width="529"/>
  <unicode hex="00A7"/>
  <outline>
    <contour>
      <point x="61" y="55" type="line"/>
      <point x="109" y="16"/>
      <point x="182" y="-11"/>
      <point x="271" y="-11" type="curve" smooth="yes"/>
      <point x="396" y="-11"/>
      <point x="459" y="60"/>
      <point x="459" y="148" type="curve" smooth="yes"/>
      <point x="459" y="196"/>
      <point x="445" y="224"/>
      <point x="418" y="247" type="curve"/>
      <point x="451" y="278"/>
      <point x="470" y="314"/>
      <point x="470" y="350" type="curve" smooth="yes"/>
      <point x="470" y="398"/>
      <point x="437" y="445"/>
      <point x="365" y="479" type="curve" smooth="yes"/>
      <point x="238" y="539" type="line" smooth="yes"/>
      <point x="213" y="551"/>
      <point x="197" y="562"/>
      <point x="197" y="589" type="curve" smooth="yes"/>
      <point x="197" y="622"/>
      <point x="227" y="639"/>
      <point x="269" y="639" type="curve" smooth="yes"/>
      <point x="309" y="639"/>
      <point x="359" y="625"/>
      <point x="410" y="595" type="curve"/>
      <point x="451" y="672" type="line"/>
      <point x="417" y="698"/>
      <point x="348" y="731"/>
      <point x="258" y="731" type="curve" smooth="yes"/>
      <point x="146" y="731"/>
      <point x="73" y="685"/>
      <point x="73" y="582" type="curve" smooth="yes"/>
      <point x="73" y="539"/>
      <point x="88" y="512"/>
      <point x="118" y="488" type="curve"/>
      <point x="85" y="464"/>
      <point x="65" y="426"/>
      <point x="65" y="387" type="curve" smooth="yes"/>
      <point x="65" y="342"/>
      <point x="92" y="295"/>
      <point x="159" y="262" type="curve" smooth="yes"/>
      <point x="287" y="201" type="line" smooth="yes"/>
      <point x="325" y="182"/>
      <point x="336" y="166"/>
      <point x="336" y="140" type="curve" smooth="yes"/>
      <point x="336" y="108"/>
      <point x="305" y="86"/>
      <point x="256" y="86" type="curve" smooth="yes"/>
      <point x="215" y="86"/>
      <point x="162" y="101"/>
      <point x="106" y="137" type="curve"/>
    </contour>
    <contour>
      <point x="360" y="283" type="curve"/>
      <point x="197" y="358" type="line" smooth="yes"/>
      <point x="166" y="372"/>
      <point x="155" y="388"/>
      <point x="155" y="414" type="curve" smooth="yes"/>
      <point x="155" y="432"/>
      <point x="168" y="453"/>
      <point x="176" y="459" type="curve"/>
      <point x="323" y="389" type="line"/>
      <point x="367" y="370"/>
      <point x="371" y="344"/>
      <point x="371" y="318" type="curve" smooth="yes"/>
      <point x="371" y="306"/>
      <point x="367" y="294"/>
    </contour>
  </outline>
</glyph>
<glyph name="dieresis" format="1">
  <advance width="472"/>
  <unicode hex="00A8"/>
  <outline>
    <contour>
      <point x="56" y="607" type="line"/>
      <point x="185" y="607" type="line"/>
      <point x="185" y="721" type="line"/>
      <point x="56" y="721" type="line"/>
    </contour>
    <contour>
      <point x="305" y="607" type="line"/>
      <point x="434" y="607" type="line"/>
      <point x="434" y="721" type="line"/>
      <point x="305" y="721" type="line"/>
    </contour>
  </outline>
</glyph>
<glyph name="copyright" format="1">
  <advance width="867"/>
  <unicode hex="00A9"/>
  <outline>
    <contour>
      <point x="439" y="140" type="curve" smooth="yes"/>
      <point x="574" y="140"/>
      <point x="598" y="206"/>
      <point x="598" y="292" type="curve" smooth="yes"/>
      <point x="598" y="309" type="line"/>
      <point x="541" y="309" type="line"/>
      <point x="541" y="279" type="line" smooth="yes"/>
      <point x="541" y="205"/>
      <point x="514" y="184"/>
      <point x="439" y="184" type="curve" smooth="yes"/>
      <point x="365" y="184"/>
      <point x="326" y="205"/>
      <point x="326" y="279" type="curve" smooth="yes"/>
      <point x="326" y="435" type="line" smooth="yes"/>
      <point x="326" y="509"/>
      <point x="364" y="533"/>
      <point x="438" y="533" type="curve" smooth="yes"/>
      <point x="512" y="533"/>
      <point x="541" y="509"/>
      <point x="541" y="435" type="curve" smooth="yes"/>
      <point x="541" y="403" type="line"/>
      <point x="598" y="408" type="line"/>
      <point x="598" y="420" type="line" smooth="yes"/>
      <point x="598" y="509"/>
      <point x="573" y="577"/>
      <point x="438" y="577" type="curve" smooth="yes"/>
      <point x="297" y="577"/>
      <point x="267" y="513"/>
      <point x="267" y="424" type="curve" smooth="yes"/>
      <point x="267" y="288" type="line" smooth="yes"/>
      <point x="267" y="201"/>
      <point x="299" y="140"/>
    </contour>
    <contour>
      <point x="435" y="40" type="curve" smooth="yes"/>
      <point x="257" y="40"/>
      <point x="127" y="175"/>
      <point x="127" y="353" type="curve" smooth="yes"/>
      <point x="127" y="531"/>
      <point x="257" y="665"/>
      <point x="435" y="665" type="curve" smooth="yes"/>
      <point x="614" y="665"/>
      <point x="741" y="531"/>
      <point x="741" y="353" type="curve" smooth="yes"/>
      <point x="741" y="175"/>
      <point x="614" y="40"/>
    </contour>
    <contour>
      <point x="434" y="-7" type="curve" smooth="yes"/>
      <point x="637" y="-7"/>
      <point x="793" y="148"/>
      <point x="793" y="353" type="curve" smooth="yes"/>
      <point x="793" y="557"/>
      <point x="637" y="711"/>
      <point x="434" y="711" type="curve" smooth="yes"/>
      <point x="232" y="711"/>
      <point x="74" y="557"/>
      <point x="74" y="353" type="curve" smooth="yes"/>
      <point x="74" y="148"/>
      <point x="232" y="-7"/>
    </contour>
  </outline>
</glyph>
<glyph name="ordfeminine" format="1">
  <advance width="500"/>
  <unicode hex="00AA"/>
  <outline>
    <contour>
      <point x="65" y="383" type="curve" smooth="yes"/>
      <point x="65" y="303"/>
      <point x="112" y="253"/>
      <point x="188" y="253" type="curve"/>
      <point x="188" y="252" type="line"/>
      <point x="250" y="252"/>
      <point x="296" y="288"/>
      <point x="319" y="320" type="curve"/>
      <point x="334" y="284"/>
      <point x="350" y="259"/>
      <point x="409" y="259" type="curve" smooth="yes"/>
      <point x="450" y="259" type="line"/>
      <point x="459" y="342" type="line"/>
      <point x="425" y="342"/>
      <point x="417" y="355"/>
      <point x="417" y="396" type="curve" smooth="yes"/>
      <point x="417" y="569" type="line" smooth="yes"/>
      <point x="417" y="662"/>
      <point x="373" y="722"/>
      <point x="247" y="722" type="curve" smooth="yes"/>
      <point x="131" y="722"/>
      <point x="79" y="666"/>
      <point x="79" y="579" type="curve" smooth="yes"/>
      <point x="79" y="565" type="line"/>
      <point x="179" y="565" type="line"/>
      <point x="179" y="583" type="line" smooth="yes"/>
      <point x="179" y="618"/>
      <point x="191" y="643"/>
      <point x="245" y="643" type="curve" smooth="yes"/>
      <point x="293" y="643"/>
      <point x="310" y="624"/>
      <point x="310" y="588" type="curve" smooth="yes"/>
      <point x="310" y="531"/>
      <point x="276" y="530"/>
      <point x="200" y="506" type="curve" smooth="yes"/>
      <point x="86" y="470"/>
      <point x="65" y="441"/>
    </contour>
    <contour>
      <point x="168" y="391" type="curve" smooth="yes"/>
      <point x="168" y="415"/>
      <point x="182" y="438"/>
      <point x="226" y="451" type="curve" smooth="yes"/>
      <point x="262" y="462"/>
      <point x="296" y="476"/>
      <point x="309" y="489" type="curve"/>
      <point x="309" y="376" type="line"/>
      <point x="289" y="345"/>
      <point x="250" y="334"/>
      <point x="224" y="334" type="curve" smooth="yes"/>
      <point x="188" y="334"/>
      <point x="168" y="354"/>
    </contour>
  </outline>
</glyph>
<glyph name="guillemotleft" format="1">
  <advance width="500"/>
  <unicode hex="00AB"/>
  <outline>
    <contour>
      <point x="169" y="39" type="line"/>
      <point x="238" y="73" type="line"/>
      <point x="137" y="259" type="line"/>
      <point x="238" y="444" type="line"/>
      <point x="166" y="479" type="line"/>
      <point x="33" y="259" type="line"/>
    </contour>
    <contour>
      <point x="372" y="39" type="line"/>
      <point x="439" y="73" type="line"/>
      <point x="339" y="259" type="line"/>
      <point x="439" y="444" type="line"/>
      <point x="368" y="479" type="line"/>
      <point x="235" y="259" type="line"/>
    </contour>
  </outline>
</glyph>
<glyph name="logicalnot" format="1">
  <advance width="500"/>
  <unicode hex="00AC"/>
  <outline>
    <contour>
      <point x="344" y="110" type="line"/>
      <point x="417" y="110" type="line"/>
      <point x="417" y="370" type="line"/>
      <point x="63" y="370" type="line"/>
      <point x="63" y="287" type="line"/>
      <point x="344" y="287" type="line"/>
    </contour>
  </outline>
</glyph>
<glyph name="uni00AD" format="1">
  <advance width="472"/>
  <unicode hex="00AD"/>
  <outline>
    <contour>
      <point x="64" y="241" type="line"/>
      <point x="408" y="241" type="line"/>
      <point x="408" y="313" type="line"/>
      <point x="64" y="313" type="line"/>
    </contour>
  </outline>
</glyph>
<glyph name="registered" format="1">
  <advance width="867"/>
  <unicode hex="00AE"/>
  <outline>
    <contour>
      <point x="289" y="156" type="line"/>
      <point x="353" y="156" type="line"/>
      <point x="353" y="318" type="line"/>
      <point x="479" y="318" type="line"/>
      <point x="567" y="156" type="line"/>
      <point x="630" y="156" type="line"/>
      <point x="540" y="325" type="line"/>
      <point x="585" y="337"/>
      <point x="614" y="372"/>
      <point x="614" y="437" type="curve" smooth="yes"/>
      <point x="614" y="443" type="line"/>
      <point x="612" y="528"/>
      <point x="563" y="563"/>
      <point x="486" y="563" type="curve" smooth="yes"/>
      <point x="289" y="563" type="line"/>
    </contour>
    <contour>
      <point x="353" y="362" type="line"/>
      <point x="353" y="519" type="line"/>
      <point x="488" y="519" type="line" smooth="yes"/>
      <point x="546" y="519"/>
      <point x="550" y="469"/>
      <point x="550" y="440" type="curve" smooth="yes"/>
      <point x="550" y="428" type="line" smooth="yes"/>
      <point x="550" y="397"/>
      <point x="539" y="362"/>
      <point x="483" y="362" type="curve" smooth="yes"/>
    </contour>
    <contour>
      <point x="435" y="40" type="curve" smooth="yes"/>
      <point x="257" y="40"/>
      <point x="127" y="175"/>
      <point x="127" y="353" type="curve" smooth="yes"/>
      <point x="127" y="531"/>
      <point x="257" y="665"/>
      <point x="435" y="665" type="curve" smooth="yes"/>
      <point x="614" y="665"/>
      <point x="741" y="531"/>
      <point x="741" y="353" type="curve" smooth="yes"/>
      <point x="741" y="175"/>
      <point x="614" y="40"/>
    </contour>
    <contour>
      <point x="434" y="-7" type="curve" smooth="yes"/>
      <point x="637" y="-7"/>
      <point x="793" y="148"/>
      <point x="793" y="353" type="curve" smooth="yes"/>
      <point x="793" y="557"/>
      <point x="637" y="711"/>
      <point x="434" y="711" type="curve" smooth="yes"/>
      <point x="232" y="711"/>
      <point x="74" y="557"/>
      <point x="74" y="353" type="curve" smooth="yes"/>
      <point x="74" y="148"/>
      <point x="232" y="-7"/>
    </contour>
  </outline>
</glyph>
<glyph name="macron" format="1">
  <advance width="249"/>
  <unicode hex="00AF"/>
  <outline>
    <contour>
      <point x="-23" y="611" type="line"/>
      <point x="272" y="611" type="line"/>
      <point x="272" y="688" type="line"/>
      <point x="-23" y="688" type="line"/>
    </contour>
  </outline>
</glyph>
<glyph name="degree" format="1">
  <advance width="475"/>
  <unicode hex="00B0"/>
  <outline>
    <contour>
      <point x="239" y="484" type="curve" smooth="yes"/>
      <point x="172" y="484"/>
      <point x="141" y="529"/>
      <point x="141" y="577" type="curve" smooth="yes"/>
      <point x="141" y="624"/>
      <point x="172" y="669"/>
      <point x="239" y="669" type="curve" smooth="yes"/>
      <point x="305" y="669"/>
      <point x="336" y="624"/>
      <point x="336" y="577" type="curve" smooth="yes"/>
      <point x="336" y="529"/>
      <point x="305" y="484"/>
    </contour>
    <contour>
      <point x="239" y="415" type="curve" smooth="yes"/>
      <point x="354" y="415"/>
      <point x="413" y="493"/>
      <point x="413" y="576" type="curve" smooth="yes"/>
      <point x="413" y="659"/>
      <point x="354" y="738"/>
      <point x="239" y="738" type="curve" smooth="yes"/>
      <point x="122" y="738"/>
      <point x="62" y="659"/>
      <point x="62" y="576" type="curve" smooth="yes"/>
      <point x="62" y="493"/>
      <point x="122" y="415"/>
    </contour>
  </outline>
</glyph>
<glyph name="plusminus" format="1">
  <advance width="500"/>
  <unicode hex="00B1"/>
  <outline>
    <contour>
      <point x="209" y="159" type="line"/>
      <point x="291" y="159" type="line"/>
      <point x="291" y="289" type="line"/>
      <point x="417" y="289" type="line"/>
      <point x="417" y="369" type="line"/>
      <point x="291" y="369" type="line"/>
      <point x="291" y="497" type="line"/>
      <point x="209" y="497" type="line"/>
      <point x="209" y="369" type="line"/>
      <point x="83" y="369" type="line"/>
      <point x="83" y="289" type="line"/>
      <point x="209" y="289" type="line"/>
    </contour>
    <contour>
      <point x="83" y="0" type="line"/>
      <point x="417" y="0" type="line"/>
      <point x="417" y="81" type="line"/>
      <point x="83" y="81" type="line"/>
    </contour>
  </outline>
</glyph>
<glyph name="twosuperior" format="1">
  <advance width="1005"/>
  <unicode hex="00B2"/>
  <outline>
    <contour>
      <point x="189" y="624" type="line"/>
      <point x="828" y="624" type="line"/>
      <point x="828" y="773" type="line"/>
      <point x="400" y="773" type="line"/>
      <point x="643" y="971" type="line" smooth="yes"/>
      <point x="778" y="1081"/>
      <point x="845" y="1163"/>
      <point x="845" y="1295" type="curve" smooth="yes"/>
      <point x="845" y="1455"/>
      <point x="746" y="1582"/>
      <point x="497" y="1582" type="curve" smooth="yes"/>
      <point x="235" y="1582"/>
      <point x="134" y="1487"/>
      <point x="134" y="1256" type="curve"/>
      <point x="335" y="1256" type="line"/>
      <point x="335" y="1397"/>
      <point x="381" y="1435"/>
      <point x="505" y="1435" type="curve" smooth="yes"/>
      <point x="614" y="1435"/>
      <point x="655" y="1384"/>
      <point x="655" y="1294" type="curve" smooth="yes"/>
      <point x="655" y="1221"/>
      <point x="628" y="1177"/>
      <point x="525" y="1087" type="curve" smooth="yes"/>
      <point x="165" y="772" type="line"/>
    </contour>
  </outline>
</glyph>
<glyph name="uni00B2" format="1">
  <advance width="490"/>
  <unicode hex="00B2"/>
  <outline>
    <contour>
      <point x="92" y="305" type="line"/>
      <point x="404" y="305" type="line"/>
      <point x="404" y="377" type="line"/>
      <point x="195" y="377" type="line"/>
      <point x="314" y="474" type="line" smooth="yes"/>
      <point x="380" y="528"/>
      <point x="413" y="568"/>
      <point x="413" y="632" type="curve" smooth="yes"/>
      <point x="413" y="710"/>
      <point x="365" y="772"/>
      <point x="243" y="772" type="curve" smooth="yes"/>
      <point x="115" y="772"/>
      <point x="65" y="726"/>
      <point x="65" y="613" type="curve"/>
      <point x="164" y="613" type="line"/>
      <point x="164" y="682"/>
      <point x="186" y="701"/>
      <point x="247" y="701" type="curve" smooth="yes"/>
      <point x="300" y="701"/>
      <point x="320" y="676"/>
      <point x="320" y="632" type="curve" smooth="yes"/>
      <point x="320" y="596"/>
      <point x="306" y="575"/>
      <point x="256" y="531" type="curve" smooth="yes"/>
      <point x="81" y="377" type="line"/>
    </contour>
  </outline>
</glyph>
<glyph name="threesuperior" format="1">
  <advance width="452"/>
  <unicode hex="00B3"/>
  <outline>
    <contour>
      <point x="68" y="448" type="line"/>
      <point x="69" y="345"/>
      <point x="130" y="297"/>
      <point x="230" y="297" type="curve" smooth="yes"/>
      <point x="329" y="297"/>
      <point x="393" y="337"/>
      <point x="393" y="427" type="curve" smooth="yes"/>
      <point x="393" y="487"/>
      <point x="369" y="524"/>
      <point x="311" y="539" type="curve"/>
      <point x="364" y="549"/>
      <point x="387" y="593"/>
      <point x="387" y="644" type="curve" smooth="yes"/>
      <point x="387" y="738"/>
      <point x="319" y="772"/>
      <point x="228" y="772" type="curve" smooth="yes"/>
      <point x="126" y="772"/>
      <point x="71" y="725"/>
      <point x="71" y="623" type="curve"/>
      <point x="163" y="623" type="line"/>
      <point x="163" y="677"/>
      <point x="178" y="699"/>
      <point x="228" y="699" type="curve" smooth="yes"/>
      <point x="280" y="699"/>
      <point x="292" y="673"/>
      <point x="292" y="640" type="curve" smooth="yes"/>
      <point x="292" y="592"/>
      <point x="274" y="573"/>
      <point x="189" y="573" type="curve"/>
      <point x="189" y="505" type="line"/>
      <point x="274" y="505"/>
      <point x="295" y="485"/>
      <point x="295" y="429" type="curve" smooth="yes"/>
      <point x="295" y="389"/>
      <point x="275" y="371"/>
      <point x="228" y="371" type="curve" smooth="yes"/>
      <point x="179" y="371"/>
      <point x="162" y="394"/>
      <point x="161" y="448" type="curve"/>
    </contour>
  </outline>
</glyph>
<glyph name="acute" format="1">
  <advance width="270"/>
  <unicode hex="00B4"/>
  <outline>
    <contour>
      <point x="52" y="595" type="line"/>
      <point x="125" y="595" type="line"/>
      <point x="238" y="773" type="line"/>
      <point x="107" y="773" type="line"/>
    </contour>
  </outline>
</glyph>
<glyph name="paragraph" format="1">
  <advance width="596"/>
  <unicode hex="00B6"/>
  <outline>
    <contour>
      <point x="218" y="0" type="line"/>
      <point x="302" y="0" type="line"/>
      <point x="302" y="651" type="line"/>
      <point x="415" y="651" type="line"/>
      <point x="415" y="0" type="line"/>
      <point x="499" y="0" type="line"/>
      <point x="499" y="721" type="line"/>
      <point x="226" y="721" type="line" smooth="yes"/>
      <point x="131" y="721"/>
      <point x="46" y="678"/>
      <point x="46" y="573" type="curve" smooth="yes"/>
      <point x="46" y="470"/>
      <point x="123" y="419"/>
      <point x="218" y="419" type="curve"/>
    </contour>
  </outline>
</glyph>
<glyph name="periodcentered" format="1">
  <advance width="250"/>
  <unicode hex="00B7"/>
  <outline>
    <contour>
      <point x="129" y="381" type="line"/>
      <point x="250" y="381" type="line"/>
      <point x="250" y="500" type="line"/>
      <point x="129" y="500" type="line"/>
    </contour>
  </outline>
</glyph>
<glyph name="cedilla" format="1">
  <advance width="250"/>
  <unicode hex="00B8"/>
  <outline>
    <contour>
      <point x="105" y="-236" type="curve" smooth="yes"/>
      <point x="185" y="-236"/>
      <point x="225" y="-193"/>
      <point x="225" y="-147" type="curve" smooth="yes"/>
      <point x="225" y="-103"/>
      <point x="203" y="-57"/>
      <point x="131" y="-44" type="curve"/>
      <point x="128" y="5" type="line"/>
      <point x="77" y="5" type="line"/>
      <point x="77" y="-79" type="line"/>
      <point x="125" y="-80"/>
      <point x="147" y="-110"/>
      <point x="147" y="-136" type="curve" smooth="yes"/>
      <point x="147" y="-161"/>
      <point x="128" y="-178"/>
      <point x="90" y="-178" type="curve" smooth="yes"/>
      <point x="81" y="-178"/>
      <point x="71" y="-177"/>
      <point x="59" y="-175" type="curve"/>
      <point x="59" y="-232" type="line"/>
      <point x="76" y="-235"/>
      <point x="91" y="-236"/>
    </contour>
    <contour>
      <point x="95" y="0" type="move" name="_bot"/>
    </contour>
  </outline>
</glyph>
<glyph name="uni00B9" format="1">
  <advance width="550"/>
  <unicode hex="00B9"/>
  <outline>
    <contour>
      <point x="104" y="305" type="line"/>
      <point x="459" y="305" type="line"/>
      <point x="459" y="372" type="line"/>
      <point x="338" y="372" type="line"/>
      <point x="338" y="760" type="line"/>
      <point x="272" y="760" type="line"/>
      <point x="103" y="737" type="line"/>
      <point x="111" y="667" type="line"/>
      <point x="243" y="684" type="line"/>
      <point x="243" y="372" type="line"/>
      <point x="104" y="372" type="line"/>
    </contour>
  </outline>
</glyph>
<glyph name="ordmasculine" format="1">
  <advance width="500"/>
  <unicode hex="00BA"/>
  <outline>
    <contour>
      <point x="249" y="330" type="line" smooth="yes"/>
      <point x="200" y="330"/>
      <point x="172" y="346"/>
      <point x="172" y="392" type="curve" smooth="yes"/>
      <point x="172" y="580" type="line" smooth="yes"/>
      <point x="172" y="626"/>
      <point x="202" y="642"/>
      <point x="249" y="642" type="curve" smooth="yes"/>
      <point x="298" y="642"/>
      <point x="326" y="626"/>
      <point x="326" y="580" type="curve" smooth="yes"/>
      <point x="326" y="392" type="line" smooth="yes"/>
      <point x="326" y="346"/>
      <point x="296" y="330"/>
      <point x="250" y="330" type="curve" smooth="yes"/>
    </contour>
    <contour>
      <point x="250" y="250" type="curve" smooth="yes"/>
      <point x="387" y="250"/>
      <point x="434" y="307"/>
      <point x="434" y="396" type="curve" smooth="yes"/>
      <point x="434" y="574" type="line" smooth="yes"/>
      <point x="434" y="666"/>
      <point x="366" y="720"/>
      <point x="250" y="720" type="curve" smooth="yes"/>
      <point x="133" y="720"/>
      <point x="66" y="666"/>
      <point x="66" y="574" type="curve" smooth="yes"/>
      <point x="66" y="396" type="line" smooth="yes"/>
      <point x="66" y="306"/>
      <point x="116" y="250"/>
    </contour>
  </outline>
</glyph>
<glyph name="guillemotright" format="1">
  <advance width="500"/>
  <unicode hex="00BB"/>
  <outline>
    <contour>
      <point x="146" y="39" type="line"/>
      <point x="279" y="259" type="line"/>
      <point x="143" y="479" type="line"/>
      <point x="75" y="444" type="line"/>
      <point x="175" y="259" type="line"/>
      <point x="75" y="73" type="line"/>
    </contour>
    <contour>
      <point x="348" y="39" type="line"/>
      <point x="481" y="259" type="line"/>
      <point x="345" y="479" type="line"/>
      <point x="276" y="444" type="line"/>
      <point x="377" y="259" type="line"/>
      <point x="276" y="73" type="line"/>
    </contour>
  </outline>
</glyph>
<glyph name="onequarter" format="1">
  <advance width="1187"/>
  <unicode hex="00BC"/>
  <outline>
    <contour>
      <point x="966" y="0" type="line"/>
      <point x="1043" y="0" type="line"/>
      <point x="1043" y="103" type="line"/>
      <point x="1125" y="103" type="line"/>
      <point x="1125" y="182" type="line"/>
      <point x="1043" y="182" type="line"/>
      <point x="1043" y="300" type="line"/>
      <point x="966" y="300" type="line"/>
      <point x="966" y="182" type="line"/>
      <point x="820" y="182" type="line"/>
      <point x="951" y="524" type="line"/>
      <point x="858" y="524" type="line"/>
      <point x="721" y="180" type="line"/>
      <point x="721" y="103" type="line"/>
      <point x="966" y="103" type="line"/>
    </contour>
    <contour>
      <point x="64" y="206" type="line"/>
      <point x="418" y="206" type="line"/>
      <point x="418" y="278" type="line"/>
      <point x="298" y="278" type="line"/>
      <point x="298" y="721" type="line"/>
      <point x="227" y="721" type="line"/>
      <point x="62" y="695" type="line"/>
      <point x="71" y="625" type="line"/>
      <point x="194" y="644" type="line"/>
      <point x="194" y="278" type="line"/>
      <point x="63" y="278" type="line"/>
    </contour>
    <contour>
      <point x="415" y="0" type="line"/>
      <point x="500" y="0" type="line"/>
      <point x="812" y="735" type="line"/>
      <point x="728" y="735" type="line"/>
    </contour>
  </outline>
</glyph>
<glyph name="onehalf" format="1">
  <advance width="1259"/>
  <unicode hex="00BD"/>
  <outline>
    <contour>
      <point x="841" y="-1" type="line"/>
      <point x="1157" y="-1" type="line"/>
      <point x="1157" y="78" type="line"/>
      <point x="944" y="78" type="line"/>
      <point x="1058" y="188" type="line" smooth="yes"/>
      <point x="1116" y="244"/>
      <point x="1163" y="299"/>
      <point x="1163" y="375" type="curve" smooth="yes"/>
      <point x="1163" y="459"/>
      <point x="1121" y="523"/>
      <point x="989" y="523" type="curve" smooth="yes"/>
      <point x="850" y="523"/>
      <point x="807" y="468"/>
      <point x="807" y="345" type="curve"/>
      <point x="913" y="345" type="line"/>
      <point x="913" y="420"/>
      <point x="924" y="445"/>
      <point x="990" y="445" type="curve" smooth="yes"/>
      <point x="1040" y="445"/>
      <point x="1058" y="421"/>
      <point x="1058" y="375" type="curve" smooth="yes"/>
      <point x="1058" y="329"/>
      <point x="1036" y="297"/>
      <point x="993" y="253" type="curve" smooth="yes"/>
      <point x="819" y="78" type="line"/>
    </contour>
    <contour>
      <point x="64" y="206" type="line"/>
      <point x="418" y="206" type="line"/>
      <point x="418" y="278" type="line"/>
      <point x="298" y="278" type="line"/>
      <point x="298" y="721" type="line"/>
      <point x="227" y="721" type="line"/>
      <point x="62" y="695" type="line"/>
      <point x="71" y="625" type="line"/>
      <point x="194" y="644" type="line"/>
      <point x="194" y="278" type="line"/>
      <point x="63" y="278" type="line"/>
    </contour>
    <contour>
      <point x="429" y="0" type="line"/>
      <point x="514" y="0" type="line"/>
      <point x="827" y="735" type="line"/>
      <point x="742" y="735" type="line"/>
    </contour>
  </outline>
</glyph>
<glyph name="threequarters" format="1">
  <advance width="1407"/>
  <unicode hex="00BE"/>
  <outline>
    <contour>
      <point x="299" y="213" type="curve" smooth="yes"/>
      <point x="434" y="213"/>
      <point x="472" y="284"/>
      <point x="472" y="363" type="curve" smooth="yes"/>
      <point x="472" y="421"/>
      <point x="454" y="466"/>
      <point x="392" y="483" type="curve"/>
      <point x="458" y="497"/>
      <point x="468" y="547"/>
      <point x="468" y="595" type="curve" smooth="yes"/>
      <point x="468" y="679"/>
      <point x="412" y="730"/>
      <point x="302" y="730" type="curve" smooth="yes"/>
      <point x="190" y="730"/>
      <point x="122" y="694"/>
      <point x="122" y="564" type="curve"/>
      <point x="212" y="564" type="line"/>
      <point x="212" y="567" type="line" smooth="yes"/>
      <point x="212" y="640"/>
      <point x="229" y="656"/>
      <point x="298" y="656" type="curve" smooth="yes"/>
      <point x="359" y="656"/>
      <point x="377" y="633"/>
      <point x="377" y="590" type="curve" smooth="yes"/>
      <point x="377" y="540"/>
      <point x="374" y="517"/>
      <point x="274" y="517" type="curve"/>
      <point x="274" y="448" type="line"/>
      <point x="364" y="448"/>
      <point x="380" y="427"/>
      <point x="380" y="368" type="curve" smooth="yes"/>
      <point x="380" y="318"/>
      <point x="368" y="289"/>
      <point x="306" y="289" type="curve" smooth="yes"/>
      <point x="239" y="289"/>
      <point x="211" y="298"/>
      <point x="210" y="377" type="curve"/>
      <point x="120" y="377" type="line"/>
      <point x="122" y="262"/>
      <point x="168" y="213"/>
    </contour>
    <contour>
      <point x="985" y="0" type="line"/>
      <point x="1063" y="0" type="line"/>
      <point x="1063" y="103" type="line"/>
      <point x="1145" y="103" type="line"/>
      <point x="1145" y="182" type="line"/>
      <point x="1063" y="182" type="line"/>
      <point x="1063" y="300" type="line"/>
      <point x="985" y="300" type="line"/>
      <point x="985" y="182" type="line"/>
      <point x="839" y="182" type="line"/>
      <point x="971" y="524" type="line"/>
      <point x="877" y="524" type="line"/>
      <point x="741" y="180" type="line"/>
      <point x="741" y="103" type="line"/>
      <point x="985" y="103" type="line"/>
    </contour>
    <contour>
      <point x="434" y="0" type="line"/>
      <point x="519" y="0" type="line"/>
      <point x="832" y="735" type="line"/>
      <point x="747" y="735" type="line"/>
    </contour>
  </outline>
</glyph>
<glyph name="AE" format="1">
  <advance width="895"/>
  <unicode hex="00C6"/>
  <outline>
    <contour>
      <point x="41" y="0" type="line"/>
      <point x="192" y="0" type="line"/>
      <point x="230" y="137" type="line"/>
      <point x="436" y="137" type="line"/>
      <point x="436" y="0" type="line"/>
      <point x="835" y="0" type="line"/>
      <point x="835" y="111" type="line"/>
      <point x="573" y="111" type="line"/>
      <point x="573" y="315" type="line"/>
      <point x="796" y="315" type="line"/>
      <point x="796" y="419" type="line"/>
      <point x="573" y="419" type="line"/>
      <point x="573" y="610" type="line"/>
      <point x="830" y="610" type="line"/>
      <point x="830" y="721" type="line"/>
      <point x="263" y="721" type="line"/>
    </contour>
    <contour>
      <point x="257" y="233" type="line"/>
      <point x="370" y="610" type="line"/>
      <point x="436" y="610" type="line"/>
      <point x="436" y="233" type="line"/>
    </contour>
  </outline>
</glyph>
<glyph name="multiply" format="1">
  <advance width="500"/>
  <unicode hex="00D7"/>
  <outline>
    <contour>
      <point x="129" y="105" type="line"/>
      <point x="250" y="224" type="line"/>
      <point x="372" y="105" type="line"/>
      <point x="425" y="168" type="line"/>
      <point x="310" y="281" type="line"/>
      <point x="425" y="394" type="line"/>
      <point x="372" y="458" type="line"/>
      <point x="250" y="339" type="line"/>
      <point x="129" y="458" type="line"/>
      <point x="75" y="394" type="line"/>
      <point x="191" y="281" type="line"/>
      <point x="75" y="168" type="line"/>
    </contour>
  </outline>
</glyph>
<glyph name="Oslash" format="1">
  <advance width="784"/>
  <unicode hex="00D8"/>
  <outline>
    <component base="O"/>
    <contour>
      <point x="246" y="-106" type="line"/>
      <point x="599" y="818" type="line"/>
      <point x="557" y="829" type="line"/>
      <point x="204" y="-95" type="line"/>
    </contour>
  </outline>
</glyph>
<glyph name="Thorn" format="1">
  <advance width="665"/>
  <unicode hex="00DE"/>
  <outline>
    <contour>
      <point x="105" y="0" type="line"/>
      <point x="250" y="0" type="line"/>
      <point x="250" y="174" type="line"/>
      <point x="380" y="174" type="line" smooth="yes"/>
      <point x="568" y="174"/>
      <point x="621" y="229"/>
      <point x="621" y="396" type="curve" smooth="yes"/>
      <point x="621" y="558"/>
      <point x="554" y="605"/>
      <point x="394" y="605" type="curve" smooth="yes"/>
      <point x="250" y="605" type="line"/>
      <point x="250" y="721" type="line"/>
      <point x="105" y="721" type="line"/>
    </contour>
    <contour>
      <point x="250" y="277" type="line"/>
      <point x="250" y="504" type="line"/>
      <point x="407" y="504" type="line" smooth="yes"/>
      <point x="475" y="504"/>
      <point x="490" y="464"/>
      <point x="490" y="389" type="curve" smooth="yes"/>
      <point x="490" y="302"/>
      <point x="476" y="277"/>
      <point x="403" y="277" type="curve" smooth="yes"/>
    </contour>
  </outline>
</glyph>
<glyph name="germandbls" format="1">
  <advance width="627"/>
  <unicode hex="00DF"/>
  <outline>
    <contour>
      <point x="68" y="0" type="line"/>
      <point x="220" y="0" type="line"/>
      <point x="220" y="551" type="line" smooth="yes"/>
      <point x="220" y="607"/>
      <point x="238" y="644"/>
      <point x="309" y="644" type="curve" smooth="yes"/>
      <point x="397" y="644"/>
      <point x="408" y="589"/>
      <point x="408" y="542" type="curve" smooth="yes"/>
      <point x="408" y="489"/>
      <point x="391" y="436"/>
      <point x="302" y="436" type="curve"/>
      <point x="302" y="343" type="line"/>
      <point x="402" y="333"/>
      <point x="451" y="317"/>
      <point x="451" y="206" type="curve" smooth="yes"/>
      <point x="451" y="129"/>
      <point x="417" y="83"/>
      <point x="295" y="83" type="curve"/>
      <point x="304" y="-10" type="line"/>
      <point x="513" y="-10"/>
      <point x="592" y="76"/>
      <point x="592" y="195" type="curve" smooth="yes"/>
      <point x="592" y="267"/>
      <point x="569" y="371"/>
      <point x="429" y="400" type="curve"/>
      <point x="509" y="422"/>
      <point x="544" y="484"/>
      <point x="544" y="548" type="curve" smooth="yes"/>
      <point x="544" y="652"/>
      <point x="481" y="736"/>
      <point x="299" y="736" type="curve" smooth="yes"/>
      <point x="143" y="736"/>
      <point x="68" y="659"/>
      <point x="68" y="546" type="curve" smooth="yes"/>
    </contour>
  </outline>
</glyph>
<glyph name="ae" format="1">
  <advance width="1734"/>
  <unicode hex="00E6"/>
  <outline>
    <contour>
      <point x="890" y="1074" type="move" name="top"/>
    </contour>
    <contour>
      <point x="112" y="293" type="curve" smooth="yes"/>
      <point x="112" y="98"/>
      <point x="225" y="-23"/>
      <point x="420" y="-23" type="curve" smooth="yes"/>
      <point x="621" y="-23"/>
      <point x="734" y="31"/>
      <point x="847" y="130" type="curve"/>
      <point x="901" y="29"/>
      <point x="1017" y="-23"/>
      <point x="1186" y="-23" type="curve" smooth="yes"/>
      <point x="1476" y="-23"/>
      <point x="1616" y="41"/>
      <point x="1622" y="353" type="curve"/>
      <point x="1370" y="353" type="line"/>
      <point x="1366" y="184"/>
      <point x="1313" y="166"/>
      <point x="1190" y="166" type="curve" smooth="yes"/>
      <point x="1077" y="166"/>
      <point x="1012" y="203"/>
      <point x="1012" y="321" type="curve" smooth="yes"/>
      <point x="1012" y="514" type="line"/>
      <point x="1624" y="514" type="line"/>
      <point x="1624" y="745" type="line" smooth="yes"/>
      <point x="1624" y="961"/>
      <point x="1513" y="1097"/>
      <point x="1187" y="1097" type="curve" smooth="yes"/>
      <point x="1056" y="1097"/>
      <point x="950" y="1055"/>
      <point x="878" y="967" type="curve"/>
      <point x="831" y="1056"/>
      <point x="707" y="1097"/>
      <point x="573" y="1097" type="curve" smooth="yes"/>
      <point x="278" y="1097"/>
      <point x="144" y="953"/>
      <point x="144" y="745" type="curve" smooth="yes"/>
      <point x="144" y="719" type="line"/>
      <point x="400" y="719" type="line"/>
      <point x="400" y="755" type="line" smooth="yes"/>
      <point x="400" y="838"/>
      <point x="430" y="908"/>
      <point x="567" y="908" type="curve" smooth="yes"/>
      <point x="695" y="908"/>
      <point x="739" y="852"/>
      <point x="739" y="770" type="curve" smooth="yes"/>
      <point x="739" y="631"/>
      <point x="657" y="640"/>
      <point x="448" y="586" type="curve" smooth="yes"/>
      <point x="158" y="512"/>
      <point x="112" y="430"/>
    </contour>
    <contour>
      <point x="515" y="157" type="curve" smooth="yes"/>
      <point x="424" y="157"/>
      <point x="373" y="208"/>
      <point x="373" y="294" type="curve" smooth="yes"/>
      <point x="373" y="354"/>
      <point x="399" y="419"/>
      <point x="527" y="447" type="curve" smooth="yes"/>
      <point x="626" y="470"/>
      <point x="714" y="499"/>
      <point x="739" y="520" type="curve"/>
      <point x="739" y="259" type="line"/>
      <point x="689" y="183"/>
      <point x="581" y="157"/>
    </contour>
    <contour>
      <point x="1012" y="655" type="line"/>
      <point x="1012" y="760" type="line" smooth="yes"/>
      <point x="1012" y="874"/>
      <point x="1084" y="907"/>
      <point x="1193" y="907" type="curve" smooth="yes"/>
      <point x="1302" y="907"/>
      <point x="1371" y="884"/>
      <point x="1371" y="765" type="curve" smooth="yes"/>
      <point x="1371" y="655" type="line"/>
    </contour>
  </outline>
</glyph>
<glyph name="eth" format="1">
  <advance width="640"/>
  <unicode hex="00F0"/>
  <outline>
    <contour>
      <point x="331" y="-11" type="curve" smooth="yes"/>
      <point x="518" y="-11"/>
      <point x="576" y="96"/>
      <point x="576" y="225" type="curve" smooth="yes"/>
      <point x="576" y="262" type="line" smooth="yes"/>
      <point x="576" y="555"/>
      <point x="456" y="672"/>
      <point x="334" y="707" type="curve"/>
      <point x="370" y="780" type="line"/>
      <point x="312" y="808" type="line"/>
      <point x="270" y="725" type="line"/>
      <point x="234" y="733"/>
      <point x="199" y="735"/>
      <point x="169" y="735" type="curve" smooth="yes"/>
      <point x="153" y="735"/>
      <point x="138" y="734"/>
      <point x="125" y="733" type="curve"/>
      <point x="114" y="652" type="line"/>
      <point x="148" y="652"/>
      <point x="188" y="651"/>
      <point x="230" y="644" type="curve"/>
      <point x="192" y="570" type="line"/>
      <point x="250" y="542" type="line"/>
      <point x="294" y="627" type="line"/>
      <point x="352" y="610"/>
      <point x="411" y="556"/>
      <point x="422" y="450" type="curve"/>
      <point x="409" y="461"/>
      <point x="335" y="476"/>
      <point x="303" y="476" type="curve" smooth="yes"/>
      <point x="175" y="476"/>
      <point x="81" y="413"/>
      <point x="81" y="302" type="curve" smooth="yes"/>
      <point x="81" y="167" type="line" smooth="yes"/>
      <point x="81" y="58"/>
      <point x="160" y="-11"/>
    </contour>
    <contour>
      <point x="331" y="87" type="curve" smooth="yes"/>
      <point x="249" y="87"/>
      <point x="217" y="108"/>
      <point x="217" y="163" type="curve" smooth="yes"/>
      <point x="217" y="299" type="line" smooth="yes"/>
      <point x="217" y="363"/>
      <point x="260" y="387"/>
      <point x="331" y="387" type="curve" smooth="yes"/>
      <point x="360" y="387"/>
      <point x="412" y="374"/>
      <point x="433" y="359" type="curve"/>
      <point x="440" y="319"/>
      <point x="444" y="243"/>
      <point x="444" y="209" type="curve" smooth="yes"/>
      <point x="444" y="126"/>
      <point x="435" y="87"/>
    </contour>
  </outline>
</glyph>
<glyph name="divide" format="1">
  <advance width="490"/>
  <unicode hex="00F7"/>
  <outline>
    <contour>
      <point x="190" y="46" type="line"/>
      <point x="301" y="46" type="line"/>
      <point x="301" y="158" type="line"/>
      <point x="190" y="158" type="line"/>
    </contour>
    <contour>
      <point x="55" y="234" type="line"/>
      <point x="436" y="234" type="line"/>
      <point x="436" y="313" type="line"/>
      <point x="55" y="313" type="line"/>
    </contour>
    <contour>
      <point x="190" y="387" type="line"/>
      <point x="301" y="387" type="line"/>
      <point x="301" y="499" type="line"/>
      <point x="190" y="499" type="line"/>
    </contour>
  </outline>
</glyph>
<glyph name="oslash" format="1">
  <advance width="576"/>
  <unicode hex="00F8"/>
  <outline>
    <contour>
      <point x="179" y="-104" type="line"/>
      <point x="438" y="615" type="line"/>
      <point x="402" y="625" type="line"/>
      <point x="144" y="-95" type="line"/>
    </contour>
    <component base="o"/>
  </outline>
</glyph>
<glyph name="thorn" format="1">
  <advance width="591"/>
  <unicode hex="00FE"/>
  <outline>
    <contour>
      <point x="77" y="-200" type="line"/>
      <point x="210" y="-200" type="line"/>
      <point x="210" y="8" type="line"/>
      <point x="236" y="-3"/>
      <point x="269" y="-12"/>
      <point x="311" y="-12" type="curve" smooth="yes"/>
      <point x="459" y="-12"/>
      <point x="527" y="69"/>
      <point x="527" y="159" type="curve" smooth="yes"/>
      <point x="527" y="367" type="line" smooth="yes"/>
      <point x="527" y="468"/>
      <point x="453" y="535"/>
      <point x="326" y="535" type="curve" smooth="yes"/>
      <point x="282" y="535"/>
      <point x="241" y="523"/>
      <point x="210" y="506" type="curve"/>
      <point x="210" y="740" type="line"/>
      <point x="77" y="740" type="line"/>
    </contour>
    <contour>
      <point x="300" y="81" type="curve" smooth="yes"/>
      <point x="249" y="81"/>
      <point x="217" y="100"/>
      <point x="210" y="104" type="curve"/>
      <point x="210" y="411" type="line"/>
      <point x="226" y="426"/>
      <point x="261" y="442"/>
      <point x="304" y="442" type="curve" smooth="yes"/>
      <point x="359" y="442"/>
      <point x="394" y="421"/>
      <point x="394" y="369" type="curve" smooth="yes"/>
      <point x="394" y="156" type="line" smooth="yes"/>
      <point x="394" y="103"/>
      <point x="360" y="81"/>
    </contour>
  </outline>
</glyph>
<glyph name="Hbar" format="1">
  <advance width="792"/>
  <unicode hex="0126"/>
  <outline>
    <contour>
      <point x="41" y="553" type="line"/>
      <point x="752" y="553" type="line"/>
      <point x="752" y="604" type="line"/>
      <point x="41" y="604" type="line"/>
    </contour>
    <component base="H"/>
  </outline>
</glyph>
<glyph name="hbar" format="1">
  <advance width="612"/>
  <unicode hex="0127"/>
  <outline>
    <component base="h"/>
    <contour>
      <point x="2" y="596" type="line"/>
      <point x="359" y="596" type="line"/>
      <point x="359" y="666" type="line"/>
      <point x="2" y="666" type="line"/>
    </contour>
  </outline>
</glyph>
<glyph name="dotlessi" format="1">
  <advance width="570"/>
  <unicode hex="0131"/>
  <outline>
    <contour>
      <point x="309" y="0" type="move" name="ogonek"/>
    </contour>
    <contour>
      <point x="303" y="1074" type="move" name="top"/>
    </contour>
    <contour>
      <point x="170" y="0" type="line"/>
      <point x="421" y="0" type="line"/>
      <point x="421" y="1074" type="line"/>
      <point x="170" y="1074" type="line"/>
    </contour>
  </outline>
</glyph>
<glyph name="kgreenlandic" format="1">
  <advance width="592"/>
  <unicode hex="0138"/>
  <outline>
    <contour>
      <point x="83" y="0" type="line"/>
      <point x="217" y="0" type="line"/>
      <point x="217" y="188" type="line"/>
      <point x="264" y="236" type="line"/>
      <point x="422" y="0" type="line"/>
      <point x="581" y="0" type="line"/>
      <point x="376" y="295" type="line"/>
      <point x="571" y="524" type="line"/>
      <point x="413" y="524" type="line"/>
      <point x="388" y="497"/>
      <point x="242" y="321"/>
      <point x="217" y="294" type="curve"/>
      <point x="217" y="524" type="line"/>
      <point x="83" y="524" type="line"/>
    </contour>
  </outline>
</glyph>
<glyph name="Lslash" format="1">
  <advance width="572"/>
  <unicode hex="0141"/>
  <outline>
    <contour>
      <point x="12" y="273" type="line"/>
      <point x="387" y="425" type="line"/>
      <point x="387" y="534" type="line"/>
      <point x="12" y="382" type="line"/>
    </contour>
    <component base="L"/>
  </outline>
</glyph>
<glyph name="lslash" format="1">
  <advance width="345"/>
  <unicode hex="0142"/>
  <outline>
    <contour>
      <point x="12" y="332" type="line"/>
      <point x="292" y="447" type="line"/>
      <point x="292" y="517" type="line"/>
      <point x="12" y="402" type="line"/>
    </contour>
    <component base="l"/>
  </outline>
</glyph>
<glyph name="Eng" format="1">
  <advance width="800"/>
  <unicode hex="014A"/>
  <outline>
    <contour>
      <point x="440" y="-187" type="line"/>
      <point x="656" y="-187"/>
      <point x="708" y="-107"/>
      <point x="708" y="79" type="curve" smooth="yes"/>
      <point x="708" y="721" type="line"/>
      <point x="578" y="721" type="line"/>
      <point x="578" y="273" type="line"/>
      <point x="203" y="721" type="line"/>
      <point x="93" y="721" type="line"/>
      <point x="93" y="0" type="line"/>
      <point x="224" y="0" type="line"/>
      <point x="224" y="486" type="line"/>
      <point x="575" y="75" type="line"/>
      <point x="575" y="57" type="line" smooth="yes"/>
      <point x="575" y="-78"/>
      <point x="540" y="-84"/>
      <point x="426" y="-94" type="curve"/>
    </contour>
  </outline>
</glyph>
<glyph name="eng" format="1">
  <advance width="612"/>
  <unicode hex="014B"/>
  <outline>
    <contour>
      <point x="270" y="-178" type="line"/>
      <point x="486" y="-178"/>
      <point x="538" y="-99"/>
      <point x="538" y="87" type="curve" smooth="yes"/>
      <point x="538" y="388" type="line" smooth="yes"/>
      <point x="538" y="476"/>
      <point x="470" y="536"/>
      <point x="369" y="536" type="curve" smooth="yes"/>
      <point x="296" y="536"/>
      <point x="233" y="503"/>
      <point x="211" y="463" type="curve"/>
      <point x="211" y="524" type="line"/>
      <point x="78" y="524" type="line"/>
      <point x="78" y="0" type="line"/>
      <point x="211" y="0" type="line"/>
      <point x="211" y="370" type="line" smooth="yes"/>
      <point x="211" y="421"/>
      <point x="265" y="443"/>
      <point x="313" y="443" type="curve" smooth="yes"/>
      <point x="354" y="443"/>
      <point x="405" y="430"/>
      <point x="405" y="375" type="curve" smooth="yes"/>
      <point x="405" y="84" type="line" smooth="yes"/>
      <point x="405" y="-68"/>
      <point x="375" y="-74"/>
      <point x="256" y="-85" type="curve"/>
    </contour>
  </outline>
</glyph>
<glyph name="OE" format="1">
  <advance width="797"/>
  <unicode hex="0152"/>
  <outline>
    <contour>
      <point x="350" y="0" type="curve" smooth="yes"/>
      <point x="736" y="0" type="line"/>
      <point x="736" y="93" type="line"/>
      <point x="564" y="93" type="line"/>
      <point x="564" y="325" type="line"/>
      <point x="694" y="325" type="line"/>
      <point x="694" y="419" type="line"/>
      <point x="564" y="419" type="line"/>
      <point x="564" y="628" type="line"/>
      <point x="735" y="628" type="line"/>
      <point x="735" y="721" type="line"/>
      <point x="350" y="721" type="line" smooth="yes"/>
      <point x="129" y="721"/>
      <point x="78" y="609"/>
      <point x="78" y="468" type="curve" smooth="yes"/>
      <point x="78" y="247" type="line" smooth="yes"/>
      <point x="78" y="103"/>
      <point x="130" y="0"/>
    </contour>
    <contour>
      <point x="349" y="93" type="line" smooth="yes"/>
      <point x="242" y="93"/>
      <point x="210" y="148"/>
      <point x="210" y="217" type="curve" smooth="yes"/>
      <point x="210" y="499" type="line" smooth="yes"/>
      <point x="210" y="569"/>
      <point x="242" y="625"/>
      <point x="348" y="625" type="curve" smooth="yes"/>
      <point x="433" y="625" type="line"/>
      <point x="433" y="93" type="line"/>
    </contour>
  </outline>
</glyph>
<glyph name="oe" format="1">
  <advance width="869"/>
  <unicode hex="0153"/>
  <outline>
    <contour>
      <point x="285" y="-11" type="curve" smooth="yes"/>
      <point x="358" y="-11"/>
      <point x="408" y="11"/>
      <point x="442" y="44" type="curve"/>
      <point x="481" y="9"/>
      <point x="536" y="-11"/>
      <point x="597" y="-11" type="curve" smooth="yes"/>
      <point x="739" y="-11"/>
      <point x="812" y="22"/>
      <point x="815" y="174" type="curve"/>
      <point x="691" y="174" type="line"/>
      <point x="689" y="91"/>
      <point x="659" y="81"/>
      <point x="599" y="81" type="curve" smooth="yes"/>
      <point x="543" y="81"/>
      <point x="509" y="99"/>
      <point x="509" y="157" type="curve" smooth="yes"/>
      <point x="509" y="250" type="line"/>
      <point x="815" y="250" type="line"/>
      <point x="815" y="364" type="line" smooth="yes"/>
      <point x="815" y="469"/>
      <point x="755" y="536"/>
      <point x="596" y="536" type="curve" smooth="yes"/>
      <point x="532" y="536"/>
      <point x="479" y="518"/>
      <point x="441" y="477" type="curve"/>
      <point x="403" y="518"/>
      <point x="349" y="536"/>
      <point x="285" y="536" type="curve" smooth="yes"/>
      <point x="150" y="536"/>
      <point x="61" y="474"/>
      <point x="61" y="366" type="curve" smooth="yes"/>
      <point x="61" y="159" type="line" smooth="yes"/>
      <point x="61" y="55"/>
      <point x="120" y="-11"/>
    </contour>
    <contour>
      <point x="285" y="81" type="curve" smooth="yes"/>
      <point x="225" y="81"/>
      <point x="194" y="100"/>
      <point x="194" y="153" type="curve" smooth="yes"/>
      <point x="194" y="372" type="line" smooth="yes"/>
      <point x="194" y="425"/>
      <point x="229" y="443"/>
      <point x="285" y="443" type="curve" smooth="yes"/>
      <point x="345" y="443"/>
      <point x="375" y="424"/>
      <point x="375" y="372" type="curve" smooth="yes"/>
      <point x="375" y="153" type="line" smooth="yes"/>
      <point x="375" y="100"/>
      <point x="341" y="81"/>
    </contour>
    <contour>
      <point x="509" y="320" type="line"/>
      <point x="509" y="371" type="line" smooth="yes"/>
      <point x="509" y="427"/>
      <point x="546" y="443"/>
      <point x="599" y="443" type="curve" smooth="yes"/>
      <point x="652" y="443"/>
      <point x="690" y="432"/>
      <point x="690" y="374" type="curve" smooth="yes"/>
      <point x="690" y="320" type="line"/>
    </contour>
  </outline>
</glyph>
<glyph name="florin" format="1">
  <advance width="500"/>
  <unicode hex="0192"/>
  <outline>
    <contour>
      <point x="179" y="-100" type="curve" smooth="yes"/>
      <point x="290" y="-100"/>
      <point x="300" y="-33"/>
      <point x="300" y="49" type="curve" smooth="yes"/>
      <point x="300" y="412" type="line"/>
      <point x="384" y="412" type="line"/>
      <point x="384" y="470" type="line"/>
      <point x="300" y="470" type="line"/>
      <point x="300" y="589" type="line" smooth="yes"/>
      <point x="300" y="625"/>
      <point x="306" y="658"/>
      <point x="354" y="658" type="curve" smooth="yes"/>
      <point x="361" y="658"/>
      <point x="372" y="655"/>
      <point x="382" y="655" type="curve"/>
      <point x="382" y="727" type="line"/>
      <point x="356" y="730"/>
      <point x="341" y="730"/>
      <point x="323" y="730" type="curve" smooth="yes"/>
      <point x="210" y="730"/>
      <point x="200" y="663"/>
      <point x="200" y="577" type="curve" smooth="yes"/>
      <point x="200" y="470" type="line"/>
      <point x="128" y="470" type="line"/>
      <point x="128" y="412" type="line"/>
      <point x="200" y="412" type="line"/>
      <point x="200" y="36" type="line" smooth="yes"/>
      <point x="200" y="0"/>
      <point x="193" y="-27"/>
      <point x="149" y="-27" type="curve" smooth="yes"/>
      <point x="142" y="-27"/>
      <point x="130" y="-26"/>
      <point x="118" y="-24" type="curve"/>
      <point x="118" y="-96" type="line"/>
      <point x="144" y="-99"/>
      <point x="160" y="-100"/>
    </contour>
  </outline>
</glyph>
<glyph name="dotlessj" format="1">
  <advance width="328"/>
  <unicode hex="0237"/>
  <outline>
    <contour>
      <point x="8" y="-161" type="line"/>
      <point x="61" y="-161" type="line" smooth="yes"/>
      <point x="191" y="-161"/>
      <point x="244" y="-89"/>
      <point x="244" y="15" type="curve" smooth="yes"/>
      <point x="244" y="524" type="line"/>
      <point x="110" y="524" type="line"/>
      <point x="110" y="21" type="line" smooth="yes"/>
      <point x="110" y="-19"/>
      <point x="95" y="-66"/>
      <point x="27" y="-66" type="curve" smooth="yes"/>
      <point x="5" y="-66" type="line"/>
    </contour>
  </outline>
</glyph>
<glyph name="circumflex" format="1">
  <advance width="512"/>
  <unicode hex="02C6"/>
  <outline>
    <contour>
      <point x="-69" y="1216" type="line"/>
      <point x="161" y="1216" type="line"/>
      <point x="267" y="1359" type="line"/>
      <point x="365" y="1216" type="line"/>
      <point x="590" y="1216" type="line"/>
      <point x="380" y="1514" type="line"/>
      <point x="155" y="1514" type="line"/>
    </contour>
  </outline>
</glyph>
<glyph name="caron" format="1">
  <advance width="512"/>
  <unicode hex="02C7"/>
  <outline>
    <contour>
      <point x="380" y="1216" type="line"/>
      <point x="590" y="1514" type="line"/>
      <point x="365" y="1514" type="line"/>
      <point x="267" y="1371" type="line"/>
      <point x="161" y="1514" type="line"/>
      <point x="-69" y="1514" type="line"/>
      <point x="155" y="1216" type="line"/>
    </contour>
  </outline>
</glyph>
<glyph name="firsttonechinese" format="1">
  <advance width="249"/>
  <unicode hex="02C9"/>
  <outline>
    <contour>
      <point x="-23" y="611" type="line"/>
      <point x="272" y="611" type="line"/>
      <point x="272" y="688" type="line"/>
      <point x="-23" y="688" type="line"/>
    </contour>
  </outline>
</glyph>
<glyph name="uni02C9" format="1">
  <advance width="511"/>
  <unicode hex="02C9"/>
  <outline>
    <contour>
      <point x="-47" y="1251" type="line"/>
      <point x="557" y="1251" type="line"/>
      <point x="557" y="1408" type="line"/>
      <point x="-47" y="1408" type="line"/>
    </contour>
  </outline>
</glyph>
<glyph name="breve" format="1">
  <advance width="250"/>
  <unicode hex="02D8"/>
  <outline>
    <contour>
      <point x="125" y="594" type="curve" smooth="yes"/>
      <point x="187" y="594"/>
      <point x="250" y="623"/>
      <point x="250" y="721" type="curve"/>
      <point x="180" y="721" type="line"/>
      <point x="180" y="684"/>
      <point x="152" y="672"/>
      <point x="125" y="672" type="curve" smooth="yes"/>
      <point x="98" y="672"/>
      <point x="70" y="684"/>
      <point x="70" y="721" type="curve"/>
      <point x="0" y="721" type="line"/>
      <point x="0" y="623"/>
      <point x="63" y="594"/>
    </contour>
  </outline>
</glyph>
<glyph name="dotaccent" format="1">
  <advance width="489"/>
  <unicode hex="02D9"/>
  <outline>
    <contour>
      <point x="257" y="1074" type="move" name="_top"/>
    </contour>
    <contour>
      <point x="117" y="1251" type="line"/>
      <point x="385" y="1251" type="line"/>
      <point x="385" y="1505" type="line"/>
      <point x="117" y="1505" type="line"/>
    </contour>
  </outline>
</glyph>
<glyph name="ring" format="1">
  <advance width="592"/>
  <unicode hex="02DA"/>
  <outline>
    <contour>
      <point x="296" y="1271" type="curve" smooth="yes"/>
      <point x="228" y="1271"/>
      <point x="178" y="1298"/>
      <point x="178" y="1395" type="curve" smooth="yes"/>
      <point x="178" y="1491"/>
      <point x="228" y="1518"/>
      <point x="295" y="1518" type="curve" smooth="yes"/>
      <point x="363" y="1518"/>
      <point x="414" y="1490"/>
      <point x="414" y="1393" type="curve" smooth="yes"/>
      <point x="414" y="1297"/>
      <point x="363" y="1271"/>
    </contour>
    <contour>
      <point x="296" y="1181" type="curve" smooth="yes"/>
      <point x="439" y="1181"/>
      <point x="526" y="1258"/>
      <point x="526" y="1394" type="curve" smooth="yes"/>
      <point x="526" y="1530"/>
      <point x="438" y="1606"/>
      <point x="296" y="1606" type="curve" smooth="yes"/>
      <point x="153" y="1606"/>
      <point x="66" y="1530"/>
      <point x="66" y="1394" type="curve" smooth="yes"/>
      <point x="66" y="1258"/>
      <point x="153" y="1181"/>
    </contour>
  </outline>
</glyph>
<glyph name="ogonek" format="1">
  <advance width="237"/>
  <unicode hex="02DB"/>
  <outline>
    <contour>
      <point x="200" y="-248" type="line"/>
      <point x="206" y="-179" type="line"/>
      <point x="163" y="-179"/>
      <point x="120" y="-171"/>
      <point x="120" y="-120" type="curve" smooth="yes"/>
      <point x="120" y="-77"/>
      <point x="141" y="-35"/>
      <point x="161" y="4" type="curve"/>
      <point x="104" y="4" type="line"/>
      <point x="60" y="-38"/>
      <point x="30" y="-95"/>
      <point x="30" y="-144" type="curve" smooth="yes"/>
      <point x="30" y="-232"/>
      <point x="116" y="-248"/>
      <point x="193" y="-248" type="curve" smooth="yes"/>
    </contour>
    <contour>
      <point x="129" y="0" type="move" name="_ogonek"/>
    </contour>
  </outline>
</glyph>
<glyph name="tilde" format="1">
  <advance width="759"/>
  <unicode hex="02DC"/>
  <outline>
    <contour>
      <point x="386" y="1074" type="move" name="_top"/>
    </contour>
    <contour>
      <point x="269" y="1231" type="curve" smooth="yes"/>
      <point x="422" y="1231"/>
      <point x="462" y="1334"/>
      <point x="516" y="1334" type="curve" smooth="yes"/>
      <point x="549" y="1334"/>
      <point x="572" y="1308"/>
      <point x="572" y="1247" type="curve"/>
      <point x="690" y="1247" type="line"/>
      <point x="690" y="1434"/>
      <point x="610" y="1507"/>
      <point x="490" y="1507" type="curve" smooth="yes"/>
      <point x="336" y="1507"/>
      <point x="300" y="1405"/>
      <point x="250" y="1405" type="curve" smooth="yes"/>
      <point x="215" y="1405"/>
      <point x="187" y="1428"/>
      <point x="187" y="1491" type="curve"/>
      <point x="69" y="1491" type="line"/>
      <point x="69" y="1304"/>
      <point x="149" y="1231"/>
    </contour>
  </outline>
</glyph>
<glyph name="hungarumlaut" format="1">
  <advance width="1024"/>
  <unicode hex="02DD"/>
  <outline>
    <contour>
      <point x="366" y="1074" type="move" name="_top"/>
    </contour>
    <contour>
      <point x="106" y="1157" type="line"/>
      <point x="255" y="1157" type="line"/>
      <point x="488" y="1522" type="line"/>
      <point x="220" y="1522" type="line"/>
    </contour>
    <contour>
      <point x="516" y="1157" type="line"/>
      <point x="665" y="1157" type="line"/>
      <point x="898" y="1522" type="line"/>
      <point x="630" y="1522" type="line"/>
    </contour>
  </outline>
</glyph>
<glyph name="uni0307" format="1">
  <advance width="292"/>
  <unicode hex="0307"/>
  <outline>
    <contour>
      <point x="91" y="648" type="line"/>
      <point x="185" y="648" type="line"/>
      <point x="185" y="750" type="line"/>
      <point x="91" y="750" type="line"/>
    </contour>
  </outline>
</glyph>
<glyph name="uni030F" format="1">
  <advance width="1024"/>
  <unicode hex="030F"/>
  <outline>
    <contour>
      <point x="749" y="1157" type="line"/>
      <point x="898" y="1157" type="line"/>
      <point x="784" y="1522" type="line"/>
      <point x="516" y="1522" type="line"/>
    </contour>
    <contour>
      <point x="339" y="1157" type="line"/>
      <point x="488" y="1157" type="line"/>
      <point x="374" y="1522" type="line"/>
      <point x="106" y="1522" type="line"/>
    </contour>
  </outline>
</glyph>
<glyph name="uni0311" format="1">
  <advance width="280"/>
  <unicode hex="0311"/>
  <outline>
    <contour>
      <point x="17" y="594" type="curve"/>
      <point x="87" y="594" type="line"/>
      <point x="87" y="631"/>
      <point x="115" y="643"/>
      <point x="142" y="643" type="curve" smooth="yes"/>
      <point x="169" y="643"/>
      <point x="196" y="631"/>
      <point x="196" y="594" type="curve"/>
      <point x="267" y="594" type="line"/>
      <point x="267" y="692"/>
      <point x="204" y="721"/>
      <point x="142" y="721" type="curve" smooth="yes"/>
      <point x="80" y="721"/>
      <point x="17" y="692"/>
    </contour>
  </outline>
</glyph>
<glyph name="uni0326" format="1">
  <advance width="292"/>
  <unicode hex="0326"/>
  <outline>
    <component base="comma" xOffset="-34" yOffset="-219"/>
    <contour>
      <point x="152" y="0" type="move" name="_bot"/>
    </contour>
  </outline>
</glyph>
<glyph name="uni0358" format="1">
  <advance width="292"/>
  <unicode hex="0358"/>
  <outline>
    <contour>
      <point x="97" y="648" type="line"/>
      <point x="191" y="648" type="line"/>
      <point x="191" y="750" type="line"/>
      <point x="97" y="750" type="line"/>
    </contour>
  </outline>
</glyph>
<glyph name="uni0394" format="1">
  <advance width="1419"/>
  <unicode hex="0394"/>
  <outline>
    <contour>
      <point x="108" y="0" type="line"/>
      <point x="1309" y="0" type="line"/>
      <point x="831" y="1476" type="line"/>
      <point x="614" y="1476" type="line"/>
    </contour>
    <contour>
      <point x="379" y="198" type="line"/>
      <point x="688" y="1141" type="line"/>
      <point x="965" y="198" type="line"/>
    </contour>
  </outline>
</glyph>
<glyph name="Sigma" format="1">
  <advance width="583"/>
  <unicode hex="03A3"/>
  <outline>
    <contour>
      <point x="532" y="0" type="line"/>
      <point x="532" y="110" type="line"/>
      <point x="218" y="110" type="line"/>
      <point x="426" y="358" type="line"/>
      <point x="426" y="396" type="line"/>
      <point x="219" y="611" type="line"/>
      <point x="532" y="611" type="line"/>
      <point x="532" y="721" type="line"/>
      <point x="45" y="721" type="line"/>
      <point x="45" y="630" type="line"/>
      <point x="280" y="372" type="line"/>
      <point x="45" y="93" type="line"/>
      <point x="45" y="0" type="line"/>
    </contour>
  </outline>
</glyph>
<glyph name="uni03A9" format="1">
  <advance width="797"/>
  <unicode hex="03A9"/>
  <outline>
    <contour>
      <point x="399" y="727" type="curve" smooth="yes"/>
      <point x="211" y="727"/>
      <point x="71" y="692"/>
      <point x="71" y="364" type="curve" smooth="yes"/>
      <point x="71" y="223"/>
      <point x="137" y="145"/>
      <point x="206" y="101" type="curve"/>
      <point x="82" y="101" type="line"/>
      <point x="82" y="0" type="line"/>
      <point x="359" y="0" type="line"/>
      <point x="359" y="94" type="line"/>
      <point x="250" y="149"/>
      <point x="222" y="218"/>
      <point x="222" y="380" type="curve" smooth="yes"/>
      <point x="222" y="601"/>
      <point x="285" y="621"/>
      <point x="399" y="621" type="curve" smooth="yes"/>
      <point x="518" y="621"/>
      <point x="576" y="601"/>
      <point x="576" y="380" type="curve" smooth="yes"/>
      <point x="576" y="218"/>
      <point x="548" y="149"/>
      <point x="439" y="94" type="curve"/>
      <point x="439" y="0" type="line"/>
      <point x="716" y="0" type="line"/>
      <point x="716" y="101" type="line"/>
      <point x="592" y="101" type="line"/>
      <point x="661" y="145"/>
      <point x="727" y="223"/>
      <point x="727" y="364" type="curve" smooth="yes"/>
      <point x="727" y="692"/>
      <point x="591" y="727"/>
    </contour>
  </outline>
</glyph>
<glyph name="uni03BC" format="1">
  <advance width="608"/>
  <unicode hex="03BC"/>
  <outline>
    <contour>
      <point x="398" y="524" type="line"/>
      <point x="398" y="155" type="line" smooth="yes"/>
      <point x="398" y="106"/>
      <point x="342" y="81"/>
      <point x="294" y="81" type="curve" smooth="yes"/>
      <point x="253" y="81"/>
      <point x="205" y="95"/>
      <point x="205" y="150" type="curve" smooth="yes"/>
      <point x="205" y="524" type="line"/>
      <point x="72" y="524" type="line"/>
      <point x="72" y="-115" type="line"/>
      <point x="195" y="-115" type="line"/>
      <point x="195" y="1" type="line"/>
      <point x="222" y="-6"/>
      <point x="248" y="-9"/>
      <point x="270" y="-9" type="curve" smooth="yes"/>
      <point x="336" y="-9"/>
      <point x="379" y="20"/>
      <point x="398" y="66" type="curve"/>
      <point x="401" y="0" type="line"/>
      <point x="531" y="0" type="line"/>
      <point x="531" y="524" type="line"/>
    </contour>
  </outline>
</glyph>
<glyph name="pi" format="1">
  <advance width="613"/>
  <unicode hex="03C0"/>
  <outline>
    <contour>
      <point x="18" y="391" type="line"/>
      <point x="47" y="412"/>
      <point x="64" y="430"/>
      <point x="116" y="435" type="curve"/>
      <point x="116" y="0" type="line"/>
      <point x="239" y="0" type="line"/>
      <point x="239" y="436" type="line"/>
      <point x="369" y="436" type="line"/>
      <point x="369" y="145" type="line" smooth="yes"/>
      <point x="369" y="19"/>
      <point x="425" y="-10"/>
      <point x="534" y="-10" type="curve" smooth="yes"/>
      <point x="542" y="-10" type="line"/>
      <point x="564" y="76" type="line"/>
      <point x="502" y="88"/>
      <point x="492" y="89"/>
      <point x="492" y="167" type="curve" smooth="yes"/>
      <point x="492" y="436" type="line"/>
      <point x="581" y="436" type="line"/>
      <point x="581" y="524" type="line"/>
      <point x="116" y="524" type="line" smooth="yes"/>
      <point x="66" y="524"/>
      <point x="37" y="503"/>
      <point x="18" y="481" type="curve"/>
    </contour>
  </outline>
</glyph>
<glyph name="endash" format="1">
  <advance width="349"/>
  <unicode hex="2013"/>
  <outline>
    <contour>
      <point x="62" y="218" type="line"/>
      <point x="287" y="218" type="line"/>
      <point x="287" y="299" type="line"/>
      <point x="62" y="299" type="line"/>
    </contour>
  </outline>
</glyph>
<glyph name="emdash" format="1">
  <advance width="961"/>
  <unicode hex="2014"/>
  <outline>
    <contour>
      <point x="3" y="383" type="line"/>
      <point x="957" y="383" type="line"/>
      <point x="957" y="556" type="line"/>
      <point x="3" y="556" type="line"/>
    </contour>
  </outline>
</glyph>
<glyph name="uni2015" format="1">
  <advance width="4096"/>
  <unicode hex="2015"/>
  <outline>
    <contour>
      <point x="132" y="494" type="line"/>
      <point x="132" y="642" type="line"/>
      <point x="3964" y="642" type="line"/>
      <point x="3964" y="494" type="line"/>
    </contour>
  </outline>
</glyph>
<glyph name="quoteleft" format="1">
  <advance width="426"/>
  <unicode hex="2018"/>
  <outline>
    <contour>
      <point x="240" y="734" type="line"/>
      <point x="210" y="707"/>
      <point x="145" y="616"/>
      <point x="145" y="518" type="curve" smooth="yes"/>
      <point x="145" y="409" type="line"/>
      <point x="302" y="409" type="line"/>
      <point x="302" y="544" type="line"/>
      <point x="221" y="544" type="line"/>
      <point x="221" y="611"/>
      <point x="267" y="683"/>
      <point x="292" y="711" type="curve"/>
    </contour>
  </outline>
</glyph>
<glyph name="quoteright" format="1">
  <advance width="407"/>
  <unicode hex="2019"/>
  <outline>
    <contour>
      <point x="187" y="410" type="line"/>
      <point x="217" y="437"/>
      <point x="282" y="527"/>
      <point x="282" y="625" type="curve" smooth="yes"/>
      <point x="282" y="734" type="line"/>
      <point x="125" y="734" type="line"/>
      <point x="125" y="600" type="line"/>
      <point x="206" y="600" type="line"/>
      <point x="206" y="533"/>
      <point x="159" y="460"/>
      <point x="134" y="432" type="curve"/>
    </contour>
  </outline>
</glyph>
<glyph name="quotesinglbase" format="1">
  <advance width="426"/>
  <unicode hex="201A"/>
  <outline>
    <contour>
      <point x="206" y="-190" type="line"/>
      <point x="236" y="-163"/>
      <point x="302" y="-72"/>
      <point x="302" y="26" type="curve" smooth="yes"/>
      <point x="302" y="135" type="line"/>
      <point x="145" y="135" type="line"/>
      <point x="145" y="0" type="line"/>
      <point x="225" y="0" type="line"/>
      <point x="225" y="-67"/>
      <point x="179" y="-139"/>
      <point x="154" y="-167" type="curve"/>
    </contour>
  </outline>
</glyph>
<glyph name="quotedblleft" format="1">
  <advance width="639"/>
  <unicode hex="201C"/>
  <outline>
    <contour>
      <point x="221" y="740" type="line"/>
      <point x="191" y="713"/>
      <point x="125" y="622"/>
      <point x="125" y="524" type="curve" smooth="yes"/>
      <point x="125" y="415" type="line"/>
      <point x="282" y="415" type="line"/>
      <point x="282" y="550" type="line"/>
      <point x="202" y="550" type="line"/>
      <point x="202" y="617"/>
      <point x="248" y="689"/>
      <point x="273" y="717" type="curve"/>
    </contour>
    <contour>
      <point x="453" y="740" type="line"/>
      <point x="423" y="713"/>
      <point x="357" y="622"/>
      <point x="357" y="524" type="curve" smooth="yes"/>
      <point x="357" y="415" type="line"/>
      <point x="515" y="415" type="line"/>
      <point x="515" y="550" type="line"/>
      <point x="434" y="550" type="line"/>
      <point x="434" y="617"/>
      <point x="480" y="689"/>
      <point x="505" y="717" type="curve"/>
    </contour>
  </outline>
</glyph>
<glyph name="quotedblright" format="1">
  <advance width="659"/>
  <unicode hex="201D"/>
  <outline>
    <contour>
      <point x="206" y="416" type="line"/>
      <point x="236" y="443"/>
      <point x="302" y="533"/>
      <point x="302" y="631" type="curve" smooth="yes"/>
      <point x="302" y="740" type="line"/>
      <point x="145" y="740" type="line"/>
      <point x="145" y="605" type="line"/>
      <point x="225" y="605" type="line"/>
      <point x="225" y="538"/>
      <point x="179" y="466"/>
      <point x="154" y="438" type="curve"/>
    </contour>
    <contour>
      <point x="438" y="416" type="line"/>
      <point x="468" y="443"/>
      <point x="534" y="533"/>
      <point x="534" y="631" type="curve" smooth="yes"/>
      <point x="534" y="740" type="line"/>
      <point x="377" y="740" type="line"/>
      <point x="377" y="605" type="line"/>
      <point x="458" y="605" type="line"/>
      <point x="458" y="538"/>
      <point x="411" y="466"/>
      <point x="386" y="438" type="curve"/>
    </contour>
  </outline>
</glyph>
<glyph name="quotedblbase" format="1">
  <advance width="670"/>
  <unicode hex="201E"/>
  <outline>
    <contour>
      <point x="450" y="-190" type="line"/>
      <point x="480" y="-163"/>
      <point x="545" y="-72"/>
      <point x="545" y="26" type="curve" smooth="yes"/>
      <point x="545" y="135" type="line"/>
      <point x="388" y="135" type="line"/>
      <point x="388" y="0" type="line"/>
      <point x="469" y="0" type="line"/>
      <point x="469" y="-67"/>
      <point x="422" y="-139"/>
      <point x="397" y="-167" type="curve"/>
    </contour>
    <contour>
      <point x="206" y="-190" type="line"/>
      <point x="236" y="-163"/>
      <point x="302" y="-72"/>
      <point x="302" y="26" type="curve" smooth="yes"/>
      <point x="302" y="135" type="line"/>
      <point x="145" y="135" type="line"/>
      <point x="145" y="0" type="line"/>
      <point x="225" y="0" type="line"/>
      <point x="225" y="-67"/>
      <point x="179" y="-139"/>
      <point x="154" y="-167" type="curve"/>
    </contour>
  </outline>
</glyph>
<glyph name="dagger" format="1">
  <advance width="500"/>
  <unicode hex="2020"/>
  <outline>
    <contour>
      <point x="200" y="0" type="line"/>
      <point x="300" y="0" type="line"/>
      <point x="300" y="418" type="line"/>
      <point x="422" y="418" type="line"/>
      <point x="422" y="495" type="line"/>
      <point x="300" y="495" type="line"/>
      <point x="300" y="646" type="line"/>
      <point x="200" y="646" type="line"/>
      <point x="200" y="495" type="line"/>
      <point x="78" y="495" type="line"/>
      <point x="78" y="418" type="line"/>
      <point x="200" y="418" type="line"/>
    </contour>
  </outline>
</glyph>
<glyph name="daggerdbl" format="1">
  <advance width="500"/>
  <unicode hex="2021"/>
  <outline>
    <contour>
      <point x="200" y="0" type="line"/>
      <point x="300" y="0" type="line"/>
      <point x="300" y="187" type="line"/>
      <point x="394" y="187" type="line"/>
      <point x="394" y="278" type="line"/>
      <point x="300" y="278" type="line"/>
      <point x="300" y="426" type="line"/>
      <point x="394" y="426" type="line"/>
      <point x="394" y="517" type="line"/>
      <point x="300" y="517" type="line"/>
      <point x="300" y="646" type="line"/>
      <point x="200" y="646" type="line"/>
      <point x="200" y="517" type="line"/>
      <point x="107" y="517" type="line"/>
      <point x="107" y="426" type="line"/>
      <point x="200" y="426" type="line"/>
      <point x="200" y="278" type="line"/>
      <point x="107" y="278" type="line"/>
      <point x="107" y="187" type="line"/>
      <point x="200" y="187" type="line"/>
    </contour>
  </outline>
</glyph>
<glyph name="bullet" format="1">
  <advance width="500"/>
  <unicode hex="2022"/>
  <outline>
    <contour>
      <point x="250" y="190" type="curve" smooth="yes"/>
      <point x="344" y="190"/>
      <point x="406" y="256"/>
      <point x="406" y="345" type="curve" smooth="yes"/>
      <point x="406" y="435"/>
      <point x="344" y="500"/>
      <point x="250" y="500" type="curve" smooth="yes"/>
      <point x="156" y="500"/>
      <point x="94" y="435"/>
      <point x="94" y="345" type="curve" smooth="yes"/>
      <point x="94" y="255"/>
      <point x="156" y="190"/>
    </contour>
  </outline>
</glyph>
<glyph name="perthousand" format="1">
  <advance width="1352"/>
  <unicode hex="2030"/>
  <outline>
    <contour>
      <point x="209" y="385" type="curve" smooth="yes"/>
      <point x="147" y="385"/>
      <point x="141" y="434"/>
      <point x="141" y="500" type="curve" smooth="yes"/>
      <point x="141" y="543" type="line" smooth="yes"/>
      <point x="141" y="606"/>
      <point x="145" y="650"/>
      <point x="209" y="650" type="curve" smooth="yes"/>
      <point x="273" y="650"/>
      <point x="278" y="606"/>
      <point x="278" y="542" type="curve" smooth="yes"/>
      <point x="278" y="500" type="line" smooth="yes"/>
      <point x="278" y="434"/>
      <point x="271" y="385"/>
    </contour>
    <contour>
      <point x="209" y="321" type="curve" smooth="yes"/>
      <point x="321" y="321"/>
      <point x="358" y="394"/>
      <point x="358" y="506" type="curve" smooth="yes"/>
      <point x="358" y="533" type="line"/>
      <point x="357" y="647"/>
      <point x="321" y="713"/>
      <point x="209" y="713" type="curve" smooth="yes"/>
      <point x="96" y="713"/>
      <point x="62" y="646"/>
      <point x="62" y="532" type="curve" smooth="yes"/>
      <point x="62" y="506" type="line" smooth="yes"/>
      <point x="62" y="395"/>
      <point x="97" y="321"/>
    </contour>
    <contour>
      <point x="755" y="54" type="curve" smooth="yes"/>
      <point x="693" y="54"/>
      <point x="686" y="103"/>
      <point x="686" y="169" type="curve" smooth="yes"/>
      <point x="686" y="212" type="line" smooth="yes"/>
      <point x="686" y="275"/>
      <point x="691" y="319"/>
      <point x="755" y="319" type="curve" smooth="yes"/>
      <point x="819" y="319"/>
      <point x="824" y="275"/>
      <point x="824" y="211" type="curve" smooth="yes"/>
      <point x="824" y="169" type="line" smooth="yes"/>
      <point x="824" y="103"/>
      <point x="817" y="54"/>
    </contour>
    <contour>
      <point x="755" y="-9" type="curve" smooth="yes"/>
      <point x="867" y="-9"/>
      <point x="904" y="64"/>
      <point x="904" y="176" type="curve" smooth="yes"/>
      <point x="904" y="202" type="line"/>
      <point x="903" y="316"/>
      <point x="867" y="383"/>
      <point x="755" y="383" type="curve" smooth="yes"/>
      <point x="642" y="383"/>
      <point x="608" y="316"/>
      <point x="608" y="202" type="curve" smooth="yes"/>
      <point x="608" y="176" type="line" smooth="yes"/>
      <point x="608" y="65"/>
      <point x="643" y="-9"/>
    </contour>
    <contour>
      <point x="1123" y="54" type="curve" smooth="yes"/>
      <point x="1061" y="54"/>
      <point x="1054" y="103"/>
      <point x="1054" y="169" type="curve" smooth="yes"/>
      <point x="1054" y="212" type="line" smooth="yes"/>
      <point x="1054" y="275"/>
      <point x="1059" y="319"/>
      <point x="1123" y="319" type="curve" smooth="yes"/>
      <point x="1187" y="319"/>
      <point x="1192" y="275"/>
      <point x="1192" y="211" type="curve" smooth="yes"/>
      <point x="1192" y="169" type="line" smooth="yes"/>
      <point x="1192" y="103"/>
      <point x="1185" y="54"/>
    </contour>
    <contour>
      <point x="1123" y="-9" type="curve" smooth="yes"/>
      <point x="1235" y="-9"/>
      <point x="1272" y="64"/>
      <point x="1272" y="176" type="curve" smooth="yes"/>
      <point x="1272" y="202" type="line"/>
      <point x="1271" y="316"/>
      <point x="1235" y="383"/>
      <point x="1123" y="383" type="curve" smooth="yes"/>
      <point x="1010" y="383"/>
      <point x="976" y="316"/>
      <point x="976" y="202" type="curve" smooth="yes"/>
      <point x="976" y="176" type="line" smooth="yes"/>
      <point x="976" y="65"/>
      <point x="1011" y="-9"/>
    </contour>
    <contour>
      <point x="306" y="0" type="line"/>
      <point x="393" y="0" type="line"/>
      <point x="655" y="706" type="line"/>
      <point x="571" y="706" type="line"/>
    </contour>
  </outline>
</glyph>
<glyph name="guilsinglleft" format="1">
  <advance width="375"/>
  <unicode hex="2039"/>
  <outline>
    <contour>
      <point x="222" y="39" type="line"/>
      <point x="290" y="73" type="line"/>
      <point x="189" y="259" type="line"/>
      <point x="290" y="444" type="line"/>
      <point x="218" y="479" type="line"/>
      <point x="85" y="259" type="line"/>
    </contour>
  </outline>
</glyph>
<glyph name="fraction" format="1">
  <advance width="448"/>
  <unicode hex="2044"/>
  <outline>
    <contour>
      <point x="27" y="0" type="line"/>
      <point x="146" y="0" type="line"/>
      <point x="422" y="740" type="line"/>
      <point x="304" y="740" type="line"/>
    </contour>
  </outline>
</glyph>
<glyph name="foursuperior" format="1">
  <advance width="544"/>
  <unicode hex="2074"/>
  <outline>
    <contour>
      <point x="303" y="301" type="line"/>
      <point x="378" y="301" type="line"/>
      <point x="378" y="397" type="line"/>
      <point x="449" y="397" type="line"/>
      <point x="449" y="475" type="line"/>
      <point x="378" y="475" type="line"/>
      <point x="378" y="578" type="line"/>
      <point x="303" y="578" type="line"/>
      <point x="303" y="475" type="line"/>
      <point x="202" y="475" type="line"/>
      <point x="315" y="765" type="line"/>
      <point x="212" y="765" type="line"/>
      <point x="88" y="476" type="line"/>
      <point x="88" y="397" type="line"/>
      <point x="303" y="397" type="line"/>
    </contour>
  </outline>
</glyph>
<glyph name="Euro" format="1">
  <advance width="1490"/>
  <unicode hex="20AC"/>
  <outline>
    <component base="C"/>
    <contour>
      <point x="788" y="838" type="line"/>
      <point x="788" y="972" type="line"/>
      <point x="46" y="972" type="line"/>
      <point x="46" y="838" type="line"/>
    </contour>
    <contour>
      <point x="788" y="536" type="line"/>
      <point x="788" y="670" type="line"/>
      <point x="46" y="670" type="line"/>
      <point x="46" y="536" type="line"/>
    </contour>
  </outline>
</glyph>
<glyph name="trademark" format="1">
  <advance width="899"/>
  <unicode hex="2122"/>
  <outline>
    <contour>
      <point x="403" y="374" type="line"/>
      <point x="483" y="374" type="line"/>
      <point x="483" y="605" type="line"/>
      <point x="561" y="455" type="line"/>
      <point x="640" y="455" type="line"/>
      <point x="714" y="605" type="line"/>
      <point x="714" y="374" type="line"/>
      <point x="795" y="374" type="line"/>
      <point x="795" y="706" type="line"/>
      <point x="690" y="706" type="line"/>
      <point x="599" y="539" type="line"/>
      <point x="509" y="706" type="line"/>
      <point x="403" y="706" type="line"/>
    </contour>
    <contour>
      <point x="154" y="374" type="line"/>
      <point x="249" y="374" type="line"/>
      <point x="249" y="636" type="line"/>
      <point x="338" y="636" type="line"/>
      <point x="338" y="706" type="line"/>
      <point x="65" y="706" type="line"/>
      <point x="65" y="636" type="line"/>
      <point x="154" y="636" type="line"/>
    </contour>
  </outline>
</glyph>
<glyph name="estimated" format="1">
  <advance width="588"/>
  <unicode hex="212E"/>
  <outline>
    <contour>
      <point x="311" y="573" type="curve" smooth="yes"/>
      <point x="361" y="573"/>
      <point x="411" y="554"/>
      <point x="439" y="515" type="curve"/>
      <point x="439" y="395" type="line"/>
      <point x="178" y="395" type="line"/>
      <point x="178" y="515" type="line"/>
      <point x="208" y="553"/>
      <point x="260" y="573"/>
    </contour>
    <contour>
      <point x="46" y="356" type="curve" smooth="yes"/>
      <point x="46" y="201"/>
      <point x="137" y="87"/>
      <point x="323" y="87" type="curve" smooth="yes"/>
      <point x="424" y="87"/>
      <point x="490" y="130"/>
      <point x="538" y="188" type="curve"/>
      <point x="497" y="227" type="line"/>
      <point x="452" y="178"/>
      <point x="397" y="148"/>
      <point x="323" y="148" type="curve" smooth="yes"/>
      <point x="259" y="148"/>
      <point x="217" y="168"/>
      <point x="182" y="208" type="curve"/>
      <point x="182" y="342" type="line"/>
      <point x="542" y="342" type="line"/>
      <point x="542" y="516"/>
      <point x="466" y="625"/>
      <point x="311" y="625" type="curve" smooth="yes"/>
      <point x="155" y="625"/>
      <point x="46" y="508"/>
    </contour>
  </outline>
</glyph>
<glyph name="partialdiff" format="1">
  <advance width="593"/>
  <unicode hex="2202"/>
  <outline>
    <contour>
      <point x="231" y="-10" type="curve" smooth="yes"/>
      <point x="423" y="-10"/>
      <point x="541" y="189"/>
      <point x="541" y="440" type="curve" smooth="yes"/>
      <point x="541" y="636"/>
      <point x="427" y="730"/>
      <point x="286" y="730" type="curve" smooth="yes"/>
      <point x="224" y="730"/>
      <point x="154" y="710"/>
      <point x="101" y="678" type="curve"/>
      <point x="121" y="629" type="line"/>
      <point x="171" y="656"/>
      <point x="207" y="666"/>
      <point x="245" y="666" type="curve" smooth="yes"/>
      <point x="327" y="666"/>
      <point x="401" y="606"/>
      <point x="401" y="468" type="curve" smooth="yes"/>
      <point x="401" y="456" type="line"/>
      <point x="176" y="442"/>
      <point x="54" y="279"/>
      <point x="54" y="151" type="curve" smooth="yes"/>
      <point x="54" y="66"/>
      <point x="108" y="-10"/>
    </contour>
    <contour>
      <point x="238" y="63" type="curve" smooth="yes"/>
      <point x="221" y="63"/>
      <point x="207" y="91"/>
      <point x="207" y="138" type="curve" smooth="yes"/>
      <point x="207" y="233"/>
      <point x="277" y="364"/>
      <point x="397" y="388" type="curve"/>
      <point x="385" y="259"/>
      <point x="329" y="63"/>
    </contour>
  </outline>
</glyph>
<glyph name="emptyset" format="1">
  <advance width="1552"/>
  <unicode hex="2205"/>
  <outline>
    <contour>
      <point x="778" y="206" type="curve" smooth="yes"/>
      <point x="507" y="206"/>
      <point x="310" y="410"/>
      <point x="310" y="682" type="curve" smooth="yes"/>
      <point x="310" y="952"/>
      <point x="507" y="1157"/>
      <point x="778" y="1157" type="curve" smooth="yes"/>
      <point x="1050" y="1157"/>
      <point x="1244" y="952"/>
      <point x="1244" y="682" type="curve" smooth="yes"/>
      <point x="1244" y="410"/>
      <point x="1050" y="206"/>
    </contour>
    <contour>
      <point x="776" y="66" type="curve" smooth="yes"/>
      <point x="1124" y="66"/>
      <point x="1392" y="331"/>
      <point x="1392" y="682" type="curve" smooth="yes"/>
      <point x="1392" y="1031"/>
      <point x="1124" y="1296"/>
      <point x="776" y="1296" type="curve" smooth="yes"/>
      <point x="430" y="1296"/>
      <point x="160" y="1031"/>
      <point x="160" y="682" type="curve" smooth="yes"/>
      <point x="160" y="331"/>
      <point x="430" y="66"/>
    </contour>
    <contour>
      <point x="199" y="70" type="line"/>
      <point x="286" y="-6" type="line"/>
      <point x="1363" y="1277" type="line"/>
      <point x="1276" y="1353" type="line"/>
    </contour>
  </outline>
</glyph>
<glyph name="product" format="1">
  <advance width="867"/>
  <unicode hex="220F"/>
  <outline>
    <contour>
      <point x="318" y="156" type="line"/>
      <point x="382" y="156" type="line"/>
      <point x="382" y="318" type="line"/>
      <point x="469" y="318" type="line" smooth="yes"/>
      <point x="576" y="318"/>
      <point x="604" y="372"/>
      <point x="604" y="437" type="curve" smooth="yes"/>
      <point x="604" y="443" type="line"/>
      <point x="602" y="528"/>
      <point x="553" y="563"/>
      <point x="476" y="563" type="curve" smooth="yes"/>
      <point x="318" y="563" type="line"/>
    </contour>
    <contour>
      <point x="382" y="362" type="line"/>
      <point x="382" y="519" type="line"/>
      <point x="478" y="519" type="line" smooth="yes"/>
      <point x="536" y="519"/>
      <point x="540" y="469"/>
      <point x="540" y="440" type="curve" smooth="yes"/>
      <point x="540" y="428" type="line" smooth="yes"/>
      <point x="540" y="397"/>
      <point x="529" y="362"/>
      <point x="473" y="362" type="curve" smooth="yes"/>
    </contour>
    <contour>
      <point x="435" y="40" type="curve" smooth="yes"/>
      <point x="257" y="40"/>
      <point x="127" y="175"/>
      <point x="127" y="353" type="curve" smooth="yes"/>
      <point x="127" y="531"/>
      <point x="257" y="665"/>
      <point x="435" y="665" type="curve" smooth="yes"/>
      <point x="614" y="665"/>
      <point x="741" y="531"/>
      <point x="741" y="353" type="curve" smooth="yes"/>
      <point x="741" y="175"/>
      <point x="614" y="40"/>
    </contour>
    <contour>
      <point x="434" y="-7" type="curve" smooth="yes"/>
      <point x="637" y="-7"/>
      <point x="793" y="148"/>
      <point x="793" y="353" type="curve" smooth="yes"/>
      <point x="793" y="557"/>
      <point x="637" y="711"/>
      <point x="434" y="711" type="curve" smooth="yes"/>
      <point x="232" y="711"/>
      <point x="74" y="557"/>
      <point x="74" y="353" type="curve" smooth="yes"/>
      <point x="74" y="148"/>
      <point x="232" y="-7"/>
    </contour>
  </outline>
</glyph>
<glyph name="summation" format="1">
  <advance width="583"/>
  <unicode hex="2211"/>
  <outline>
    <contour>
      <point x="529" y="0" type="line"/>
      <point x="529" y="113" type="line"/>
      <point x="223" y="113" type="line"/>
      <point x="441" y="351" type="line"/>
      <point x="441" y="399" type="line"/>
      <point x="229" y="608" type="line"/>
      <point x="529" y="608" type="line"/>
      <point x="529" y="721" type="line"/>
      <point x="63" y="721" type="line"/>
      <point x="63" y="607" type="line"/>
      <point x="291" y="372" type="line"/>
      <point x="63" y="115" type="line"/>
      <point x="63" y="0" type="line"/>
    </contour>
  </outline>
</glyph>
<glyph name="minus" format="1">
  <advance width="386"/>
  <unicode hex="2212"/>
  <outline>
    <contour>
      <point x="60" y="214" type="line"/>
      <point x="324" y="214" type="line"/>
      <point x="324" y="302" type="line"/>
      <point x="60" y="302" type="line"/>
    </contour>
  </outline>
</glyph>
<glyph name="uni2219" format="1">
  <advance width="224"/>
  <unicode hex="2219"/>
  <outline>
    <contour>
      <point x="57" y="611" type="line"/>
      <point x="178" y="611" type="line"/>
      <point x="178" y="731" type="line"/>
      <point x="57" y="731" type="line"/>
    </contour>
  </outline>
</glyph>
<glyph name="radical" format="1">
  <advance width="1298"/>
  <unicode hex="221A"/>
  <outline>
    <contour>
      <point x="-2" y="512" type="line"/>
      <point x="117" y="512" type="line"/>
      <point x="427" y="0" type="line"/>
      <point x="674" y="0" type="line"/>
      <point x="1267" y="1506" type="line"/>
      <point x="1072" y="1506" type="line"/>
      <point x="554" y="229" type="line"/>
      <point x="339" y="623" type="line"/>
      <point x="-2" y="623" type="line"/>
    </contour>
  </outline>
</glyph>
<glyph name="infinity" format="1">
  <advance width="1000"/>
  <unicode hex="221E"/>
  <outline>
    <contour>
      <point x="248" y="176" type="curve" smooth="yes"/>
      <point x="337" y="176"/>
      <point x="500" y="303"/>
      <point x="500" y="303" type="curve"/>
      <point x="500" y="303"/>
      <point x="663" y="176"/>
      <point x="752" y="176" type="curve" smooth="yes"/>
      <point x="831" y="176"/>
      <point x="894" y="245"/>
      <point x="894" y="374" type="curve" smooth="yes"/>
      <point x="894" y="503"/>
      <point x="831" y="571"/>
      <point x="752" y="571" type="curve" smooth="yes"/>
      <point x="663" y="571"/>
      <point x="500" y="444"/>
      <point x="500" y="444" type="curve"/>
      <point x="500" y="444"/>
      <point x="337" y="571"/>
      <point x="248" y="571" type="curve" smooth="yes"/>
      <point x="169" y="571"/>
      <point x="106" y="503"/>
      <point x="106" y="374" type="curve" smooth="yes"/>
      <point x="106" y="245"/>
      <point x="169" y="176"/>
    </contour>
    <contour>
      <point x="257" y="290" type="curve" smooth="yes"/>
      <point x="204" y="290"/>
      <point x="185" y="326"/>
      <point x="185" y="374" type="curve" smooth="yes"/>
      <point x="185" y="422"/>
      <point x="204" y="458"/>
      <point x="257" y="458" type="curve" smooth="yes"/>
      <point x="293" y="458"/>
      <point x="382" y="399"/>
      <point x="434" y="374" type="curve"/>
      <point x="382" y="349"/>
      <point x="293" y="290"/>
    </contour>
    <contour>
      <point x="743" y="290" type="curve" smooth="yes"/>
      <point x="707" y="290"/>
      <point x="618" y="349"/>
      <point x="566" y="374" type="curve"/>
      <point x="618" y="399"/>
      <point x="707" y="458"/>
      <point x="743" y="458" type="curve" smooth="yes"/>
      <point x="796" y="458"/>
      <point x="815" y="422"/>
      <point x="815" y="374" type="curve" smooth="yes"/>
      <point x="815" y="326"/>
      <point x="796" y="290"/>
    </contour>
  </outline>
</glyph>
<glyph name="integral" format="1">
  <advance width="338"/>
  <unicode hex="222B"/>
  <outline>
    <contour>
      <point x="86" y="-128" type="curve" smooth="yes"/>
      <point x="197" y="-128"/>
      <point x="208" y="-61"/>
      <point x="208" y="21" type="curve" smooth="yes"/>
      <point x="208" y="562" type="line" smooth="yes"/>
      <point x="208" y="599"/>
      <point x="213" y="631"/>
      <point x="261" y="631" type="curve" smooth="yes"/>
      <point x="268" y="631"/>
      <point x="280" y="629"/>
      <point x="290" y="628" type="curve"/>
      <point x="290" y="700" type="line"/>
      <point x="264" y="703"/>
      <point x="248" y="704"/>
      <point x="230" y="704" type="curve" smooth="yes"/>
      <point x="117" y="704"/>
      <point x="107" y="636"/>
      <point x="107" y="550" type="curve" smooth="yes"/>
      <point x="107" y="8" type="line" smooth="yes"/>
      <point x="107" y="-28"/>
      <point x="101" y="-56"/>
      <point x="57" y="-56" type="curve" smooth="yes"/>
      <point x="50" y="-56"/>
      <point x="37" y="-54"/>
      <point x="25" y="-52" type="curve"/>
      <point x="25" y="-124" type="line"/>
      <point x="51" y="-127"/>
      <point x="67" y="-128"/>
    </contour>
  </outline>
</glyph>
<glyph name="approxequal" format="1">
  <advance width="1024"/>
  <unicode hex="2248"/>
  <outline>
    <contour>
      <point x="721" y="738" type="curve" smooth="yes"/>
      <point x="856" y="738"/>
      <point x="964" y="839"/>
      <point x="964" y="1027" type="curve"/>
      <point x="855" y="1027" type="line"/>
      <point x="855" y="956"/>
      <point x="822" y="905"/>
      <point x="732" y="905" type="curve" smooth="yes"/>
      <point x="652" y="905"/>
      <point x="455" y="1043"/>
      <point x="302" y="1043" type="curve" smooth="yes"/>
      <point x="167" y="1043"/>
      <point x="60" y="943"/>
      <point x="60" y="754" type="curve"/>
      <point x="168" y="754" type="line"/>
      <point x="168" y="825"/>
      <point x="201" y="877"/>
      <point x="292" y="877" type="curve" smooth="yes"/>
      <point x="371" y="877"/>
      <point x="567" y="738"/>
    </contour>
    <contour>
      <point x="721" y="1131" type="curve" smooth="yes"/>
      <point x="856" y="1131"/>
      <point x="964" y="1232"/>
      <point x="964" y="1420" type="curve"/>
      <point x="855" y="1420" type="line"/>
      <point x="855" y="1349"/>
      <point x="822" y="1298"/>
      <point x="732" y="1298" type="curve" smooth="yes"/>
      <point x="652" y="1298"/>
      <point x="455" y="1436"/>
      <point x="302" y="1436" type="curve" smooth="yes"/>
      <point x="167" y="1436"/>
      <point x="60" y="1336"/>
      <point x="60" y="1147" type="curve"/>
      <point x="168" y="1147" type="line"/>
      <point x="168" y="1218"/>
      <point x="201" y="1270"/>
      <point x="292" y="1270" type="curve" smooth="yes"/>
      <point x="371" y="1270"/>
      <point x="567" y="1131"/>
    </contour>
  </outline>
</glyph>
<glyph name="notequal" format="1">
  <advance width="448"/>
  <unicode hex="2260"/>
  <outline>
    <component base="equal"/>
    <contour>
      <point x="62" y="73" type="line"/>
      <point x="146" y="73" type="line"/>
      <point x="360" y="534" type="line"/>
      <point x="276" y="534" type="line"/>
    </contour>
  </outline>
</glyph>
<glyph name="lessequal" format="1">
  <advance width="1252"/>
  <unicode hex="2264"/>
  <outline>
    <contour>
      <point x="1023" y="239" type="line"/>
      <point x="1023" y="470" type="line"/>
      <point x="420" y="764" type="line"/>
      <point x="1023" y="1058" type="line"/>
      <point x="1023" y="1289" type="line"/>
      <point x="239" y="872" type="line"/>
      <point x="239" y="653" type="line"/>
    </contour>
    <contour>
      <point x="229" y="0" type="line"/>
      <point x="1021" y="0" type="line"/>
      <point x="1021" y="175" type="line"/>
      <point x="229" y="175" type="line"/>
    </contour>
  </outline>
</glyph>
<glyph name="greaterequal" format="1">
  <advance width="610"/>
  <unicode hex="2265"/>
  <outline>
    <contour>
      <point x="120" y="115" type="line"/>
      <point x="482" y="318" type="line"/>
      <point x="482" y="425" type="line"/>
      <point x="120" y="628" type="line"/>
      <point x="120" y="514" type="line"/>
      <point x="395" y="372" type="line"/>
      <point x="120" y="227" type="line"/>
    </contour>
    <contour>
      <point x="90" y="0" type="line"/>
      <point x="521" y="0" type="line"/>
      <point x="521" y="85" type="line"/>
      <point x="90" y="85" type="line"/>
    </contour>
  </outline>
</glyph>
<glyph name="lozenge" format="1">
  <advance width="539"/>
  <unicode hex="25CA"/>
  <outline>
    <contour>
      <point x="228" y="0" type="line"/>
      <point x="324" y="0" type="line"/>
      <point x="489" y="368" type="line"/>
      <point x="324" y="735" type="line"/>
      <point x="228" y="735" type="line"/>
      <point x="50" y="368" type="line"/>
    </contour>
    <contour>
      <point x="277" y="92" type="line"/>
      <point x="154" y="368" type="line"/>
      <point x="277" y="638" type="line"/>
      <point x="387" y="368" type="line"/>
    </contour>
  </outline>
</glyph>
<glyph name="caron.alt" format="1">
  <advance width="292"/>
  <outline>
    <contour>
      <point x="187" y="524" type="move" name="_caron.alt"/>
    </contour>
    <contour>
      <point x="346" y="583" type="line"/>
      <point x="376" y="611"/>
      <point x="441" y="700"/>
      <point x="441" y="798" type="curve" smooth="yes"/>
      <point x="441" y="907" type="line"/>
      <point x="284" y="907" type="line"/>
      <point x="284" y="772" type="line"/>
      <point x="365" y="772" type="line"/>
      <point x="365" y="705"/>
      <point x="318" y="633"/>
      <point x="293" y="605" type="curve"/>
    </contour>
  </outline>
</glyph>
